<?xml version="1.0" ?>
<!-- Uploaded to: SVG Repo, www.svgrepo.com, Generator: SVG Repo Mixer Tools -->
<svg fill="#000000" width="800px" height="800px" viewBox="0 0 64 64" xmlns="http://www.w3.org/2000/svg">
<g data-name="10 barcode" id="_10_barcode">
<path d="M18.741,4.5a1,1,0,0,0-1-1H4.5a1,1,0,0,0-1,1v55a1,1,0,0,0,1,1H17.741a1,1,0,0,0,0-2H5.5V5.5H17.741A1,1,0,0,0,18.741,4.5Z"/>
<path d="M59.5,3.5H46.259a1,1,0,0,0,0,2H58.5v53H46.259a1,1,0,0,0,0,2H59.5a1,1,0,0,0,1-1V4.5A1,1,0,0,0,59.5,3.5Z"/>
<path d="M9.611,10.393V53.607a1,1,0,0,0,2,0V10.393a1,1,0,0,0-2,0Z"/>
<path d="M14.7,10.393V53.607a1,1,0,0,0,2,0V10.393a1,1,0,0,0-2,0Z"/>
<path d="M28.944,9.393a1,1,0,0,0-1,1V53.607a1,1,0,0,0,2,0V10.393A1,1,0,0,0,28.944,9.393Z"/>
<path d="M35.056,9.393a1,1,0,0,0-1,1V53.607a1,1,0,0,0,2,0V10.393A1,1,0,0,0,35.056,9.393Z"/>
<path d="M20.8,9.393a1,1,0,0,0-1,1v27.5a1,1,0,0,0,2,0v-27.5A1,1,0,0,0,20.8,9.393Z"/>
<path d="M54.389,53.607V10.393a1,1,0,0,0-2,0V53.607a1,1,0,0,0,2,0Z"/>
<path d="M49.3,53.607V10.393a1,1,0,0,0-2,0V53.607a1,1,0,0,0,2,0Z"/>
<path d="M43.2,9.393a1,1,0,0,0-1,1v27.5a1,1,0,0,0,2,0v-27.5A1,1,0,0,0,43.2,9.393Z"/>
</g>
</svg>