<?xml version="1.0" encoding="utf-8"?>

<!-- Uploaded to: SVG Repo, www.svgrepo.com, Generator: SVG Repo Mixer Tools -->
<svg fill="#000000" height="800px" width="800px" version="1.1" id="Icons" xmlns="http://www.w3.org/2000/svg" xmlns:xlink="http://www.w3.org/1999/xlink" 
	 viewBox="0 0 32 32" xml:space="preserve">
<path d="M28.8,7.4c-0.7-0.3-1.5-0.2-2.1,0.3L15,17.7c-0.2,0.2-0.5,0.3-0.8,0.3c-0.7,0-1.2-0.5-1.2-1.2c0-1.5-1.3-2.8-2.8-2.8H9.9
	c-0.9,0-1.7,0.4-2.3,1.1l-4.9,5.7C2.3,21.3,2,22,2,22.8C2,24.6,3.4,26,5.2,26h6.4c1.2,0,2.3-0.4,3.2-1.1l8.1-6.5
	c0.3,0.4,0.6,0.9,0.8,1.4c0.2,0.6,0.4,1.3,0.4,2V25c0,0.6,0.4,1,1,1h3c0.6,0,1-0.4,1-1v-1.8l0.3-2.3C29.8,17,30,13.1,30,9.2
	C30,8.4,29.6,7.7,28.8,7.4z"/>
</svg>