<?xml version="1.0" encoding="iso-8859-1"?>
<!-- Uploaded to: SVG Repo, www.svgrepo.com, Generator: SVG Repo Mixer Tools -->
<!DOCTYPE svg PUBLIC "-//W3C//DTD SVG 1.1//EN" "http://www.w3.org/Graphics/SVG/1.1/DTD/svg11.dtd">
<svg fill="#000000" height="800px" width="800px" version="1.1" id="Capa_1" xmlns="http://www.w3.org/2000/svg" xmlns:xlink="http://www.w3.org/1999/xlink" 
	 viewBox="0 0 452.872 452.872" xml:space="preserve">
<g>
	<path d="M386.803,426.734l-149.106-64.313c-4.924-3.051-6.617-10.566-7.645-14.218l-22.514-79.897l27.228-23.649l23.486,0.335
		l12.243,47.636c1.618,7.685,5.372,18.838,8.698,25.867l25.277,59.434c3.581,7.568,11.308,12.459,19.684,12.459
		c3.228,0,6.353-0.705,9.291-2.095c10.846-5.131,15.496-18.129,10.4-28.898l-25.276-59.433c-1.939-4.098-4.555-11.868-5.506-16.378
		l-28.723-109.26c3.324,2.6,8.501,7.845,10.806,10.986l16.75,22.839c3.873,5.281,10.1,8.434,16.656,8.434
		c4.409,0,8.625-1.382,12.191-3.997c4.445-3.26,7.355-8.057,8.192-13.505c0.838-5.449-0.496-10.897-3.757-15.342l-16.75-22.84
		c-4.834-6.591-13.426-15.232-19.984-20.1l-44.386-32.951c-3.585-2.662-7.786-3.981-14.068-3.981l-58.805,0.36
		c-8.476,0-14.188,5.145-17.382,12.133l-18.171,39.743l-36.378-1.624c-11.485-0.527-21.031,8.327-21.538,19.697
		c-0.508,11.369,8.328,21.03,19.697,21.538l39.071,1.744c0.493,0.021,0.982,0.033,1.476,0.033c14.211,0,28.229-8.953,34.088-21.773
		l2.423-5.299l9.941,42.956l-27.361,23.766c-10.944,9.506-16.034,26.533-12.102,40.487l17.134,60.806l-63.436-27.361l4.941-11.626
		c1.056-2.485,1.002-4.814-0.152-6.559c-1.263-1.909-3.667-2.817-6.607-2.474l-52.857,6.151c-2.834,0.33-4.866,1.621-5.722,3.635
		c-0.855,2.014-0.375,4.373,1.354,6.642l32.256,42.322c1.537,2.016,3.465,3.125,5.43,3.126h0.001c2.44,0,4.541-1.651,5.765-4.529
		l4.934-11.61l268.023,115.603c1.758,0.758,3.588,1.117,5.389,1.117c5.274,0,10.295-3.081,12.517-8.231
		C396.898,437.731,393.712,429.714,386.803,426.734z"/>
	<path d="M218.572,97.54c26.892,0,48.77-21.878,48.77-48.771C267.341,21.877,245.463,0,218.572,0
		c-26.886,0-48.759,21.877-48.759,48.769C169.813,75.662,191.686,97.54,218.572,97.54z"/>
</g>
</svg>