<?xml version="1.0" encoding="utf-8"?>

<!-- Uploaded to: SVG Repo, www.svgrepo.com, Generator: SVG Repo Mixer Tools -->
<svg fill="#000000" height="800px" width="800px" version="1.1" id="Icons" xmlns="http://www.w3.org/2000/svg" xmlns:xlink="http://www.w3.org/1999/xlink" 
	 viewBox="0 0 32 32" xml:space="preserve">
<g>
	<path d="M29,8H3C2.4,8,2,8.4,2,9v14c0,0.6,0.4,1,1,1h26c0.6,0,1-0.4,1-1V9C30,8.4,29.6,8,29,8z M24.1,22H7.9C7.5,20,6,18.5,4,18.1
		v-4.2C6,13.5,7.5,12,7.9,10h16.2c0.4,2,1.9,3.5,3.9,3.9v4.2C26,18.5,24.5,20,24.1,22z"/>
	<path d="M16,11c-2.2,0-4,2.2-4,5s1.8,5,4,5s4-2.2,4-5S18.2,11,16,11z"/>
</g>
</svg>