<?xml version="1.0" ?>
<!-- Uploaded to: SVG Repo, www.svgrepo.com, Generator: SVG Repo Mixer Tools -->
<svg fill="#000000" width="800px" height="800px" viewBox="0 0 64 64" xmlns="http://www.w3.org/2000/svg">
<g data-name="36 favorite" id="_36_favorite">
<path d="M47,30.43a13.609,13.609,0,0,0-2.65.26V22.4l5.09,5.61a.995.995,0,0,0,1.48,0l7.49-8.29a.986.986,0,0,0,0-1.34l-5.26-5.81a19.037,19.037,0,0,0-6.61-4.81A15.787,15.787,0,0,0,41.2,6.61c-.43-.02-.9-.04-1.39-.04V6.56H22.32c-.48,0-.93.03-1.34.05a15.561,15.561,0,0,0-5.35,1.16,18.879,18.879,0,0,0-6.61,4.8L3.76,18.38a.986.986,0,0,0,0,1.34l7.49,8.29a.995.995,0,0,0,1.48,0l5.09-5.61V48.48a1,1,0,0,0,1,1H34.7A13.5,13.5,0,1,0,47,30.43ZM34.99,8.56c-.12.15-.25.3-.36.44-.15.18-.3.37-.46.55-.48.53-1.02,1.07-1.75,1.78-.3.28-.87.81-1.3.8a1.113,1.113,0,0,1-.39-.12A9.7,9.7,0,0,1,28.18,9.7l-.17-.19c-.13-.14-.25-.29-.37-.43-.14-.17-.3-.34-.45-.52ZM33.98,47.48H19.82V19.81a.994.994,0,0,0-.64-.93,1.01,1.01,0,0,0-1.1.26l-6.09,6.71-6.14-6.8,4.65-5.13a17.02,17.02,0,0,1,5.9-4.31,13.64,13.64,0,0,1,4.68-1c1.32-.07,2.96-.16,3.94.62a9.224,9.224,0,0,1,1.1,1.14c.13.16.26.31.39.46l.16.19a11.269,11.269,0,0,0,3.15,2.76,2.769,2.769,0,0,0,1.23.35,3.859,3.859,0,0,0,2.75-1.36c.77-.73,1.34-1.31,1.85-1.88.18-.2.36-.42.53-.64a6.317,6.317,0,0,1,.97-1.02c.98-.78,2.62-.69,3.95-.62a13.634,13.634,0,0,1,4.67,1,17.02,17.02,0,0,1,5.9,4.31l4.65,5.13-6.14,6.8-6.09-6.71a1.01,1.01,0,0,0-1.1-.26.994.994,0,0,0-.64.93V31.27a13.414,13.414,0,0,0-8.37,16.21ZM47,55.44A11.505,11.505,0,1,1,58.5,43.93,11.519,11.519,0,0,1,47,55.44Z"/>
<path d="M50.98,34.98H43.02a1,1,0,0,0-1,1V51.89a1.016,1.016,0,0,0,.58.91.98.98,0,0,0,1.06-.15L47,49.85l3.33,2.8a.987.987,0,0,0,.65.24,1.059,1.059,0,0,0,.42-.09,1.016,1.016,0,0,0,.58-.91V35.98A1,1,0,0,0,50.98,34.98Zm-1,14.76-2.34-1.97a1,1,0,0,0-.64-.23,1.053,1.053,0,0,0-.65.23l-2.33,1.97V36.98h5.96Z"/>
</g>
</svg>