<?xml version="1.0" encoding="utf-8"?>

<!-- Uploaded to: SVG Repo, www.svgrepo.com, Generator: SVG Repo Mixer Tools -->
<svg fill="#000000" height="800px" width="800px" version="1.1" id="Icons" xmlns="http://www.w3.org/2000/svg" xmlns:xlink="http://www.w3.org/1999/xlink" 
	 viewBox="0 0 32 32" xml:space="preserve">
<path d="M30.9,22.3c-0.1-0.5-0.7-0.8-1.2-0.7c-0.6,0.1-0.9,0-1-0.1c-0.1-0.1,0-0.5,0.4-1c0.4-0.4,0.4-1,0-1.4
	c-0.9-0.9-2-1.5-3.2-1.8c-0.5-0.1-1.1,0.2-1.2,0.7c-0.2,0.6-0.5,0.8-0.6,0.8s-0.5-0.3-0.6-0.8c-0.2-0.5-0.7-0.8-1.2-0.7
	c-1.2,0.3-2.3,1-3.2,1.8c-0.4,0.4-0.4,1,0,1.4c0.4,0.4,0.5,0.8,0.4,1c-0.1,0.1-0.5,0.3-1,0.1c-0.5-0.1-1.1,0.2-1.2,0.7
	c-0.2,0.6-0.2,1.2-0.2,1.8s0.1,1.2,0.2,1.8c0.1,0.5,0.7,0.8,1.2,0.7c0.6-0.1,0.9,0,1,0.1c0.1,0.1,0,0.5-0.4,1c-0.4,0.4-0.4,1,0,1.4
	c0.9,0.9,2,1.5,3.2,1.8c0.5,0.1,1.1-0.2,1.2-0.7c0.2-0.6,0.5-0.8,0.6-0.8s0.5,0.3,0.6,0.8c0.1,0.4,0.5,0.7,1,0.7c0.1,0,0.2,0,0.3,0
	c1.2-0.3,2.3-1,3.2-1.8c0.4-0.4,0.4-1,0-1.4c-0.4-0.4-0.5-0.8-0.4-1c0.1-0.1,0.5-0.3,1-0.1c0.5,0.1,1.1-0.2,1.2-0.7
	c0.2-0.6,0.2-1.2,0.2-1.8S31.1,22.9,30.9,22.3z M24,27c-1.7,0-3-1.3-3-3s1.3-3,3-3s3,1.3,3,3S25.7,27,24,27z"/>
<path d="M15,24c0-3.8,2.3-7,5.7-8.4L20,8.9C19.9,8.4,19.5,8,19,8h-3V7c0-2.8-2.2-5-5-5S6,4.2,6,7v1H3C2.5,8,2.1,8.4,2,8.9l-2,20
	c0,0.3,0.1,0.6,0.3,0.8S0.7,30,1,30h16.3C15.9,28.4,15,26.3,15,24z M14,8H8V7c0-1.7,1.3-3,3-3s3,1.3,3,3V8z"/>
</svg>