<?xml version="1.0" encoding="utf-8"?>

<!-- Uploaded to: SVG Repo, www.svgrepo.com, Generator: SVG Repo Mixer Tools -->
<svg fill="#000000" height="800px" width="800px" version="1.1" id="Icons" xmlns="http://www.w3.org/2000/svg" xmlns:xlink="http://www.w3.org/1999/xlink" 
	 viewBox="0 0 32 32" xml:space="preserve">
<path d="M12.4,8h7.2l1.6-3.1c0.3-0.6,0.3-1.4-0.1-1.9S20.1,2,19.4,2h-6.8c-0.7,0-1.3,0.4-1.7,0.9s-0.4,1.3-0.1,1.9L12.4,8z"/>
<path d="M20.8,18H16c-0.6,0-1-0.4-1-1s0.4-1,1-1h4.4l-1.2-6h-6.4l-2.6,12.8c-0.2,1,0.1,2,0.8,2.7l3.5,3.5c0.4,0.4,0.9,0.6,1.4,0.6
	s1-0.2,1.4-0.6l3.5-3.5c0.7-0.7,1-1.7,0.8-2.7L20.8,18z"/>
</svg>