<?xml version="1.0" encoding="utf-8"?>

<!-- Uploaded to: SVG Repo, www.svgrepo.com, Generator: SVG Repo Mixer Tools -->
<svg fill="#000000" height="800px" width="800px" version="1.1" id="Icons" xmlns="http://www.w3.org/2000/svg" xmlns:xlink="http://www.w3.org/1999/xlink" 
	 viewBox="0 0 32 32" xml:space="preserve">
<g>
	<path d="M24.2,7l-0.7-3.2c-0.1-0.5-0.5-0.8-1-0.8H9.5c-0.5,0-0.9,0.3-1,0.8L7.8,7H24.2z"/>
	<path d="M24.6,9H7.4L3,27.8c-0.1,0.3,0,0.6,0.2,0.8C3.4,28.9,3.7,29,4,29h6.5c0.4,0,0.8-0.3,1-0.7l4.5-14l4.5,14
		c0.1,0.4,0.5,0.7,1,0.7H28c0.3,0,0.6-0.1,0.8-0.4c0.2-0.2,0.3-0.5,0.2-0.8L24.6,9z"/>
</g>
</svg>