<?xml version="1.0" encoding="UTF-8" standalone="no"?>
<svg xmlns:inkscape="http://www.inkscape.org/namespaces/inkscape" xmlns:rdf="http://www.w3.org/1999/02/22-rdf-syntax-ns#" xmlns="http://www.w3.org/2000/svg" xmlns:sodipodi="http://sodipodi.sourceforge.net/DTD/sodipodi-0.dtd" xmlns:cc="http://creativecommons.org/ns#" xmlns:xlink="http://www.w3.org/1999/xlink" xmlns:dc="http://purl.org/dc/elements/1.1/" xmlns:svg="http://www.w3.org/2000/svg" id="svg1552" viewBox="0 0 105.29 121.17" sodipodi:version="0.32" version="1.1" inkscape:version="0.48.3.1 r9886" sodipodi:docname="_svgclean2.svg" xmlns:ns1="http://sozi.baierouge.fr">
  <defs id="defs3">
    <linearGradient id="linearGradient12058">
      <stop id="stop12059" stop-color="#392e21" offset="0"/>
      <stop id="stop12061" stop-color="#b39069" stop-opacity=".49804" offset=".5"/>
      <stop id="stop12060" stop-color="#cca478" stop-opacity="0" offset="1"/>
    </linearGradient>
    <linearGradient id="linearGradient4591">
      <stop id="stop4592" stop-color="#9f805e" offset="0"/>
      <stop id="stop4593" stop-color="#ffcd97" offset="1"/>
    </linearGradient>
    <linearGradient id="linearGradient1963">
      <stop id="stop1964" stop-color="#a0815e" offset="0"/>
      <stop id="stop1965" stop-color="#ffcd97" stop-opacity="0" offset="1"/>
    </linearGradient>
    <linearGradient id="linearGradient4858">
      <stop id="stop4859" stop-color="#23283e" offset="0"/>
      <stop id="stop4860" stop-color="#3139a3" offset="1"/>
    </linearGradient>
    <linearGradient id="linearGradient4202">
      <stop id="stop4203" stop-color="#fff" offset="0"/>
      <stop id="stop4204" stop-color="#dbdde4" offset="1"/>
    </linearGradient>
    <radialGradient id="radialGradient2299" xlink:href="#linearGradient4202" gradientUnits="userSpaceOnUse" cy="396.96" cx="67.611" gradientTransform="scale(1.4082 .71012)" r="10.161"/>
    <radialGradient id="radialGradient8278" gradientUnits="userSpaceOnUse" cy="379.9" cx="96.388" gradientTransform="matrix(2.7089 0 0 .97505 -201.91 -261.58)" r="1.717">
      <stop id="stop8946" stop-color="#9a7c5a" offset="0"/>
      <stop id="stop8947" stop-color="#cca478" stop-opacity="0" offset="1"/>
    </radialGradient>
    <radialGradient id="radialGradient8280" xlink:href="#linearGradient12058" gradientUnits="userSpaceOnUse" cy="415.24" cx="9.3867" gradientTransform="matrix(5.8622 .095664 1.0233 .83833 -427.5 -244.87)" r="1.9257"/>
    <radialGradient id="radialGradient8282" xlink:href="#linearGradient12058" gradientUnits="userSpaceOnUse" cy="415.24" cx="9.3867" gradientTransform="matrix(-5.2647 .095664 -.91903 .83833 496.41 -244.87)" r="1.9257"/>
    <radialGradient id="radialGradient8284" xlink:href="#linearGradient12058" gradientUnits="userSpaceOnUse" cy="415.24" cx="9.3867" gradientTransform="matrix(1.3607 -.26329 .26689 .51263 -66.036 -116.73)" r="1.9257"/>
    <radialGradient id="radialGradient8286" xlink:href="#linearGradient12058" gradientUnits="userSpaceOnUse" cy="415.24" cx="9.3867" gradientTransform="matrix(-1.4595 -.26329 -.28627 .51263 194.88 -116.63)" r="1.9257"/>
    <radialGradient id="radialGradient8288" xlink:href="#linearGradient1963" gradientUnits="userSpaceOnUse" cy="237.48" cx="125.08" gradientTransform="matrix(-.84861 -.09929 -.1405 1.2003 192.35 -203.29)" r="4.7144"/>
    <radialGradient id="radialGradient8294" xlink:href="#linearGradient4591" gradientUnits="userSpaceOnUse" cy="381.08" cx="67.211" gradientTransform="matrix(1.3841 .10948 -.051652 .65297 -31.157 -194.29)" r="9.4621"/>
    <radialGradient id="radialGradient8296" xlink:href="#linearGradient1963" gradientUnits="userSpaceOnUse" cy="237.48" cx="125.08" gradientTransform="matrix(-1.2037 -.13451 -.18052 1.4655 245.17 -265.06)" r="4.7144"/>
    <linearGradient id="linearGradient8302" y2="157.57" xlink:href="#linearGradient4858" gradientUnits="userSpaceOnUse" y1="157.57" gradientTransform="matrix(.50118 .29752 -.10972 .3164 -209.31 -192.47)" x2="551.76" x1="535.26"/>
    <linearGradient id="linearGradient8304" y2="157.57" xlink:href="#linearGradient4858" gradientUnits="userSpaceOnUse" y1="157.57" gradientTransform="matrix(1.1177 .51713 -.34096 .73694 -512.18 -381.3)" x2="551.76" x1="535.26"/>
    <linearGradient id="linearGradient8306" y2="157.57" xlink:href="#linearGradient4858" gradientUnits="userSpaceOnUse" y1="157.57" gradientTransform="matrix(1.1891 .32059 -.21137 .784 -567.31 -275.76)" x2="551.76" x1="535.26"/>
    <linearGradient id="linearGradient8308" y2="157.57" xlink:href="#linearGradient4858" gradientUnits="userSpaceOnUse" y1="157.57" gradientTransform="matrix(1.3945 .23234 .4819 .79741 -784.82 -224.38)" x2="551.76" x1="535.26"/>
    <linearGradient id="linearGradient8310" y2="157.57" xlink:href="#linearGradient4858" gradientUnits="userSpaceOnUse" y1="157.57" gradientTransform="matrix(.93921 .0065816 .13936 .56591 -481.63 -62.353)" x2="551.76" x1="535.26"/>
    <linearGradient id="linearGradient8312" y2="157.57" xlink:href="#linearGradient4858" gradientUnits="userSpaceOnUse" y1="157.57" gradientTransform="matrix(.93921 .0065816 .13936 .56591 -480.29 -57.134)" x2="551.76" x1="535.26"/>
    <linearGradient id="linearGradient8314" y2="157.57" xlink:href="#linearGradient4858" gradientUnits="userSpaceOnUse" y1="157.57" gradientTransform="matrix(.51664 .10427 .0086352 .34733 -232.38 -82.566)" x2="551.76" x1="535.26"/>
    <linearGradient id="linearGradient8316" y2="157.57" xlink:href="#linearGradient4858" gradientUnits="userSpaceOnUse" y1="157.57" gradientTransform="matrix(1.4186 .19192 .22171 .87495 -781.79 -207.26)" x2="551.76" x1="535.26"/>
    <linearGradient id="linearGradient8318" y2="157.57" xlink:href="#linearGradient4858" gradientUnits="userSpaceOnUse" y1="157.57" gradientTransform="matrix(1.4194 -.18614 .44303 .7864 -821.55 27.025)" x2="551.76" x1="535.26"/>
    <linearGradient id="linearGradient8320" y2="157.57" xlink:href="#linearGradient4858" gradientUnits="userSpaceOnUse" y1="157.57" gradientTransform="matrix(1.2 -.13997 .35778 .71194 -675.47 14.393)" x2="551.76" x1="535.26"/>
    <linearGradient id="linearGradient8322" y2="157.57" xlink:href="#linearGradient4858" gradientUnits="userSpaceOnUse" y1="157.57" gradientTransform="matrix(1.4194 -.18614 .44303 .7864 -797.54 26.554)" x2="551.76" x1="535.26"/>
    <linearGradient id="linearGradient8324" y2="157.57" xlink:href="#linearGradient4858" gradientUnits="userSpaceOnUse" y1="157.57" gradientTransform="matrix(1.31 .57715 -.02918 .90213 -685.16 -433)" x2="551.76" x1="535.26"/>
    <linearGradient id="linearGradient8326" y2="157.57" xlink:href="#linearGradient4858" gradientUnits="userSpaceOnUse" y1="157.57" gradientTransform="matrix(.88986 -.31066 .42847 .5856 -531.35 135.16)" x2="551.76" x1="535.26"/>
    <linearGradient id="linearGradient8328" y2="157.57" xlink:href="#linearGradient4858" gradientUnits="userSpaceOnUse" y1="157.57" gradientTransform="matrix(.71494 -.82005 .63552 .24245 -463.78 474.32)" x2="551.76" x1="535.26"/>
    <linearGradient id="linearGradient8330" y2="157.57" xlink:href="#linearGradient4858" gradientUnits="userSpaceOnUse" y1="157.57" gradientTransform="matrix(.82537 .44825 -.14366 .56483 -355.37 -320)" x2="551.76" x1="535.26"/>
    <linearGradient id="linearGradient8332" y2="157.57" xlink:href="#linearGradient4858" gradientUnits="userSpaceOnUse" y1="157.57" gradientTransform="matrix(.52928 .46366 -.099945 .56204 -201.24 -324.28)" x2="551.76" x1="535.26"/>
    <linearGradient id="linearGradient8334" y2="157.57" xlink:href="#linearGradient4858" gradientUnits="userSpaceOnUse" y1="157.57" gradientTransform="matrix(.50118 .29752 -.10972 .3164 -182.79 -192.9)" x2="551.76" x1="535.26"/>
    <linearGradient id="linearGradient8336" y2="157.57" xlink:href="#linearGradient4858" gradientUnits="userSpaceOnUse" y1="157.57" gradientTransform="matrix(.88299 .23711 .26103 .50943 -448.52 -187.93)" x2="551.76" x1="535.26"/>
    <linearGradient id="linearGradient8338" y2="157.57" xlink:href="#linearGradient4858" gradientUnits="userSpaceOnUse" y1="157.57" gradientTransform="matrix(.85646 .31996 .21143 .53193 -426.49 -233.43)" x2="551.76" x1="535.26"/>
    <linearGradient id="linearGradient8340" y2="157.57" xlink:href="#linearGradient4858" gradientUnits="userSpaceOnUse" y1="157.57" gradientTransform="matrix(.16807 .56467 -.25092 .52687 19.367 -362.71)" x2="551.76" x1="535.26"/>
    <linearGradient id="linearGradient8342" y2="157.57" xlink:href="#linearGradient4858" gradientUnits="userSpaceOnUse" y1="157.57" gradientTransform="matrix(-.0043404 .83255 -.3732 .12353 127.54 -435.13)" x2="551.76" x1="535.26"/>
    <linearGradient id="linearGradient8346" y2="157.57" xlink:href="#linearGradient4858" gradientUnits="userSpaceOnUse" y1="157.57" gradientTransform="matrix(-1.1579 -.3448 -.47518 .63958 778.75 130.98)" x2="551.76" x1="535.26"/>
    <linearGradient id="linearGradient8348" y2="157.57" xlink:href="#linearGradient4858" gradientUnits="userSpaceOnUse" y1="157.57" gradientTransform="matrix(-1.1081 -.48154 -.54864 .5778 774.09 229.52)" x2="551.76" x1="535.26"/>
    <radialGradient id="radialGradient8350" xlink:href="#linearGradient4591" gradientUnits="userSpaceOnUse" cy="381.08" cx="67.211" gradientTransform="matrix(-1.3841 .10948 .051652 .65297 149.59 -193.48)" r="9.4621"/>
    <linearGradient id="linearGradient8352" y2="157.57" xlink:href="#linearGradient4858" gradientUnits="userSpaceOnUse" y1="157.57" gradientTransform="matrix(-1.1081 -.48154 -.54864 .5778 782.59 235.14)" x2="551.76" x1="535.26"/>
    <linearGradient id="linearGradient8354" y2="157.57" xlink:href="#linearGradient4858" gradientUnits="userSpaceOnUse" y1="157.57" gradientTransform="matrix(-.95748 -.27592 -.38116 .55279 680.09 114.41)" x2="551.76" x1="535.26"/>
    <linearGradient id="linearGradient8356" y2="157.57" xlink:href="#linearGradient4858" gradientUnits="userSpaceOnUse" y1="157.57" gradientTransform="matrix(-.98542 .14786 -.11635 .6613 647.9 -156.92)" x2="551.76" x1="535.26"/>
    <linearGradient id="linearGradient8358" y2="157.57" xlink:href="#linearGradient4858" gradientUnits="userSpaceOnUse" y1="157.57" gradientTransform="matrix(-.81215 .57734 .19516 .64247 450.7 -406.03)" x2="551.76" x1="535.26"/>
    <linearGradient id="linearGradient8360" y2="157.57" xlink:href="#linearGradient4858" gradientUnits="userSpaceOnUse" y1="157.57" gradientTransform="matrix(-1.2073 .044509 -.24513 .75814 783.45 -113.89)" x2="551.76" x1="535.26"/>
    <linearGradient id="linearGradient8362" y2="157.57" xlink:href="#linearGradient4858" gradientUnits="userSpaceOnUse" y1="157.57" gradientTransform="matrix(-1.0258 -.21642 -.36431 .59385 703.12 62.445)" x2="551.76" x1="535.26"/>
    <linearGradient id="linearGradient8402" y2="297.24" xlink:href="#linearGradient4858" gradientUnits="userSpaceOnUse" y1="294.27" gradientTransform="matrix(2.4036,0,0,2.5458,-729.67,-682.76)" x2="336.34" x1="335.18"/>
    <linearGradient id="linearGradient8404" y2="441.57" xlink:href="#linearGradient4202" gradientUnits="userSpaceOnUse" y1="447.51" gradientTransform="matrix(-1.2618 -.14718 -.37621 .74861 436.13 -239.9)" x2="154.67" x1="153.34"/>
    <linearGradient id="linearGradient8406" y2="297.24" xlink:href="#linearGradient4858" gradientUnits="userSpaceOnUse" y1="294.27" gradientTransform="matrix(2.4036,0,0,2.5458,-762.29,-682.51)" x2="336.34" x1="335.18"/>
    <linearGradient id="linearGradient8408" y2="441.57" xlink:href="#linearGradient4202" gradientUnits="userSpaceOnUse" y1="447.51" gradientTransform="matrix(1.2618 -.14718 .37621 .74861 -316.46 -239.65)" x2="154.67" x1="153.34"/>
    <radialGradient id="radialGradient8419" xlink:href="#linearGradient1963" gradientUnits="userSpaceOnUse" cy="237.48" cx="125.08" gradientTransform="matrix(.84861 -.09929 .1405 1.2003 -72.439 -204.6)" r="4.7144"/>
  </defs>
  <sodipodi:namedview id="base" bordercolor="#666666" inkscape:window-x="0" inkscape:window-y="0" pagecolor="#ffffff" inkscape:window-height="645" inkscape:window-maximized="0" inkscape:zoom="0.22425739" showgrid="false" borderopacity="1.0" inkscape:current-layer="svg1552" inkscape:cx="370.01534" inkscape:cy="-402.55359" inkscape:window-width="674" showguides="true"/>
  <g id="layer1" transform="translate(-2.0319 -2.4607)">
    <flowRoot id="flowRoot4863">
      <flowRegion id="flowRegion4864">
        <path id="use4865" sodipodi:rx="4.2287278" sodipodi:ry="5.488349" style="stroke-width:0;fill:#060715" sodipodi:type="arc" d="m142.88 143.55a4.2287 5.4883 0 1 1 -8.4574 0 4.2287 5.4883 0 1 1 8.4574 0z" transform="translate(-39.048,-6.1182)" sodipodi:cy="143.54561" sodipodi:cx="138.64828"/>
      </flowRegion>
      <flowDiv id="flowDiv4866">
        <flowPara id="flowPara4867">This is flowed text. Currently, you can only edit it by using the XML editor. You can paste style (Ctrl+Shift+V) from regular text objects to it.</flowPara>
      </flowDiv>
    </flowRoot>
    <flowRoot id="flowRoot5491">
      <flowRegion id="flowRegion5492">
        <path id="use5493" style="fill-opacity:.57252;stroke-width:0;fill:#6c78fe" inkscape:connector-curvature="0" d="m100.64 138.24c-1.038 2.67-3.553 3.47-5.617 1.79-2.064-1.69-2.899-5.22-1.863-7.89 1.035-2.67 3.55-3.47 5.614-1.78 1.102 0.9 1.836 2.21 2.156 3.87l-4.032 0.96 3.742 3.05z"/>
      </flowRegion>
      <flowDiv id="flowDiv5494">
        <flowPara id="flowPara5495">This is flowed text. Currently, you can only edit it by using the XML editor. You can paste style (Ctrl+Shift+V) from regular text objects to it.</flowPara>
      </flowDiv>
    </flowRoot>
    <flowRoot id="flowRoot5497">
      <flowRegion id="flowRegion5498">
        <use id="use5499" xlink:href="#flowRoot5491" height="1052.3622" width="744.09448" y="0" x="0"/>
      </flowRegion>
      <flowDiv id="flowDiv5500">
        <flowPara id="flowPara5501">This is flowed text. Currently, you can only edit it by using the XML editor. You can paste style (Ctrl+Shift+V) from regular text objects to it.</flowPara>
      </flowDiv>
    </flowRoot>
    <flowRoot id="flowRoot5503">
      <flowRegion id="flowRegion5504">
        <path id="use5505" style="fill-opacity:.57252;stroke-width:0;fill:#6c78fe" inkscape:connector-curvature="0" d="m100.64 138.24c-1.038 2.67-3.553 3.47-5.617 1.79-2.064-1.69-2.899-5.22-1.863-7.89 1.035-2.67 3.55-3.47 5.614-1.78 1.102 0.9 1.836 2.21 2.156 3.87l-4.032 0.96 3.742 3.05z"/>
      </flowRegion>
      <flowDiv id="flowDiv5506">
        <flowPara id="flowPara5507">This is flowed text. Currently, you can only edit it by using the XML editor. You can paste style (Ctrl+Shift+V) from regular text objects to it.</flowPara>
      </flowDiv>
    </flowRoot>
    <flowRoot id="flowRoot18604">
      <flowRegion id="flowRegion18605">
        <path id="use18606" sodipodi:nodetypes="ccsccc" inkscape:connector-curvature="0" style="fill:url(#radialGradient2299)" d="m105.63 280.27c-0.37 0.86-0.6 4.46-3.71 5.84-2.122 0.71-6.552 1.48-9.709 0.72-3.054-0.73-4.838-0.18-7.418-8.05 4.5-2.3 8.298-1.93 12.356-2.14 5.441 0.15 6.381 1.23 8.481 3.63z"/>
      </flowRegion>
      <flowDiv id="flowDiv18607">
        <flowPara id="flowPara18608">This is flowed text. Currently, you can only edit it by using the XML editor. You can paste style (Ctrl+Shift+V) from regular text objects to it.</flowPara>
      </flowDiv>
    </flowRoot>
    <flowRoot id="flowRoot9423">
      <flowRegion id="flowRegion9425">
        <path id="use9427" style="fill-opacity:.49630;stroke-width:0;fill:#fffffe" inkscape:connector-curvature="0" d="m470.86 161.6c-0.47 1.09-1.8 1.5-2.97 0.93-1.17-0.58-1.74-1.93-1.26-3.02 0.47-1.09 1.8-1.51 2.97-0.93 0.63 0.31 1.07 0.79 1.3 1.43l-2.16 0.54 2.12 1.05z"/>
      </flowRegion>
      <flowDiv id="flowDiv9429">
        <flowPara id="flowPara9431">This is flowed text. Currently, you can only edit it by using the XML editor. You can paste style (Ctrl+Shift+V) from regular text objects to it.</flowPara>
      </flowDiv>
    </flowRoot>
    <path id="path8014" sodipodi:nodetypes="cccc" inkscape:connector-curvature="0" style="stroke-width:0;fill:#060715" d="m89.662 102.39c-0.734-8.869-0.032-22.084-6.254-25.836 2.639-5.308 2.423-3.227 3.788-4.045 5.723 11.179 4.531 20.275 2.466 29.881z"/>
    <path id="path8016" sodipodi:nodetypes="cccc" inkscape:connector-curvature="0" style="stroke-width:0;fill:#060715" d="m95.026 96.177c-0.216-8.893 1.256-22.045-4.737-26.154 2.944-5.144 2.608-3.079 4.018-3.817 5.06 11.495 3.34 20.505 0.719 29.971z"/>
    <path id="path8018" sodipodi:nodetypes="cccc" inkscape:connector-curvature="0" style="stroke-width:0;fill:#060715" d="m91.378 100.36c0.519-8.882 3.071-21.868-2.563-26.457 3.359-4.884 2.853-2.854 4.319-3.473 4.095 11.873 1.638 20.711-1.756 29.93z"/>
    <path id="path8020" sodipodi:nodetypes="cccc" inkscape:connector-curvature="0" style="stroke-width:0;fill:#060715" d="m33.885 108.92c-1.371-8.79-5.16-21.473 0.005-26.583-3.813-4.539-3.113-2.567-4.632-3.041-2.934 12.212 0.362 20.774 4.627 29.624z"/>
    <path id="path8022" sodipodi:nodetypes="cccc" inkscape:connector-curvature="0" style="stroke-width:0;fill:#060715" d="m26.966 101.63c0.734-8.86 0.032-22.075 6.255-25.827-2.64-5.308-2.424-3.227-3.788-4.045-5.723 11.18-4.532 20.275-2.467 29.872z"/>
    <path id="path8024" sodipodi:nodetypes="cccc" inkscape:connector-curvature="0" style="stroke-width:0;fill:#060715" d="m22.319 94.948c0.216-8.892-1.256-22.044 4.737-26.153-2.944-5.145-2.608-3.08-4.018-3.817-5.06 11.494-3.34 20.505-0.719 29.97z"/>
    <path id="path8026" sodipodi:nodetypes="cccc" inkscape:connector-curvature="0" style="stroke-width:0;fill:#060715" d="m26.206 101.28c-0.519-8.881-3.071-21.867 2.563-26.456-3.359-4.884-2.853-2.854-4.319-3.473-4.095 11.873-1.638 20.711 1.756 29.929z"/>
    <path id="path8028" sodipodi:nodetypes="ccccc" inkscape:connector-curvature="0" style="fill:#ffcd97" d="m49.537 64.295c0 1.031-2.78-2.059-8.371-1.293-2.679 0-8.117 3.098-8.117 2.066 1.708 0.797 5.76-3.99 8.522-3.553 2.394-0.656 5.878 1.254 7.966 2.78z"/>
    <path id="path8030" sodipodi:nodetypes="ccccccccc" inkscape:connector-curvature="0" style="stroke:#000100;stroke-width:.875;fill:#ffcd97" d="m58.499 19.093c-21.81 0.161-42.878 13.142-37.983 46.694-2.763-2.753-3.916-0.736-4.322 2.858 0 4.37 6.082 20.404 7.522 12.881 14.814 33.004 19.391 39.974 35.449 41.664 15.843-1.25 22.848-7.99 35.449-43.256 2.098 7.97 6.486-5.89 6.486-10.261 0.69-7.147-3.546-4.366-4.434-3.138 0.775-29.821-15.622-47.445-38.167-47.445z"/>
    <path id="path8032" sodipodi:nodetypes="cczcc" inkscape:connector-curvature="0" d="m68.463 104.07c-0.633 1.13-5.372 0.54-8.671 0.87-2.972-0.36-9.174 0.16-9.039-0.57 0.15-0.81 3.374 0.13 8.69 0.31 5.244 0 8.182-0.96 9.02-0.61z"/>
    <path id="path8034" sodipodi:nodetypes="cccccc" inkscape:connector-curvature="0" style="stroke-width:0;fill:#e6bf88" d="m82.702 90.312c-3.753 7.34-2.397 20.418-21.035 32.128 9.527-1.31 18.58-5.94 27.435-29.536-1.045 3.273 7.054-14.714 7.371-24.518-0.838-4.675 0.389-9.876-2.878-22.132 5.132 33.022-9.062 40.034-10.893 44.058z"/>
    <path id="path8036" sodipodi:nodetypes="cccc" inkscape:connector-curvature="0" style="stroke-width:0;fill:url(#radialGradient8278)" d="m54.537 107.83c1.613-0.31 5.46-1.35 9.303 0.07-1.349 1.17-0.983 2.81-4.373 2.57-3.396 0.38-4.394-1.31-4.93-2.64z"/>
    <g id="g8038" transform="matrix(.52098 0 3.1967e-7 .89218 13.238 -314.97)">
      <path id="path8040" sodipodi:nodetypes="ccccc" inkscape:connector-curvature="0" style="stroke-width:0;fill:#e6bf88" d="m165.88 435.21c-0.79 4.85-4.03 9.43-6.36 9.37-2.03-0.11-3.3-6.55-1.57-10.88 1.32-4.53 2.93-7.17 5.89-6.9 2.76 0.07 2.31 3.56 2.04 8.41z"/>
      <path id="path8042" inkscape:connector-curvature="0" d="m161.39 430.93c0.58-0.63 1.44-0.91 2.18-0.64 0.4 0.26 0.43 0.88 0.51 1.36 0.21 1.65-0.19 3.33-0.71 4.88-0.27 0.82-0.48 1.69-0.93 2.41-0.56 0.85-1.35 1.49-2.23 1.76-0.19 0.02-0.56 0.34-0.56-0.07 0.12-0.41 0.55-0.46 0.87-0.45 0.28 0.04 0.53-0.11 0.78-0.23 0 0.2-0.39 0.25-0.54 0.4-0.23 0.13-0.47 0.26-0.7 0.39 0.64-0.51 1.3-1.07 1.69-1.89 0.29-0.68 0.48-1.43 0.73-2.14 0.47-1.5 0.84-3.11 0.63-4.69-0.05-0.37-0.14-0.73-0.3-1.05-0.28-0.07-0.59-0.28-0.83-0.32-0.19 0.09-0.39 0.19-0.59 0.28z"/>
      <path id="path8044" sodipodi:nodetypes="cccc" inkscape:connector-curvature="0" style="stroke-width:0;fill:#9c780c" d="m158.82 438.36c-0.04 1.83 2.29-0.03 2.8-1.1-0.27-1.07 0.67-2.01-0.91-3.04-1.56 0.16-1.45 2.59-1.89 4.14z"/>
    </g>
    <g id="g8046" transform="translate(-58.149,-361.87)">
      <path id="path8048" inkscape:connector-curvature="0" d="m78.838 431.16c-0.58-0.63-1.436-0.91-2.175-0.64-0.406 0.27-0.427 0.88-0.511 1.36-0.207 1.65 0.193 3.33 0.706 4.88 0.271 0.82 0.481 1.69 0.931 2.41 0.564 0.85 1.353 1.5 2.232 1.76 0.193 0.03 0.564 0.34 0.561-0.07-0.125-0.4-0.555-0.46-0.866-0.44-0.281 0.04-0.539-0.11-0.785-0.24-0.002 0.2 0.392 0.25 0.544 0.4 0.231 0.13 0.464 0.26 0.698 0.39-0.641-0.51-1.306-1.07-1.687-1.88-0.299-0.69-0.483-1.43-0.732-2.15-0.473-1.49-0.847-3.11-0.632-4.69 0.053-0.36 0.145-0.73 0.295-1.05 0.286-0.06 0.593-0.27 0.832-0.32 0.196 0.1 0.391 0.19 0.589 0.28z"/>
      <path id="path8050" sodipodi:nodetypes="cccc" inkscape:connector-curvature="0" style="stroke-width:0;fill:#9c780c" d="m80.977 438.86c0.037 1.83-1.708-0.2-2.215-1.26-0.313-0.58-0.754-2.02 0.321-2.55 1.144 0.32 1.453 2.25 1.894 3.81z"/>
    </g>
    <path id="path8054" sodipodi:nodetypes="cccc" inkscape:connector-curvature="0" style="stroke-width:0;fill:url(#radialGradient8280)" d="m46.24 103.65c2.907-0.78 14.79-0.42 12.918 0.69 0.25 0.41 1.854 1.29-4.715 1-6.011 0.18-5.906-0.62-8.203-1.69z"/>
    <path id="path8056" sodipodi:nodetypes="cccc" inkscape:connector-curvature="0" style="stroke-width:0;fill:url(#radialGradient8282)" d="m70.958 103.65c-2.611-0.78-13.283-0.42-11.602 0.69-0.224 0.41-1.665 1.29 4.234 1 5.4 0.18 5.305-0.62 7.368-1.69z"/>
    <path id="path8058" sodipodi:nodetypes="cccc" inkscape:connector-curvature="0" style="stroke-width:0;fill:#d4aa7d" d="m59.852 93.156c1.476-0.575 3.48 0.041 4.371-0.283 0.794-2.942-2.313-0.6-4.137-14.941-0.675 9.699-0.043 13.556-0.234 15.224z"/>
    <path id="path8060" sodipodi:nodetypes="cccc" inkscape:connector-curvature="0" style="stroke-width:0;fill:#ffdbb2" d="m60.565 92.702c-1.406 2.095-1.057-2.597-0.995-3.433 0.015-3.535-0.187-10.998 0.217-15.119 0.372 7.952 0.549 10.027 0.778 18.552z"/>
    <path id="path8062" sodipodi:nodetypes="cccc" inkscape:connector-curvature="0" style="stroke-width:0;fill:url(#radialGradient8284)" d="m55.296 93.584c0.629-0.273 2.055-1.071 4.06-0.749-0.308 0.646 0.239 1.361-1.292 1.536-1.386 0.458-2.219-0.224-2.768-0.787z"/>
    <path id="path8064" sodipodi:nodetypes="cccc" inkscape:connector-curvature="0" style="stroke-width:0;fill:url(#radialGradient8286)" d="m64.74 93.683c-0.675-0.273-2.203-1.07-4.355-0.748 0.331 0.646-0.256 1.361 1.386 1.535 1.487 0.459 2.38-0.224 2.969-0.787z"/>
    <path id="path8068" sodipodi:nodetypes="ccccc" inkscape:connector-curvature="0" style="fill:#ffcd97" d="m49.137 70.553c-0.081 1.029-5.536 3.784-8.206 3.573-2.67-0.212-5.619-2.721-5.538-3.749 1.639 0.929 4.804-0.044 7.523 0.609 2.438-0.465 0.463 0.196 6.221-0.433z"/>
    <path id="path8070" sodipodi:nodetypes="ccccc" inkscape:connector-curvature="0" style="fill:#ffcd97" d="m47.918 64.23c0 1.053-3.696-1.627-7.053-1.213-2.612-0.248-5.886 0.859-6.879 0.964 0.92-1.916 4.848-5.229 7.541-4.782 5.699-0.122 4.377 4.947 6.391 5.031z"/>
    <path id="path8072" sodipodi:nodetypes="cccc" inkscape:connector-curvature="0" style="fill:#ffcd97" d="m47.753 64.643c-8.69-3.415-12.857-1.015-15.836 0.497 1.003-1.834 4.765-5.477 7.458-5.031 5.699-0.121 7.77 2.547 8.378 4.534z"/>
    <path id="path8074" sodipodi:nodetypes="ccccc" inkscape:connector-curvature="0" style="fill:url(#radialGradient8288)" d="m48.904 68.294c-0.657 5.608 1.356 6.832 4.139 7.158 3.55 0.248 3.792-6.165 3.793-8.339 0.473-2.124 0.17-2.163-2.475-3.339-3.952 1.704-2.857 0.517-5.457 4.52z"/>
    <path id="path8098" sodipodi:nodetypes="ccccc" inkscape:connector-curvature="0" style="fill:url(#radialGradient8294)" d="m53.869 66.969c-2.011-0.577-3.762-3.245-12.378-2.887-7.254 2.532-10.073 3.835-10.996 1.723 0.3-7.179 5.041-6.438 12.468-6.621 7.201 1.276 10.799 4.475 10.906 7.785z"/>
    <path id="path8100" sodipodi:nodetypes="csccc" inkscape:connector-curvature="0" style="fill:url(#radialGradient8296)" d="m43.974 60.259c1.707 1.745 5.455 3.898 7.127 5.408 0.803 0.726 2.162 2.098 4.034 5.333 0.244-1.403 1.771-3.953-0.52-7.217-4.3-2.753-4.491-4.523-10.641-3.524z"/>
    <path id="path8102" sodipodi:nodetypes="cccc" inkscape:connector-curvature="0" style="stroke-width:0;fill:#060715" d="m22.433 76.364c2.312-30.692 21.909-45.649 45.251-46.978-0.392-6.669-4.635-2.399-6.166-3.921-27.327 1.155-39.887 18.612-39.085 50.899z"/>
    <path id="path8104" sodipodi:nodetypes="cccc" inkscape:connector-curvature="0" style="stroke-width:0;fill:#060715" d="m42.282 74.137c1.581-25.382 15.292-40.832 31.259-41.879-0.268-5.248-2.864 2.098-3.911 0.9-21.758 0.297-27.897 15.569-27.348 40.979z"/>
    <path id="path8106" sodipodi:nodetypes="cccc" inkscape:connector-curvature="0" style="stroke-width:0;fill:#060715" d="m27.298 91.569c-11.438-39.996 6.573-73.71 35.272-67.23-4.651-7.409-26.117-5.533-31.625-0.899-9.948 5.466-20.535 19.76-3.647 68.129z"/>
    <path id="path8108" sodipodi:nodetypes="cccc" inkscape:connector-curvature="0" style="stroke-width:0;fill:#060715" d="m33.49 74.253c1.581-24.155 14.985-35.926 30.952-36.972-0.268-5.249-3.17-1.889-4.218-3.086-18.692 0.909-27.283 14.648-26.734 40.058z"/>
    <path id="path8110" sodipodi:nodetypes="cccc" inkscape:connector-curvature="0" style="stroke-width:0;fill:#060715" d="m29.503 66.894c1.582-24.155 14.986-35.926 30.953-36.972-0.268-5.249-3.171-1.889-4.218-3.086-18.692 0.909-27.284 14.648-26.735 40.058z"/>
    <path id="path8112" sodipodi:nodetypes="cccc" inkscape:connector-curvature="0" style="stroke-width:0;fill:#060715" d="m50.047 65.054c1.582-24.155 14.986-35.926 30.953-36.972-0.268-5.249-3.171-1.888-4.218-3.086-18.692 0.909-27.284 14.648-26.735 40.058z"/>
    <path id="path8114" sodipodi:nodetypes="cccc" inkscape:connector-curvature="0" style="stroke-width:0;fill:#060715" d="m28.405 86.339c-11.438-39.996 6.573-73.71 35.272-67.23-4.652-7.409-26.118-5.533-31.625-0.899-9.948 5.466-20.535 19.76-3.647 68.129z"/>
    <path id="path8116" sodipodi:nodetypes="cccc" inkscape:connector-curvature="0" style="stroke-width:0;fill:#060715" d="m25.645 83.579c-10.211-43.675 6.574-73.71 35.272-67.229-4.651-7.4092-25.197-2.161-30.705 2.474-11.481 11.904-21.455 16.386-4.567 64.755z"/>
    <path id="path8118" sodipodi:nodetypes="cccc" inkscape:connector-curvature="0" style="stroke-width:0;fill:#060715" d="m13.887 75.48c2.99-30.072 28.336-44.726 58.527-46.029-0.507-6.534-5.994-2.351-7.975-3.842-35.344 1.132-51.589 18.236-50.552 49.871z"/>
    <path id="path8120" sodipodi:nodetypes="cccc" inkscape:connector-curvature="0" style="stroke-width:0;fill:#060715" d="m8.6748 74.866c2.9902-30.072 28.336-44.725 58.526-46.028-0.506-6.534-5.994-2.351-7.975-3.842-35.344 1.132-51.589 18.236-50.551 49.87z"/>
    <path id="path8122" sodipodi:nodetypes="cccc" inkscape:connector-curvature="0" style="stroke-width:0;fill:#060715" d="m6.9245 63.064c6.4235-29.529 34.616-40.176 64.758-38.003 0.247-6.549-7.017-4.023-8.813-5.732-35.24-2.934-53.343 12.191-55.944 43.735z"/>
    <path id="path8124" sodipodi:nodetypes="cccc" inkscape:connector-curvature="0" style="stroke-width:0;fill:#060715" d="m2.4086 49.298c12.121-25.903 40.751-27.82 69.871-15.47 1.534-6.147-4.977-4.816-6.401-7.055-33.969-14.813-54.699-6.598-63.47 22.525z"/>
    <path id="path8126" sodipodi:nodetypes="cccc" inkscape:connector-curvature="0" style="stroke-width:0;fill:#060715" d="m2.0319 36.029c23.483-20.724 39.859-19.303 61.06 3.865 3.738-6.51 1.124-3.45 4.822-8.508-29.695-25.968-50.365-20.348-65.882 4.643z"/>
    <path id="path8128" sodipodi:nodetypes="cccc" inkscape:connector-curvature="0" style="stroke-width:0;fill:#060715" d="m9.2664 20.788c22.563-9.071 20.542-5.198 48.182 5.705 3.738-6.51 6.031-2.836 9.728-7.894-16.203-13.09-36.567-9.9229-57.91 2.189z"/>
    <path id="path8130" sodipodi:nodetypes="cccc" inkscape:connector-curvature="0" style="stroke-width:0;fill:#060715" d="m104.51 33.493c-10.953-7.794-5.657-13.178-34.333-5.397-2.995-6.883-3.653-5.512-6.769-10.948 21.604-9.5298 36.762 6.002 41.102 16.345z"/>
    <path id="path8132" sodipodi:nodetypes="cccc" inkscape:connector-curvature="0" style="stroke-width:0;fill:#060715" d="m33.183 61.375c1.581-19.718 12.226-24.42 28.193-25.275-0.268-4.284 0.202-6.14-0.845-7.118-18.692 0.742-27.897 11.651-27.348 32.393z"/>
    <path id="path8134" sodipodi:nodetypes="cccc" inkscape:connector-curvature="0" style="stroke-width:0;fill:#060715" d="m16.219 78.123c1.581-24.155 8.24-6.797 7.342-15.202-3.641 1.804-1.637-3.728-3.298-6.459-2.134 3.669-4.593-3.749-4.044 21.661z"/>
    <path id="path8136" sodipodi:nodetypes="cccc" inkscape:connector-curvature="0" style="stroke-width:0;fill:#060715" d="m90.15 80.422c0.621-25.085-8.37-46.454-26.27-48.66 0.719-5.23 3.191-0.776 4.296-1.615 17.752 7.647 24.738 24.682 21.974 50.275z"/>
    <path id="path8138" sodipodi:nodetypes="cccc" inkscape:connector-curvature="0" style="stroke-width:0;fill:#060715" d="m72.834 66.97c0.621-25.085-11.129-41.854-26.269-48.66 0.718-5.23 3.19-0.776 4.295-1.615 17.753 7.647 24.738 24.682 21.974 50.275z"/>
    <path id="path8142" sodipodi:nodetypes="cccc" inkscape:connector-curvature="0" style="stroke-width:0;fill:#060715" d="m102.08 84.516c2.42-28.526 1.18-38.961-32.935-56.905 0.903-6.491 6.843-3.653 8.91-5.022 13.475 30.746 20.292 33.281 24.025 61.927z"/>
    <path id="path8144" sodipodi:nodetypes="cccc" inkscape:connector-curvature="0" style="stroke-width:0;fill:#060715" d="m95.076 84.439c-2.181-24.999-10.823-43.725-23.868-51.559 0.13-5.278 3.084-1.127 4.089-2.084 18.494 5.619 19.671 27.901 19.779 53.643z"/>
    <path id="path8146" sodipodi:nodetypes="cccc" inkscape:connector-curvature="0" style="stroke-width:0;fill:#060715" d="m91.194 87.953c2.244-24.993-2.973-44.946-14.438-54.95 1.055-5.173 3.234-0.568 4.391-1.333 17.219 8.781 14.463 30.923 10.047 56.283z"/>
    <path id="path8148" sodipodi:nodetypes="cccc" inkscape:connector-curvature="0" style="stroke-width:0;fill:#060715" d="m89.587 83.471c5.941-21.156 2.123-37.938-10.6-46.217 1.951-4.388 4.023-0.529 5.534-1.194 19.909 7.157 13.706 25.911 5.066 47.411z"/>
    <path id="path8150" sodipodi:nodetypes="cccc" inkscape:connector-curvature="0" style="stroke-width:0;fill:#060715" d="m95.239 72.878c5.941-21.155-6.155-36.711-18.879-44.99 1.952-4.388 12.302-1.756 13.813-2.421 14.697 12.063 11.867 29.591 5.066 47.411z"/>
    <path id="path8152" sodipodi:nodetypes="cccc" inkscape:connector-curvature="0" style="stroke-width:0;fill:#060715" d="m107.07 50.476c-9.313-25.903-27.011-25.193-46.996-22.159-1.178-6.146-3.58-6.965-2.486-9.204 26.099-14.813 42.742 2.239 49.482 31.363z"/>
    <path id="path8154" sodipodi:nodetypes="cccc" inkscape:connector-curvature="0" style="stroke-width:0;fill:#060715" d="m106.55 82.216c-7.402-49.31-20.085-45.733-39.114-47.714-1.179-6.147 10.989-10.549 12.083-12.787 18.456 2.861 26.981 24.69 27.031 60.501z"/>
    <path id="path8156" sodipodi:nodetypes="cccc" inkscape:connector-curvature="0" style="stroke-width:0;fill:#060715" d="m22.436 3.2199c19.564 2.9251 21.05 3.1415 31.798 15.267 6.51 3.738 3.45-1.981 8.508 1.717-10.098-20.38-28.09-18.261-40.306-16.984z"/>
    <path id="path8158" sodipodi:nodetypes="cccc" inkscape:connector-curvature="0" style="stroke-width:0;fill:#060715" d="m96.183 18.42c-21.253-8.5595-25.104 0.439-35.176 0.067-6.51 3.738-6.152-2.319-11.21 1.379 16.178-19.029 39.236-10.154 46.386-1.446z"/>
    <path id="path8234" sodipodi:nodetypes="ccccc" inkscape:connector-curvature="0" style="fill:url(#radialGradient8350)" d="m64.56 67.784c4.283-0.697 3.971-2.993 12.162-3.948 10.337 2.264 11.775 3.303 12.698 1.191-0.67-4.751-6.713-6.214-11.325-6.305-7.201 1.275-13.428 5.752-13.535 9.062z"/>
    <path id="path8160" sodipodi:nodetypes="cccc" inkscape:connector-curvature="0" style="stroke-width:0;fill:#060715" d="m107.28 66.745c-2.99-30.071-28.335-44.725-58.526-46.028 0.507-6.534 5.995-2.351 7.975-3.842 35.344 1.132 51.591 18.236 50.551 49.87z"/>
    <path id="path8186" sodipodi:nodetypes="ccccc" inkscape:connector-curvature="0" style="stroke-width:0;fill:url(#linearGradient8302)" d="m50.081 17.48c-5.302-0.251-7.084 0.589-10.385 1.326 2.983 0.413 5.007-0.931 5.89-0.059 0.427-0.489-1.248-0.064-1.841 0.941 2.76-1.108 5.79-1.867 6.336-2.208z"/>
    <path id="path8188" sodipodi:nodetypes="ccccccccc" inkscape:connector-curvature="0" style="stroke-width:0;fill:url(#linearGradient8304)" d="m51.557 13.114c-1.508-0.482-7.607-1.345-19.159 1.907 6.995 0.052 8.311-0.882 9.3 0.399 1.14-1.212-2.349 0.466-5.66 2.699 5.287 0.055 6.976-1.764 7.132-0.962 0.814 0.422-2.81 0.847-4.474 3.258 3.287-0.74 6.686-3.893 13.963-4.28-2.557-0.684-5.392-1.053-8.86-0.578 1.157-1.767 6.372-1.525 7.758-2.443z"/>
    <path id="path8190" sodipodi:nodetypes="cccccccc" inkscape:connector-curvature="0" style="stroke-width:0;fill:url(#linearGradient8306)" d="m55.024 17.6c-9.917 0.376-13.987 3.241-22.436 7.357 6.903-1.132 11.918-4.512 13.109-3.416 0.919-1.388-3.727 0.111-6.613 2.871 4.923-2.181 5.285-2.633 4.052 0.025 3.115-0.987 3.248-2.583 10.355-4.195-2.637-0.242-3.108-0.126-6.445 0.929 0.841-1.937 6.768-2.432 7.978-3.571z"/>
    <path id="path8192" sodipodi:nodetypes="ccccccc" inkscape:connector-curvature="0" style="stroke-width:0;fill:url(#linearGradient8308)" d="m53.978 22.451c-8.983 1.104-9.722 3.068-11.995 5.855 5.498-1.636 4.59-2.244 6.659-1.239-0.343-1.452-3.403 0.384-3.717 3.349 2.728-2.537 3.887-3.088 8.265-5.665-2.684-0.047-3.771 0.252-6.286 1.252-0.892-1.994 6.926-2.327 7.074-3.552z"/>
    <path id="path8194" sodipodi:nodetypes="cccccccc" inkscape:connector-curvature="0" style="stroke-width:0;fill:url(#linearGradient8310)" d="m55.667 25.767c-6.722 2.001-8.494 4.65-12.839 8.915 4.363-1.98 6.6-5.143 7.823-4.614 0.13-1.098-2.537 0.731-3.528 3.101 2.611-2.338 2.696-2.707 2.812-0.697 1.795-1.215 1.305-2.314 5.634-4.654-1.912 0.302-2.195 0.463-4.119 1.763-0.124-1.455 3.795-2.833 4.217-3.814z"/>
    <path id="path8196" sodipodi:nodetypes="ccccc" inkscape:connector-curvature="0" style="stroke-width:0;fill:url(#linearGradient8312)" d="m56.412 29.494c-7.318 4.238-8.94 7.036-12.689 11.003 4.362-1.98 5.854-5.74 7.823-5.211 0.13-1.098-1.727 0.991-1.611 3.001 2.69-4.048 6.055-7.812 6.477-8.793z"/>
    <path id="path8198" sodipodi:nodetypes="ccccc" inkscape:connector-curvature="0" style="stroke-width:0;fill:url(#linearGradient8314)" d="m52.875 25.698c-4.542 1.707-5.773 3.178-8.316 5.107 2.642-0.697 3.917-2.746 4.938-2.225 0.203-0.631-1.071 0.398-1.249 1.591 1.969-2.09 4.276-3.942 4.627-4.473z"/>
    <path id="path8200" sodipodi:nodetypes="cccc" inkscape:connector-curvature="0" style="stroke-width:0;fill:url(#linearGradient8316)" d="m28.261 26.289c-8.154 3.048-11.264 7.407-14.825 14.555 2.707-4.155 5.681-6.863 6.771-8 1.068-1.065 3.117-3.081 8.054-6.555z"/>
    <path id="path8202" sodipodi:nodetypes="cccc" inkscape:connector-curvature="0" style="stroke-width:0;fill:url(#linearGradient8318)" d="m21.391 40.371c-7.072 5.076-8.933 10.097-10.499 17.928 1.526-4.718 3.687-8.11 4.441-9.493 0.752-1.308 2.202-3.79 6.058-8.435z"/>
    <path id="path8204" sodipodi:nodetypes="cccc" inkscape:connector-curvature="0" style="stroke-width:0;fill:url(#linearGradient8320)" d="m34.748 42.118c-6.062 4.411-7.73 8.868-9.205 15.846 1.379-4.194 3.268-7.188 3.931-8.412 0.66-1.156 1.931-3.349 5.274-7.434z"/>
    <path id="path8206" sodipodi:nodetypes="cccc" inkscape:connector-curvature="0" style="stroke-width:0;fill:url(#linearGradient8322)" d="m45.397 39.9c-7.072 5.077-8.933 10.097-10.498 17.929 1.525-4.719 3.686-8.111 4.44-9.494 0.752-1.308 2.202-3.79 6.058-8.435z"/>
    <path id="path8208" sodipodi:nodetypes="cccc" inkscape:connector-curvature="0" style="stroke-width:0;fill:url(#linearGradient8324)" d="m28.574 15.681c-8.679 0.672-12.875 3.999-18.275 9.882 3.751-3.243 7.358-5.022 8.721-5.813 1.321-0.728 3.848-2.098 9.554-4.069z"/>
    <path id="path8210" sodipodi:nodetypes="cccc" inkscape:connector-curvature="0" style="stroke-width:0;fill:url(#linearGradient8326)" d="m19.234 50.793c-3.693 4.902-4.007 9.17-3.627 15.677 0.149-3.986 0.95-6.972 1.193-8.175 0.256-1.142 0.756-3.312 2.434-7.502z"/>
    <path id="path8212" sodipodi:nodetypes="cccc" inkscape:connector-curvature="0" style="stroke-width:0;fill:url(#linearGradient8328)" d="m21.312 60.426c-1.536 6.535 0.191 11.261 2.295 17.332-1.439-3.548-1.369-8.129-1.616-9.322-0.211-1.149-0.6-3.339-0.679-8.01z"/>
    <path id="path8214" sodipodi:nodetypes="ccccccc" inkscape:connector-curvature="0" style="stroke-width:0;fill:url(#linearGradient8330)" d="m75.096 9.437c-5.421-0.1518-6.199-0.4417-13.701 2.787 5.418-1.459 5.858-0.428 6.687 0.615 0.632-0.908-1.879-0.708-3.87 0.916 3.404-0.833 3.721-0.628 8.641-0.653-1.829-0.634-2.061-1.619-4.37-1.379 0.575-1.341 5.778-1.62 6.613-2.286z"/>
    <path id="path8216" sodipodi:nodetypes="cccccccc" inkscape:connector-curvature="0" style="stroke-width:0;fill:url(#linearGradient8332)" d="m74.895 14.619c-4.435-1.529-7.716-0.225-10.08 1.525 2.805-0.755 5.359-1.273 5.884-0.215 0.42-0.895-2.243-0.166-3.553 1.42 2.216-0.769 2.957-1.481 2.388 0.33 1.399-0.186 1.47-1.384 4.657-1.317-1.176-0.668-1.388-0.666-2.887-0.469 0.39-1.33 3.042-0.623 3.591-1.274z"/>
    <path id="path8218" sodipodi:nodetypes="ccccc" inkscape:connector-curvature="0" style="stroke-width:0;fill:url(#linearGradient8334)" d="m75.732 17.48c-5.302-0.251-4.922 0.013-8.224 0.75 2.983 0.412 3.711-0.787 4.594 0.084 0.427-0.488-1.249-0.063-1.841 0.941 2.76-1.107 4.925-1.434 5.471-1.775z"/>
    <path id="path8220" sodipodi:nodetypes="ccccccc" inkscape:connector-curvature="0" style="stroke-width:0;fill:url(#linearGradient8336)" d="m76.025 18.529c-5.848 0.023-6.444 1.141-8.078 2.642 3.638-0.587 3.091-1.014 4.36-0.268-0.131-0.89-2.213-0.011-2.597 1.734 1.911-1.32 2.691-1.566 5.667-2.793-1.725-0.218-2.443-0.116-4.123 0.302-0.451-1.252 4.6-0.898 4.771-1.617z"/>
    <path id="path8222" sodipodi:nodetypes="ccccccc" inkscape:connector-curvature="0" style="stroke-width:0;fill:url(#linearGradient8338)" d="m76.057 21.948c-5.823-0.533-6.523 0.524-8.292 1.863 3.677-0.239 3.173-0.715 4.366 0.147-0.046-0.898-2.201-0.221-2.75 1.48 2.028-1.132 2.828-1.304 5.906-2.242-1.696-0.381-2.42-0.348-4.132-0.092-0.33-1.288 4.664-0.456 4.902-1.156z"/>
    <path id="path8224" sodipodi:nodetypes="cccccccc" inkscape:connector-curvature="0" style="stroke-width:0;fill:url(#linearGradient8340)" d="m74.325 26.486c-2.203-2.434-3.82-1.412-6.694-0.656 1.762 1.046 3.715-0.102 3.68 1.041 0.559-0.783-0.821-0.937-2.159 0.331 1.618-0.279 1.814-0.517 0.854 1.128 0.92 0.117 1.368-1.037 3.3-0.294-0.496-0.902-0.627-0.944-1.612-1.071 0.688-1.215 2.075 0.039 2.631-0.479z"/>
    <path id="path8226" sodipodi:nodetypes="ccccc" inkscape:connector-curvature="0" style="stroke-width:0;fill:url(#linearGradient8342)" d="m70.7 44.655c-2.218-7.496-3.487-12.105-6.103-15.428 1.306 3.867 2.344 5.334 1.996 7.079 0.724 0.115-0.51-2.251-1.835-2.149 2.669 2.384 5.295 10.123 5.942 10.498z"/>
    <path id="path8228" sodipodi:nodetypes="cccc" inkscape:connector-curvature="0" style="stroke-width:0;fill:url(#linearGradient8320)" d="m34.748 42.118c-6.062 4.411-7.73 8.868-9.205 15.846 1.379-4.194 3.268-7.188 3.931-8.412 0.66-1.156 1.931-3.349 5.274-7.434z"/>
    <path id="path8230" sodipodi:nodetypes="cccc" inkscape:connector-curvature="0" style="stroke-width:0;fill:url(#linearGradient8346)" d="m75.542 34.959c4.201 5.965 5.797 9.347 6.19 16.763-0.635-4.369-1.979-6.924-2.422-8.243-0.451-1.253-1.468-3.489-3.768-8.52z"/>
    <path id="path8232" sodipodi:nodetypes="cccc" inkscape:connector-curvature="0" style="stroke-width:0;fill:url(#linearGradient8348)" d="m87.524 49.634c3.454 6.428 4.631 9.977 4.13 17.386-0.105-4.413-1.133-7.111-1.413-8.474-0.297-1.298-1.039-3.64-2.717-8.912z"/>
    <path id="path8236" sodipodi:nodetypes="cccc" inkscape:connector-curvature="0" style="stroke-width:0;fill:url(#linearGradient8352)" d="m96.027 55.255c3.165 7.292 4.193 9.111 4.133 17.385-0.83-4.845-1.569-7.975-1.849-9.339-0.297-1.297-0.606-2.775-2.284-8.046z"/>
    <path id="path8238" sodipodi:nodetypes="cccc" inkscape:connector-curvature="0" style="stroke-width:0;fill:url(#linearGradient8354)" d="m100.32 43.519c3.54 5.021 4.91 7.88 5.34 14.197-0.59-3.715-1.73-5.873-2.11-6.991-0.39-1.061-1.26-2.951-3.23-7.206z"/>
    <path id="path8240" sodipodi:nodetypes="cccc" inkscape:connector-curvature="0" style="stroke-width:0;fill:url(#linearGradient8356)" d="m90.833 18.905c5.314 3.089 8.176 6.273 11.207 11.835-2.086-3.133-4.025-4.618-4.839-5.475-0.796-0.802-2.808-3.311-6.368-6.36z"/>
    <path id="path8242" sodipodi:nodetypes="cccc" inkscape:connector-curvature="0" style="stroke-width:0;fill:url(#linearGradient8358)" d="m26.22 3.0538c6.714-0.2234 14.452-1.1266 19.666 2.4665-3.993-1.2766-6.97-1.5809-9.381-1.8331-1.073-0.3557-2.56-0.2435-10.285-0.6334z"/>
    <path id="path8244" sodipodi:nodetypes="cccc" inkscape:connector-curvature="0" style="stroke-width:0;fill:url(#linearGradient8360)" d="m83.25 19.1c7.189 2.575 15.404 9.878 17.72 17.353-2-3.934-6.398-8.373-7.24-9.482-0.829-1.041-3.95-3.554-10.48-7.871z"/>
    <path id="path8246" sodipodi:nodetypes="cccc" inkscape:connector-curvature="0" style="stroke-width:0;fill:url(#linearGradient8362)" d="m85.882 28.178c5.516 3.707 10.911 11.655 11.306 18.507-0.867-3.771-3.645-8.477-4.122-9.598-0.481-1.061-2.586-3.858-7.184-8.909z"/>
    <path id="path8248" sodipodi:nodetypes="ccscsc" inkscape:connector-curvature="0" style="fill-opacity:.25556;stroke-width:0;fill:#867768" d="m66.711 92.823c-0.118 0.914-2.99 1.704-6.658 0.547 0.068-4.075-0.535-19.798 0.16-22.084 5.36-17.621 20.23-14.488 28.09-10.147-8.305 0.046-21.231 8.561-25.164 13.952-4.17 5.716 3.963 16.719 3.572 17.732z"/>
    <path id="path8270" sodipodi:nodetypes="cccc" inkscape:connector-curvature="0" style="stroke-width:0;fill:#060715" d="m81.132 72.43c-2.182-24.998-15.729-40.351-31.534-45.426 0.13-5.278 3.084-1.127 4.089-2.084 18.494 5.619 27.336 21.768 27.445 47.51z"/>
    <path id="path8274" sodipodi:nodetypes="cccc" inkscape:connector-curvature="0" style="stroke-width:0;fill:#060715" d="m83.224 64.638c-1.974-25.015-20.299-34.041-36.061-39.247 0.174-5.277 7.999-7.541 9.012-8.489 18.447 5.772 27.154 21.995 27.049 47.736z"/>
    <path id="path8378" sodipodi:nodetypes="cccsc" inkscape:connector-curvature="0" style="stroke-width:0;fill:url(#linearGradient8408)" d="m52.3 67.808c-2.496-3.399-11.974-6.242-19.052 0.396 0.871 2.258 4.118 3.678 8.516 4.661 2.367-0.578 5.906 0.622 7.573-0.581 1.18-0.852 2.65-1.075 2.963-4.476z"/>
    <path id="path8380" sodipodi:nodetypes="ccccc" inkscape:connector-curvature="0" style="fill-rule:evenodd;fill:url(#linearGradient8406)" d="m48.361 65.205c2.526 3.666 0.462 7.561-1.197 7.561-3.558 0.72-4.063 0.558-8.279-0.6-1.817-1.875-2.04-5.8 0.409-7.386 3.318 0 5.162-2.92 9.067 0.425z"/>
    <path id="path8382" sodipodi:rx="3.8198624" sodipodi:ry="3.9047482" style="fill-rule:evenodd;fill:#00001d" sodipodi:type="arc" d="m326.13 310.8c0 2.1565-1.7102 3.9048-3.8199 3.9048-2.1096 0-3.8199-1.7482-3.8199-3.9048 0-2.1565 1.7102-3.9048 3.8199-3.9048 2.1096 0 3.8199 1.7482 3.8199 3.9048z" transform="matrix(.86667 0 0 .86956 -235.8 -202)" sodipodi:cy="310.79956" sodipodi:cx="322.31149"/>
    <path id="path8384" sodipodi:nodetypes="ccccc" inkscape:connector-curvature="0" style="stroke-width:0;fill:#060715" d="m50.499 71.826c-4.051 0.868-5.108 1.068-8.548 0.801-2.355-0.179-3.64-0.694-6.901-2.108 1.107 1.647 4.004 2.468 5.591 2.651 7.851 0.54 7.244-0.271 9.858-1.344z"/>
    <path id="path8417" sodipodi:nodetypes="ccccc" inkscape:connector-curvature="0" style="fill:url(#radialGradient8419)" d="m71.009 66.979c0.656 5.608-1.356 6.832-4.139 7.157-3.55 0.248-3.792-6.165-3.794-8.338-0.473-2.125-0.169-2.164 2.475-3.34 3.952 1.704 2.858 0.517 5.458 4.521z"/>
    <path id="path8386" sodipodi:nodetypes="cccsc" inkscape:connector-curvature="0" style="stroke-width:0;fill:url(#linearGradient8404)" d="m67.363 67.564c2.496-3.4 11.974-6.242 19.052 0.396-0.87 2.258-4.117 3.677-8.515 4.661-2.368-0.578-5.907 0.622-7.573-0.582-1.18-0.852-2.651-1.075-2.964-4.475z"/>
    <path id="path8388" sodipodi:nodetypes="ccccc" inkscape:connector-curvature="0" style="fill-rule:evenodd;fill:url(#linearGradient8402)" d="m80.982 64.96c2.286 2.826 0.953 6.976-1.427 7.216-3.558 0.72-3.833 0.903-8.048-0.255-1.578-2.475-2.4-3.878 0.408-7.385 3.319 0 5.163-2.92 9.067 0.424z"/>
    <path id="path8390" sodipodi:rx="3.8198624" sodipodi:ry="3.9047482" style="fill-rule:evenodd;fill:#00001d" sodipodi:type="arc" d="m326.13 310.8c0 2.1565-1.7102 3.9048-3.8199 3.9048-2.1096 0-3.8199-1.7482-3.8199-3.9048 0-2.1565 1.7102-3.9048 3.8199-3.9048 2.1096 0 3.8199 1.7482 3.8199 3.9048z" transform="matrix(-.86667 0 0 .86956 355.46 -202.24)" sodipodi:cy="310.79956" sodipodi:cx="322.31149"/>
    <path id="path8394" style="fill-rule:evenodd;fill:#ededff;fill-opacity:.69630" inkscape:connector-curvature="0" d="m43.223 67.192c-0.343 1.55-1.7 2.808-3.029 2.808s-2.13-1.258-1.786-2.808c0.343-1.55 1.7-2.807 3.029-2.807s2.129 1.257 1.786 2.807z"/>
    <path id="path8400" sodipodi:nodetypes="ccccc" inkscape:connector-curvature="0" style="stroke-width:0;fill:#060715" d="m53.215 68.159c-2.572-1.116-2.18-2.385-6.838-3.327-5.071-1.129-8.456 0.454-13.195 3.276 1.956-2.666 7.938-5.284 13.305-4.568 4.138 1.049 4.96 2.146 6.728 4.619z"/>
    <path id="path8413" sodipodi:nodetypes="ccccc" inkscape:connector-curvature="0" style="stroke-width:0;fill:#060715" d="m55.514 65.179c-5.119-1.965-8.631-5.271-14.647-5.704-5.072-1.129-7.441 2.553-11.331 2.658 1.277-1.816 6.753-6.194 12.119-5.478 4.648 1.219 13.619 5.032 13.859 8.524z"/>
    <path id="path8415" sodipodi:nodetypes="ccccc" inkscape:connector-curvature="0" style="stroke-width:0;fill:#060715" d="m63.272 64.936c5.119-1.965 8.632-5.271 14.648-5.704 5.071-1.129 7.44 2.553 11.331 2.658-1.278-1.816-6.753-6.194-12.12-5.478-4.648 1.219-13.619 5.033-13.859 8.524z"/>
    <path id="path8140" sodipodi:nodetypes="cccc" inkscape:connector-curvature="0" style="stroke-width:0;fill:#060715" d="m67.622 69.116c0.62-25.085-11.13-41.854-26.27-48.659 0.718-5.231 5.95-4.456 7.055-5.295 17.753 7.647 21.978 28.362 19.215 53.954z"/>
    <g id="g8250" style="fill-opacity:.30370;stroke-width:0;fill:#060715" transform="translate(-519.53,-103.08)">
      <path id="path8252" sodipodi:nodetypes="cccc" inkscape:connector-curvature="0" d="m563.55 177.79c1.59-25.38 15.3-40.83 31.26-41.88-0.26-5.25-2.86 2.1-3.91 0.9-21.76 0.3-27.89 15.57-27.35 40.98z"/>
      <path id="path8254" sodipodi:nodetypes="cccc" inkscape:connector-curvature="0" d="m550.78 170.55c1.58-24.16 14.98-35.93 30.95-36.98-0.27-5.24-3.17-1.88-4.22-3.08-18.69 0.91-27.28 14.65-26.73 40.06z"/>
      <path id="path8256" sodipodi:nodetypes="cccc" inkscape:connector-curvature="0" d="m571.32 168.71c1.58-24.16 14.99-35.93 30.95-36.98-0.27-5.24-3.17-1.88-4.22-3.08-18.69 0.91-27.28 14.65-26.73 40.06z"/>
      <path id="path8258" sodipodi:nodetypes="cccc" inkscape:connector-curvature="0" d="m554.46 165.03c1.58-19.72 12.22-24.42 28.19-25.28-0.27-4.28 0.2-6.14-0.85-7.12-18.69 0.75-27.89 11.66-27.34 32.4z"/>
      <path id="path8262" sodipodi:nodetypes="cccc" inkscape:connector-curvature="0" d="m588.89 172.77c0.63-25.09-11.13-41.85-26.27-48.66 0.72-5.23 5.96-4.46 7.06-5.29 17.75 7.64 21.98 28.36 19.21 53.95z"/>
      <path id="path8264" sodipodi:nodetypes="cccc" inkscape:connector-curvature="0" d="m602.4 176.08c-2.18-25-15.72-40.35-31.53-45.42 0.13-5.28 3.09-1.13 4.09-2.09 18.49 5.62 27.34 21.77 27.44 47.51z"/>
      <path id="path8266" sodipodi:nodetypes="cccc" inkscape:connector-curvature="0" d="m604.5 168.29c-1.98-25.01-20.3-34.04-36.06-39.25 0.17-5.27 8-7.54 9.01-8.49 18.44 5.78 27.15 22 27.05 47.74z"/>
      <path id="path8268" sodipodi:nodetypes="cccc" inkscape:connector-curvature="0" d="m555.38 177.09c1.58-24.16 14.98-35.93 30.95-36.98-0.27-5.24-3.17-1.88-4.22-3.08-18.69 0.91-27.28 14.65-26.73 40.06z"/>
      <path id="path8260" sodipodi:nodetypes="cccc" inkscape:connector-curvature="0" d="m594.11 170.62c0.62-25.08-11.13-41.85-26.27-48.66 0.72-5.23 3.19-0.77 4.29-1.61 17.76 7.64 24.74 24.68 21.98 50.27z"/>
    </g>
    <path id="path8423" style="fill-rule:evenodd;fill:#ededff;fill-opacity:.69630" inkscape:connector-curvature="0" d="m42.034 67.031c-0.227 1.055-1.128 1.911-2.009 1.911-0.882 0-1.413-0.856-1.186-1.911 0.228-1.055 1.128-1.911 2.01-1.911s1.413 0.856 1.185 1.911z"/>
    <path id="path8421" style="fill-rule:evenodd;fill:#ededff;fill-opacity:.69630" inkscape:connector-curvature="0" d="m74.924 66.553c-0.227 1.054-1.128 1.91-2.01 1.91-0.881 0-1.412-0.856-1.185-1.91 0.228-1.055 1.128-1.911 2.01-1.911s1.413 0.856 1.185 1.911z"/>
    <path id="path8396" style="fill-rule:evenodd;fill:#ededff;fill-opacity:.69630" inkscape:connector-curvature="0" d="m76.093 66.732c-0.343 1.55-1.7 2.808-3.029 2.808s-2.129-1.258-1.786-2.808 1.7-2.808 3.029-2.808 2.129 1.258 1.786 2.808z"/>
    <path id="path8398" sodipodi:nodetypes="ccccc" inkscape:connector-curvature="0" style="stroke-width:0;fill:#060715" d="m66.448 67.914c2.573-1.116 2.18-2.385 6.838-3.327 5.072-1.129 8.456 0.454 13.195 3.276-1.956-2.665-7.938-5.284-13.305-4.568-4.138 1.049-4.96 2.147-6.728 4.619z"/>
    <path id="path8392" sodipodi:nodetypes="ccccc" inkscape:connector-curvature="0" style="stroke-width:0;fill:#060715" d="m69.164 71.581c4.051 0.868 5.108 1.068 8.548 0.801 2.355-0.179 3.64-0.694 6.901-2.107-1.107 1.646-4.004 2.468-5.591 2.65-7.85 0.541-7.244-0.27-9.858-1.344z"/>
  </g>
  <metadata id="metadata220">
    <rdf:RDF>
      <cc:Work>
        <dc:format>image/svg+xml</dc:format>
        <dc:type rdf:resource="http://purl.org/dc/dcmitype/StillImage"/>
        <cc:license rdf:resource="http://creativecommons.org/licenses/publicdomain/"/>
        <dc:publisher>
          <cc:Agent rdf:about="http://openclipart.org/">
            <dc:title>Openclipart</dc:title>
          </cc:Agent>
        </dc:publisher>
      </cc:Work>
      <cc:License rdf:about="http://creativecommons.org/licenses/publicdomain/">
        <cc:permits rdf:resource="http://creativecommons.org/ns#Reproduction"/>
        <cc:permits rdf:resource="http://creativecommons.org/ns#Distribution"/>
        <cc:permits rdf:resource="http://creativecommons.org/ns#DerivativeWorks"/>
      </cc:License>
    </rdf:RDF>
  </metadata>
</svg>
