<?xml version="1.0" encoding="UTF-8" standalone="no"?>
<!--part of the category icon pack by sixsixfive released under CC0 (https://creativecommons.org/publicdomain/zero/1.0/) on openclipart-->
<svg xmlns="http://www.w3.org/2000/svg" xmlns:xlink="http://www.w3.org/1999/xlink" viewBox="0 0 32 32">
 <defs id="0">
  <linearGradient id="x">
   <stop id="1B" stop-color="#eeeeec"/>
   <stop id="1C" offset="1" stop-color="#eeeeec" stop-opacity="0"/>
  </linearGradient>
  <linearGradient id="y">
   <stop id="1D" stop-color="#c4a000"/>
   <stop id="1E" offset="1" stop-color="#fce94f"/>
  </linearGradient>
  <linearGradient id="z">
   <stop id="1F" stop-color="#d70bff"/>
   <stop id="1G" offset="1" stop-color="#e76cff"/>
  </linearGradient>
  <linearGradient id="10">
   <stop id="1H" stop-color="#fff"/>
   <stop id="1I" offset="1" stop-color="#fff" stop-opacity="0"/>
  </linearGradient>
  <radialGradient cx="60.05" cy="51.39" r="15.03" id="11" xlink:href="#12" gradientUnits="userSpaceOnUse" gradientTransform="matrix(-1.404511,1.1888571,-1,-1.1813958,199.73811,11.750541)"/>
  <linearGradient id="12">
   <stop id="1J" stop-color="#eee"/>
   <stop id="1K" offset="1" stop-color="#dcdcdc"/>
  </linearGradient>
  <linearGradient x1="31.02" y1="1021.04" x2="31.18" y2="1025.18" id="13" xlink:href="#10" gradientUnits="userSpaceOnUse" gradientTransform="translate(0,-1020.3622)"/>
  <linearGradient x1="31.02" y1="1051.78" x2="31.11" y2="1028.17" id="14" xlink:href="#10" gradientUnits="userSpaceOnUse" gradientTransform="translate(0,-1020.3622)"/>
  <radialGradient cx="13.07" cy="1050.12" r="16" id="15" xlink:href="#z" gradientUnits="userSpaceOnUse" gradientTransform="matrix(1.4329786,-1.4036705,1.3587115,1.387081,-1430.5122,-1405.3484)"/>
  <radialGradient cx="15.73" cy="26.09" r="11.294" id="16" xlink:href="#y" gradientUnits="userSpaceOnUse" gradientTransform="matrix(1.2564612,-1.6908071,1.8873687,1.4025287,-53.269679,18.459031)"/>
  <linearGradient x1="17.886" y1="2.081" x2="18.907" y2="12.74" id="17" xlink:href="#x" gradientUnits="userSpaceOnUse" gradientTransform="matrix(0.99540177,0,0,1,0.12255022,0.5)"/>
  <filter color-interpolation-filters="sRGB" id="18">
   <feGaussianBlur id="1L" stdDeviation="0.7336"/>
  </filter>
 </defs>
 <rect width="32" height="32" rx="5" id="1" fill="url(#15)"/>
 <path d="m 15.78125,3.812993 c -7.9874431,0.5281545 -9.8134989,5.5930142 -10.5,12.5 -0.1767436,2.428386 -0.5151328,4.888454 0.4375,7.40625 0.597212,-0.752059 0.4124695,-1.521012 0.84375,-2.28125 l 0.03125,-0.0625 c -0.5292185,3.680389 0.8183391,7.291905 2.125,10.09375 -2.4309286,1.936974 -3.8060729,4.280882 -4.34375,6.9375 l 23.84375,0.25 c -0.372695,-3.131917 -2.616137,-5.630725 -5.6875,-7.8125 l 0.0625,-0.21875 -0.375,0 c -1.036767,-0.716805 -2.133781,-1.395673 -3.3125,-2.0625 l 0,-0.0625 0.125,-0.0625 1.25,0.5 c 0.242321,-0.268662 0.44906,-0.555806 0.53125,-0.90625 -0.08744,0.531678 0.0782,1.090575 0.3125,1.625 0.08838,-0.477526 0.357763,-0.962036 0.6875,-1.4375 0.0989,0.554925 0.137438,1.102007 0.15625,1.65625 0.04945,-0.462657 0.09064,-0.885568 0.21875,-1.1875 l 0.3125,-0.5 c 0.03249,0.313449 0.104565,0.579368 0.21875,0.8125 0.120903,-0.484866 0.301105,-0.745091 0.5,-0.90625 -0.171561,1.046456 -0.171769,2.062361 0.0625,3.03125 L 26,22.875493 c 2.380938,-4.53497 0.893898,-11.208591 0.65625,-11.71875 -2.78729,-5.9835102 -5.713191,-6.1556051 -7.125,-7.09375 -1.434112,-0.1728021 -2.663086,-0.2573641 -3.75,-0.25 z m -1.3125,12.21875 c 0.04713,0.157501 0.105986,0.311669 0.15625,0.46875 -0.05026,-0.157081 -0.109121,-0.311249 -0.15625,-0.46875 z m -6.0625,2.21875 c 0.040851,0.781638 0.1599255,1.540785 0.3125,2.28125 l -0.15625,0.125 c 0.3428353,1.611537 1.022627,2.965429 1.90625,4.0625 0.127896,0.165601 0.266633,0.319235 0.40625,0.46875 0.0197,0.02131 0.04263,0.04143 0.0625,0.0625 0.15004,0.156108 0.305487,0.301303 0.46875,0.4375 0.130021,0.119425 0.239637,0.264586 0.375,0.375 l -1,-0.71875 L 10,24.594243 9.28125,23.187993 8.40625,20.719243 8.25,19.312993 c 0.073853,-0.518849 0.0861,-0.570083 0.15625,-1.0625 z m 15.78125,2 c 0.02867,0.230423 0.06347,0.45733 0.09375,0.6875 l -0.375,0.65625 -0.1875,0.3125 c 0.184754,-0.527945 0.351907,-1.083913 0.46875,-1.65625 z m -2.21875,5 -0.28125,0.4375 -0.96875,0.65625 -0.46875,0.34375 -1.21875,0.75 -0.125,0.03125 0,-0.09375 c 0.629035,-0.258142 1.22003,-0.616077 1.8125,-1.03125 0.207008,-0.145061 0.423566,-0.306135 0.625,-0.46875 0.228265,-0.184275 0.426255,-0.393179 0.625,-0.625 z m -12.53125,2.4375 c 9.6e-4,0.93079 0.5623952,1.500416 1.03125,2.125 l 0.0625,-2.0625 c 0.100941,0.635598 0.262301,1.270025 0.84375,1.75 l 0,-1.59375 c 0.176252,0.579041 0.502411,1.041874 1.03125,1.34375 -1.334503,0.618934 -2.4856276,1.278752 -3.46875,2.03125 l 0.5,-3.59375 z m 4.15625,0.75 0.34375,0 -0.03125,0.15625 c -0.355798,0.137679 -0.697448,0.29146 -1.03125,0.4375 l 0.71875,-0.59375 z" id="2" opacity="0.469" fill="#2e3436" filter="url(#18)" stroke="#2e3436" stroke-width="0.347"/>
 <path d="m 5,1.4816 c -1.9834933,0 -3.53125,1.5477 -3.53125,3.5312 l 0,22 c 0,1.9835 1.5477567,3.5312 3.53125,3.5312 l 22,0 c 1.983493,0 3.53125,-1.5477 3.53125,-3.5312 l 0,-22 C 30.53125,3.0293 28.983493,1.4815 27,1.4816 l -22,0 z" id="3" opacity="0.4" fill="none" stroke="url(#13)"/>
 <path d="m 15.78125,3.812993 c -7.9874431,0.5281545 -9.8134989,5.5930142 -10.5,12.5 -0.1767436,2.428386 -0.5151328,4.888454 0.4375,7.40625 0.597212,-0.752059 0.4124695,-1.521012 0.84375,-2.28125 l 0.03125,-0.0625 c -0.5292185,3.680389 0.8183391,7.291905 2.125,10.09375 -2.4309286,1.936974 -3.8060729,4.280882 -4.34375,6.9375 l 23.84375,0.25 c -0.372695,-3.131917 -2.616137,-5.630725 -5.6875,-7.8125 l 0.0625,-0.21875 -0.375,0 c -1.036767,-0.716805 -2.133781,-1.395673 -3.3125,-2.0625 l 0,-0.0625 0.125,-0.0625 1.25,0.5 c 0.242321,-0.268662 0.44906,-0.555806 0.53125,-0.90625 -0.08744,0.531678 0.0782,1.090575 0.3125,1.625 0.08838,-0.477526 0.357763,-0.962036 0.6875,-1.4375 0.0989,0.554925 0.137438,1.102007 0.15625,1.65625 0.04945,-0.462657 0.09064,-0.885568 0.21875,-1.1875 l 0.3125,-0.5 c 0.03249,0.313449 0.104565,0.579368 0.21875,0.8125 0.120903,-0.484866 0.301105,-0.745091 0.5,-0.90625 -0.171561,1.046456 -0.171769,2.062361 0.0625,3.03125 L 26,22.875493 c 2.380938,-4.53497 0.893898,-11.208591 0.65625,-11.71875 -2.78729,-5.9835102 -5.713191,-6.1556051 -7.125,-7.09375 -1.434112,-0.1728021 -2.663086,-0.2573641 -3.75,-0.25 z m -1.3125,12.21875 c 0.04713,0.157501 0.105986,0.311669 0.15625,0.46875 -0.05026,-0.157081 -0.109121,-0.311249 -0.15625,-0.46875 z m -6.0625,2.21875 c 0.040851,0.781638 0.1599255,1.540785 0.3125,2.28125 l -0.15625,0.125 c 0.3428353,1.611537 1.022627,2.965429 1.90625,4.0625 0.127896,0.165601 0.266633,0.319235 0.40625,0.46875 0.0197,0.02131 0.04263,0.04143 0.0625,0.0625 0.15004,0.156108 0.305487,0.301303 0.46875,0.4375 0.130021,0.119425 0.239637,0.264586 0.375,0.375 l -1,-0.71875 L 10,24.594243 9.28125,23.187993 8.40625,20.719243 8.25,19.312993 c 0.073853,-0.518849 0.0861,-0.570083 0.15625,-1.0625 z m 15.78125,2 c 0.02867,0.230423 0.06347,0.45733 0.09375,0.6875 l -0.375,0.65625 -0.1875,0.3125 c 0.184754,-0.527945 0.351907,-1.083913 0.46875,-1.65625 z m -2.21875,5 -0.28125,0.4375 -0.96875,0.65625 -0.46875,0.34375 -1.21875,0.75 -0.125,0.03125 0,-0.09375 c 0.629035,-0.258142 1.22003,-0.616077 1.8125,-1.03125 0.207008,-0.145061 0.423566,-0.306135 0.625,-0.46875 0.228265,-0.184275 0.426255,-0.393179 0.625,-0.625 z m -12.53125,2.4375 c 9.6e-4,0.93079 0.5623952,1.500416 1.03125,2.125 l 0.0625,-2.0625 c 0.100941,0.635598 0.262301,1.270025 0.84375,1.75 l 0,-1.59375 c 0.176252,0.579041 0.502411,1.041874 1.03125,1.34375 -1.334503,0.618934 -2.4856276,1.278752 -3.46875,2.03125 l 0.5,-3.59375 z m 4.15625,0.75 0.34375,0 -0.03125,0.15625 c -0.355798,0.137679 -0.697448,0.29146 -1.03125,0.4375 l 0.71875,-0.59375 z" id="4" opacity="0.469" fill="#2e3436" stroke="#2e3436" stroke-width="0.347"/>
 <path d="m 13.986581,26.652753 -0.07773,0.940313 C 8.0692342,29.85276 5.2222605,33.249989 4.3804323,37.409392 l 23.8360217,0.238351 c -0.508803,-4.275693 -4.46987,-7.335919 -9.323687,-10.08183 l -0.01135,-2.753323 -4.947583,-0.146791 0.05275,1.986954 z" id="5" fill="#eeeeec" stroke="#323232" stroke-width="0.347"/>
 <g transform="matrix(0.17325072,0.00147911,-0.00147911,0.17325072,-38.434589,-21.710393)" id="6">
  <path d="m 350.10564,293.83223 -7.96501,28.0946 c -5.42586,-5.58187 -10.2308,-12.09511 -16.95294,-15.73256" id="19" fill="none" stroke="#204a87" stroke-linejoin="round" stroke-linecap="square" stroke-width="4.2" stroke-miterlimit="20"/>
  <path d="m 288.27181,291.86022 4.7936,30.45869 c 5.70068,-5.98418 11.40135,-13.16101 17.10203,-15.84854" id="1A" fill="none" stroke="#204a87" stroke-linejoin="round" stroke-linecap="square" stroke-width="4.2" stroke-miterlimit="20"/>
 </g>
 <path d="m 19.60253,10.714278 c -0.149212,2.00013 -0.21514,4.032985 -0.278281,5.958966 -0.820854,-1.434471 -0.86873,-2.972643 -1.169209,-4.476927 -0.260842,2.243039 -0.364491,4.550518 -0.998811,6.640453 0.216092,-0.76441 -0.266928,-1.177014 -0.477936,-1.731298 -0.161044,0.668091 -0.475062,1.180573 -0.343196,2.146617 -1.028345,-1.633768 -1.609062,-3.327585 -2.074059,-5.03693 -0.358272,1.279759 -0.357709,2.74279 -0.296068,4.237011 -0.635315,-2.02683 -1.155962,-4.05268 -1.577871,-6.077688 -0.287664,1.561728 -0.534098,3.137591 -1.440658,4.487132 0.299026,-0.883842 0.22062,-1.865472 -0.332001,-2.969967 -0.8055678,0.935833 -1.0905818,2.225497 -1.3620472,3.524026 -0.02125,0.211026 -0.064442,0.421736 -0.1353439,0.632338 0.045584,-0.210574 0.091129,-0.420836 0.1353439,-0.632338 0.1044118,-1.036841 -0.3090422,-2.078233 -0.4336193,-3.117028 0,0 -0.2262874,1.579508 -0.4203737,2.941888 0.1813875,3.470674 1.4626724,6.732524 3.8568952,8.035528 1.333694,0.725831 2.340103,1.644322 3.835547,1.65709 1.839361,0.01571 3.546327,-0.977859 5.157797,-2.278777 0.582797,-0.470487 1.082426,-1.06 1.50917,-1.730579 l 0.898028,-1.811597 c 0.219932,-0.588619 0.392639,-1.215931 0.524845,-1.863523 -0.114858,-0.922836 -0.25729,-1.83984 -0.751195,-2.702824 -0.400979,0.473051 -0.201635,0.951227 -0.239595,1.427378 0,0 -1.125584,-5.674668 -1.222805,-5.809347 -0.133169,-0.184476 -0.689465,3.414781 -0.735534,4.341547 -0.165117,-2.03471 -1.007194,-3.882736 -1.629047,-5.791157 z m 1.628863,5.812815 c 0.0051,0.06498 0.01087,0.129671 0.01457,0.195044 -0.01578,-0.004 -0.01935,-0.07887 -0.01457,-0.195044 z" id="7" fill="#d8b1af"/>
 <path d="m 13.943512,24.770684 0.04856,1.922556 -0.01193,1.396832 c -0.824432,0.296967 -0.397444,0.874713 -0.04473,1.434456 l 2.021617,3.569159 2.734446,-3.820937 c 0.364907,-0.930276 0.160139,-1.282037 -0.04953,-1.175365 -0.261969,0.133286 0.02842,-2.096897 0.02153,-3.156458 l -4.719972,-0.170243 z" id="8" fill="#d8b1af" stroke="#323232" stroke-width="0.347"/>
 <path d="m 19.160439,16.83428 -1.444803,1.801515 -0.307453,-0.771479 -0.92177,1.421553 -1.200927,-2.029854 -0.220296,1.70368 -3.123205,-2.013778 -3.3696094,2.705634 c 0.5339667,2.509972 1.8745784,4.412864 3.5523414,5.655972 1.181523,0.875428 2.465891,1.617569 3.966125,1.625628 1.839402,0.01 3.638446,-0.742569 5.249914,-2.043488 1.173473,-0.947331 1.939588,-2.590297 2.476017,-4.236324 L 22.135986,19.020061 19.160439,16.83428 z" id="9" fill="#f9ccca"/>
 <path d="m 8.5835122,18.625752 c 1.19871,-1.984551 3.4299888,-2.105285 5.8020958,-1.97182 -0.180319,1.337174 -0.323476,2.67368 -1.043332,3.824699 l -2.824807,0.21984 C 10.053933,20.31422 9.135903,19.378778 8.5835115,18.625752 z" id="A" fill="#eee"/>
 <path d="m 9.0262355,19.343879 -0.218579,-0.810154 c 1.0885027,-1.674991 2.7820215,-2.038728 4.7703205,-2.089558 0.112987,0.202891 0.22278,0.779767 0.328539,1.829485" id="B" fill="none" stroke="#323232" stroke-linejoin="round" stroke-linecap="round" stroke-width="0.347" stroke-miterlimit="20"/>
 <path d="m 10.00476,15.27161 c 1.392239,-0.281585 2.810617,-0.536584 4.744858,-0.266835" id="C" fill="none" stroke="#323232" stroke-linejoin="round" stroke-linecap="round" stroke-width="0.347"/>
 <path d="m 17.918979,15.080952 c 1.758023,-0.116781 3.443292,-0.133526 4.736413,0.388947" id="D" fill="none" stroke="#323232" stroke-linejoin="round" stroke-linecap="round" stroke-width="0.347"/>
 <path d="m 18.811651,16.656869 c 2.237986,-0.245529 4.06488,0.181018 4.894855,2.237399 -0.450226,0.928215 -1.096842,1.432452 -1.723935,1.902079 l -2.95822,-0.47832 c -0.259039,-1.314927 -0.511128,-2.350989 -0.2127,-3.661158 z" id="E" fill="#eee"/>
 <path d="M 15.766089,2.8197007 C 7.7786459,3.3478552 5.9826123,8.4065792 5.2961112,15.313565 c -0.1767436,2.428386 -0.5234618,4.884578 0.429171,7.402374 0.6138615,-0.773025 0.3767679,-1.575288 0.8578767,-2.355566 -0.5500634,3.825353 0.9386994,7.616783 2.2894967,10.458309 l 0.5604806,-4.131878 c 9.6e-4,0.93079 0.552577,1.501198 1.0214318,2.125782 l 0.08249,-2.051383 c 0.100941,0.635598 0.253816,1.254376 0.835265,1.734351 l 0.01364,-1.597156 c 0.188002,0.617644 0.529547,1.114594 1.124987,1.411954 l 1.084936,-0.873297 0.389769,0.0088 0.0065,-0.752557 -0.0035,-0.227438 L 12.824786,25.800704 11.791383,25.077169 10.78505,24.353867 10.011847,23.594653 9.2766662,22.186035 8.4152935,19.704264 8.2486008,18.300491 c 0.277787,-1.951582 0.5701989,-4.001847 0.5701989,-4.001847 0.1245771,1.038795 0.538031,2.080188 0.4336193,3.117028 0.2714692,-1.298528 0.5564792,-2.588193 1.362047,-3.524026 0.552621,1.104495 0.631029,2.086126 0.332001,2.969967 0.906559,-1.349541 1.152994,-2.925403 1.440657,-4.487132 0.42191,2.025008 0.942557,4.050858 1.577872,6.077688 -0.06164,-1.494221 -0.06222,-2.957259 0.296068,-4.237011 0.464997,1.709345 1.045714,3.403163 2.074059,5.03693 -0.131866,-0.966044 0.18215,-1.478527 0.343196,-2.146617 0.211008,0.554284 0.69404,0.966891 0.477936,1.731299 0.634321,-2.089935 0.737969,-4.397415 0.998811,-6.640454 0.300479,1.504284 0.348355,3.042456 1.16921,4.476927 0.06314,-1.925981 0.129068,-3.958835 0.278281,-5.958966 0.621852,1.908421 1.46393,3.756449 1.629047,5.791157 0.04607,-0.926765 0.602364,-4.526022 0.735534,-4.341547 0.09722,0.134679 1.222804,5.809348 1.222804,5.809348 0.03796,-0.476151 -0.161384,-0.954327 0.239595,-1.427378 0.61741,1.078786 0.685729,2.244273 0.837318,3.396614 l -0.352048,0.646731 -1.426976,2.884563 -0.789936,1.200687 -1.443607,1.027254 -1.208352,0.742297 -0.461167,0.109767 c -0.02525,0.381081 -0.04936,0.739816 -0.052,1.017478 l 0.205688,0.0071 0.298885,-0.127397 1.230252,0.497806 c 0.242321,-0.268662 0.450739,-0.554638 0.532929,-0.905082 -0.08744,0.531678 0.07691,1.065504 0.311212,1.599929 0.08838,-0.477526 0.364685,-0.953445 0.694422,-1.428909 0.0989,0.554925 0.129421,1.109268 0.148233,1.663511 0.04945,-0.462657 0.109592,-0.903469 0.2377,-1.205401 l 0.29652,-0.48477 c 0.03249,0.313449 0.111687,0.580967 0.225872,0.814099 0.120903,-0.484866 0.296138,-0.744247 0.495033,-0.905406 -0.171561,1.046456 -0.162649,2.058416 0.07162,3.027305 l 2.712746,-8.25557 C 28.374819,17.333493 26.889263,10.656557 26.651615,10.146398 23.864325,4.1628878 20.944298,4.0011835 19.532489,3.0630386 18.098377,2.8902365 16.853002,2.8123543 15.766088,2.8197184 z M 9.2523928,17.415673 c -0.044213,0.211503 -0.089764,0.421764 -0.1353439,0.632338 0.070911,-0.210601 0.1141246,-0.421303 0.1353439,-0.632338 z m 11.9790002,-0.88858 c -0.0048,0.11617 -0.0013,0.190953 0.01457,0.195044 -0.0038,-0.06537 -0.0094,-0.130061 -0.01457,-0.195044 z" id="F" fill="url(#16)" stroke="#323232" stroke-width="0.447" stroke-miterlimit="20"/>
 <path d="m 10.159382,29.521668 0.988574,6.923119 3.658519,-3.111802 0.980146,-0.271013 1.675568,0.08416 3.321321,3.660308 1.807419,-7.178631" id="G" fill="none" stroke="#323232" stroke-linejoin="round" stroke-linecap="round" stroke-width="0.347" stroke-miterlimit="20"/>
 <path d="m 17.252072,33.214174 -0.0066,4.288937" id="H" fill="none" stroke="#323232" stroke-linejoin="round" stroke-linecap="round" stroke-width="0.347" stroke-miterlimit="20"/>
 <path d="m 15.50624,33.179173 -0.03683,4.288344" id="I" fill="none" stroke="#323232" stroke-linejoin="round" stroke-linecap="round" stroke-width="0.347" stroke-miterlimit="20"/>
 <path d="m 7.8779886,34.95012 0.049075,2.433128" id="J" fill="none" stroke="#323232" stroke-linejoin="round" stroke-linecap="round" stroke-width="0.347" stroke-miterlimit="20"/>
 <path d="m 5.7893437,34.16399 c 0.6622569,1.583054 0.7762277,1.766543 1.0695174,3.230015" id="K" fill="none" stroke="#323232" stroke-linejoin="round" stroke-linecap="round" stroke-width="0.347" stroke-miterlimit="20"/>
 <path d="m 24.627106,36.559864 0.07024,1.085819" id="L" fill="none" stroke="#323232" stroke-linejoin="round" stroke-linecap="round" stroke-width="0.347" stroke-miterlimit="20"/>
 <path d="m 26.739005,34.622225 c -0.436467,1.188143 -0.578853,1.452538 -0.753641,3.004917" id="M" fill="none" stroke="#323232" stroke-linejoin="round" stroke-linecap="round" stroke-width="0.347" stroke-miterlimit="20"/>
 <path d="m 21.090554,6.8932795 c 0.634115,1.7192431 0.973782,3.6127245 0.974415,5.3318505" id="N" fill="none" stroke="#323232" stroke-linejoin="round" stroke-linecap="round" stroke-width="0.447" stroke-miterlimit="18.545"/>
 <path d="m 18.705042,5.5774198 c 0.519978,0.9574628 0.880378,3.1163615 0.91004,4.9151222" id="O" fill="none" stroke="#323232" stroke-linejoin="round" stroke-linecap="round" stroke-width="0.447" stroke-miterlimit="18.545"/>
 <path d="M 17.984693,7.9182651 C 18.442399,9.361397 18.187614,10.61993 18.20574,11.94917" id="P" fill="none" stroke="#323232" stroke-linejoin="round" stroke-linecap="round" stroke-width="0.447" stroke-miterlimit="18.545"/>
 <path d="M 15.466401,5.1211393 C 15.166995,9.177438 15.401211,13.19727 16.690809,17.144975" id="Q" fill="none" stroke="#323232" stroke-linejoin="round" stroke-linecap="round" stroke-width="0.447" stroke-miterlimit="18.545"/>
 <path d="M 13.227939,5.5211003 C 12.702108,7.4935788 12.445355,9.67148 12.406107,12.015426" id="R" fill="none" stroke="#323232" stroke-linejoin="round" stroke-linecap="round" stroke-width="0.647" stroke-miterlimit="18.545"/>
 <path d="M 11.621617,5.5073868 C 11.057918,8.2470299 10.427371,10.966955 10.691292,13.950719" id="S" fill="none" stroke="#323232" stroke-linejoin="round" stroke-linecap="round" stroke-width="0.447" stroke-miterlimit="18.545"/>
 <path d="M 10.344818,7.8013794 C 9.1974229,9.55273 8.9207352,11.748765 8.7333767,13.990421" id="T" fill="none" stroke="#323232" stroke-linejoin="round" stroke-linecap="round" stroke-width="0.447" stroke-miterlimit="18.545"/>
 <path d="M 7.5410737,8.964813 C 7.1525289,12.387979 6.2918021,15.701979 6.9136715,19.358751" id="U" fill="none" stroke="#323232" stroke-linejoin="round" stroke-linecap="round" stroke-width="0.447" stroke-miterlimit="18.545"/>
 <path d="m 23.117814,8.818416 c 0.272834,2.573059 0.836773,5.231985 0.312343,7.569872" id="V" fill="none" stroke="#323232" stroke-linejoin="round" stroke-linecap="round" stroke-width="0.447" stroke-miterlimit="18.545"/>
 <path d="m 18.759192,17.335557 c -0.135692,-0.649817 0.115251,-0.857112 0.536891,-0.869045 2.536904,-0.05495 3.536257,1.159418 4.319885,2.551872 -0.110311,0.323914 -0.211286,0.657327 -0.45725,0.843251" id="W" fill="none" stroke="#323232" stroke-linejoin="round" stroke-linecap="round" stroke-width="0.347" stroke-miterlimit="20"/>
 <path d="m 25.187379,11.839429 c 0.301554,2.502332 0.937876,5.007523 0.446868,7.50309" id="X" fill="none" stroke="#323232" stroke-linejoin="round" stroke-linecap="round" stroke-width="0.447" stroke-miterlimit="18.545"/>
 <path d="m 9.2203569,21.950269 c 0.2092523,0.562053 0.2582823,4.825351 0.2582823,4.825351" id="Y" fill="none" stroke="#323232" stroke-linejoin="round" stroke-linecap="round" stroke-width="0.347" stroke-miterlimit="20"/>
 <path d="m 23.853275,20.845724 -0.65633,6.272821" id="Z" fill="none" stroke="#323232" stroke-linejoin="round" stroke-linecap="round" stroke-width="0.347" stroke-miterlimit="20"/>
 <path d="M 25.399959,19.663913 25.032276,21.825976 24.49144,19.726001" id="a" fill="none" stroke="#323232" stroke-linejoin="round" stroke-linecap="round" stroke-width="0.347" stroke-miterlimit="20"/>
 <path d="m 25.820194,19.527809 0.26326,1.888069" id="b" fill="none" stroke="#323232" stroke-linejoin="round" stroke-linecap="round" stroke-width="0.447" stroke-miterlimit="20"/>
 <path d="M 6.896492,19.017023 6.5341753,20.550526" id="c" fill="none" stroke="#323232" stroke-linejoin="round" stroke-linecap="round" stroke-width="0.347" stroke-miterlimit="20"/>
 <path d="m 6.8929146,19.436065 0.6106745,2.100571 0.7843412,-1.879125" id="d" fill="none" stroke="#323232" stroke-linejoin="round" stroke-linecap="round" stroke-width="0.347" stroke-miterlimit="20"/>
 <path d="m 13.675948,26.403957 c 1.057539,0.466486 2.17317,0.925547 4.864092,0.143857" id="e" fill="none" stroke="#323232" stroke-linejoin="round" stroke-linecap="round" stroke-width="0.347" stroke-miterlimit="20"/>
 <path d="m 16.254614,22.317685 -0.05769,0.555453" id="f" fill="none" stroke="#323232" stroke-linejoin="round" stroke-linecap="round" stroke-width="0.347" stroke-miterlimit="20"/>
 <path d="m 15.83991,24.379085 0.688941,-0.07354" id="g" fill="none" stroke="#323232" stroke-linejoin="round" stroke-linecap="round" stroke-width="0.347" stroke-miterlimit="20"/>
 <path d="m 13.248379,18.638663 c -0.261411,1.489441 -0.711401,1.883168 -1.412686,1.874385 -0.372873,-0.0048 -0.534903,0.228478 -0.777409,0.0083 -0.29687,-0.269567 -0.695048,-1.517125 -0.734071,-2.066463 -0.07067,-0.994933 0.607896,-1.652342 1.437124,-1.635913 1.025342,0.02032 1.612474,0.50332 1.487042,1.819722 z" id="h" fill="#323232" stroke="#323232" stroke-linejoin="round" stroke-linecap="round" stroke-width="0.386" stroke-miterlimit="20"/>
 <path d="m 22.25033,18.5302 c -0.0085,0.997405 -0.689251,1.758806 -1.517896,1.794066 -0.924188,0.03932 -1.266517,-0.805563 -1.328213,-1.818365 -0.111972,-1.838205 0.257133,-2.026305 1.359067,-1.795423 1.015026,0.212675 1.68404,0.690103 1.487042,1.819722 z" id="i" fill="#323232" stroke="#323232" stroke-linejoin="round" stroke-linecap="round" stroke-width="0.386" stroke-miterlimit="20"/>
 <path d="m 10.549614,20.759985 c 0.476715,-0.0224 2.863687,-0.531497 2.863687,-0.531497" id="j" fill="none" stroke="#323232" stroke-linejoin="round" stroke-linecap="round" stroke-width="0.347" stroke-miterlimit="20"/>
 <path d="m 19.13299,20.065529 2.880665,0.580539" id="k" fill="none" stroke="#323232" stroke-linejoin="round" stroke-linecap="round" stroke-width="0.347" stroke-miterlimit="20"/>
 <path d="m 11.750273,17.079731 c -0.678741,-0.01343 -1.223189,0.486222 -1.160979,1.361968 0.01624,0.228645 0.125377,0.67403 0.261279,1.072534 0.06796,0.19925 0.143707,0.390206 0.216656,0.539956 0.07294,0.149751 0.154936,0.260431 0.175855,0.279427 0.03217,0.02921 0.03158,0.02408 0.03053,0.02392 -9.61e-4,-1.59e-4 0.0123,-1.25e-4 0.05542,-0.01135 0.08624,-0.02252 0.265261,-0.09926 0.510961,-0.09617 0.297798,0.0037 0.475736,-0.04761 0.659975,-0.272289 0.18365,-0.223961 0.357973,-0.65918 0.485039,-1.379564 2.09e-4,-0.0024 -2.08e-4,-0.0035 1e-6,-0.0058 0.05428,-0.605612 -0.06149,-0.966255 -0.254224,-1.178911 -0.195032,-0.215192 -0.510224,-0.324283 -0.980553,-0.333601 z" id="l" fill="#729fcf"/>
 <path d="m 20.095069,16.912438 c -0.205004,0.01517 -0.248087,0.02949 -0.327848,0.245558 -0.07976,0.216061 -0.113959,0.654426 -0.07281,1.329865 0.02932,0.481215 0.129419,0.909993 0.297245,1.179279 0.167826,0.269286 0.353221,0.394393 0.722025,0.378701 0.651215,-0.02772 1.240904,-0.644879 1.248384,-1.52088 a 0.28969813,0.27871646 0.48914692 0 1 3.53e-4,-0.04139 c 0.08851,-0.507533 -0.01049,-0.798494 -0.218714,-1.018951 -0.20817,-0.220457 -0.570119,-0.382103 -1.046896,-0.481999 -0.265945,-0.05572 -0.46645,-0.08018 -0.601733,-0.07018 z" id="m" fill="#729fcf"/>
 <path d="m 12.20826,18.735676 a 0.47650797,0.92654329 0.48914492 0 1 -0.952981,-0.0081 0.47650797,0.92654329 0.48914492 1 1 0.952981,0.0081 z" id="n" fill="#323232"/>
 <path d="m 21.183962,18.600513 a 0.41032593,0.68828869 0.48914492 0 1 -0.820622,-0.007 0.41032593,0.68828869 0.48914492 1 1 0.820622,0.007 z" id="o" fill="#323232"/>
 <path d="m 12.825134,17.801134 a 0.31767165,0.43679851 0.48914592 1 1 -0.635319,-0.0054 0.31767165,0.43679851 0.48914592 1 1 0.635319,0.0054 z" id="p" fill="#eee"/>
 <path d="m 11.325316,19.826797 a 0.14560001,0.19854549 0.48914592 1 1 -0.291188,-0.0025 0.14560001,0.19854549 0.48914592 0 1 0.291188,0.0025 z" id="q" fill="#eee"/>
 <path d="m 20.382019,19.507011 a 0.29119972,0.27796339 0.48914592 0 1 -0.582377,-0.005 0.29119972,0.27796339 0.48914592 1 1 0.582377,0.005 z" id="r" fill="#eee"/>
 <path d="m 21.932293,17.77299 a 0.54268907,0.46327113 0.48914592 1 1 -1.085338,-0.0093 0.54268907,0.46327113 0.48914592 1 1 1.085338,0.0093 z" id="s" fill="#eee"/>
 <path d="M 14.214521,13.881238 C 13.775346,11.963895 13.56996,10.048547 13.620607,8.1353863" id="t" fill="#eee" stroke="#323232" stroke-width="0.447" stroke-miterlimit="18.545"/>
 <path d="m 5,0.4816 c -2.5134381,0 -4.53125,2.0178 -4.53125,4.5312 l 0,22 c 0,2.5134 2.0178119,4.5312 4.53125,4.5312 l 22,0 c 2.513438,0 4.53125,-2.0178 4.53125,-4.5312 l 0,-22 C 31.53125,2.4994 29.513438,0.4816 27,0.4816 l -22,0 z" id="u" opacity="0.3" fill="none" stroke="#000"/>
 <path d="M 15.816143,3.6195187 C 7.8654281,4.1476732 6.0776531,9.2063972 5.3943087,16.113383 5.2183778,18.541769 4.8732539,20.997961 5.8215063,23.515757 6.4325451,22.742732 6.1965417,21.940469 6.6754382,21.160191 6.1279042,24.985544 7.6098213,28.776974 8.9544073,31.6185 l 0.5579034,-4.131878 c 9.556e-4,0.93079 0.5500363,1.501198 1.0167353,2.125782 l 0.08211,-2.051383 c 0.100477,0.635598 0.252649,1.254376 0.831425,1.734351 l 0.01358,-1.597156 c 0.187137,0.617644 0.527112,1.114594 1.119814,1.411954 l 1.079947,-0.873297 0.387977,0.0088 0.0065,-0.752557 -0.0035,-0.227438 L 12.888365,26.600522 11.859714,25.876987 10.858008,25.153685 10.08836,24.394471 9.3565602,22.985853 8.4991483,20.504082 8.3332221,19.100309 c 0.2765096,-1.951582 0.567577,-4.001847 0.567577,-4.001847 0.1240042,1.038795 0.535557,2.080188 0.4316254,3.117028 0.2702209,-1.298528 0.5539204,-2.588193 1.3557835,-3.524026 0.55008,1.104495 0.628128,2.086126 0.330475,2.969967 0.90239,-1.349541 1.147692,-2.925403 1.434032,-4.487132 0.41997,2.025008 0.938223,4.050858 1.570617,6.077688 -0.06136,-1.494221 -0.06193,-2.957259 0.294707,-4.237011 0.462858,1.709345 1.040905,3.403163 2.064522,5.03693 -0.13126,-0.966044 0.181312,-1.478527 0.341617,-2.146617 0.210038,0.554284 0.690849,0.966891 0.475739,1.731299 0.631404,-2.089935 0.734575,-4.397415 0.994218,-6.640454 0.299097,1.504284 0.346753,3.042456 1.163834,4.476927 0.06285,-1.925981 0.128474,-3.958835 0.277001,-5.958966 0.618993,1.908421 1.457199,3.756449 1.621556,5.791157 0.04586,-0.926765 0.599595,-4.526022 0.732152,-4.341547 0.09677,0.134679 1.217182,5.809348 1.217182,5.809348 0.03778,-0.476151 -0.160642,-0.954327 0.238493,-1.427378 0.614571,1.078786 0.682576,2.244273 0.833468,3.396614 l -0.35043,0.646731 -1.420414,2.884563 -0.786304,1.200687 -1.436969,1.027254 -1.202795,0.742297 -0.459047,0.109767 c -0.02513,0.381081 -0.04913,0.739816 -0.05176,1.017478 l 0.204743,0.0071 0.29751,-0.127397 1.224595,0.497806 c 0.241207,-0.268662 0.448667,-0.554638 0.530479,-0.905082 -0.08704,0.531678 0.07656,1.065504 0.309781,1.599929 0.08797,-0.477526 0.363008,-0.953445 0.691229,-1.428909 0.09845,0.554925 0.128825,1.109268 0.147551,1.663511 0.04922,-0.462657 0.109088,-0.903469 0.236607,-1.205401 l 0.295156,-0.48477 c 0.03234,0.313449 0.111174,0.580967 0.224834,0.814099 0.120347,-0.484866 0.294776,-0.744247 0.492757,-0.905406 -0.170773,1.046456 -0.161902,2.058416 0.07129,3.027305 l 2.700272,-8.25557 c 2.36999,-4.53497 0.891265,-11.211906 0.65471,-11.722065 C 23.877142,4.9627058 20.970542,4.8010015 19.565224,3.8628566 18.137707,3.6900545 16.898058,3.6121723 15.816142,3.6195364 z M 9.3323984,18.215491 c -0.04401,0.211503 -0.089351,0.421764 -0.1347216,0.632338 0.070585,-0.210601 0.1135999,-0.421303 0.1347216,-0.632338 z m 11.9239176,-0.88858 c -0.0048,0.11617 -0.0013,0.190953 0.0145,0.195044 -0.0038,-0.06537 -0.0094,-0.130061 -0.0145,-0.195044 z" id="v" fill="none" stroke="url(#17)" stroke-width="0.845" stroke-miterlimit="20"/>
 <path d="m 5,1.4816 c -1.9834933,0 -3.53125,1.5477 -3.53125,3.5312 l 0,22 c 0,1.9835 1.5477567,3.5312 3.53125,3.5312 l 22,0 c 1.983493,0 3.53125,-1.5477 3.53125,-3.5312 l 0,-22 C 30.53125,3.0293 28.983493,1.4815 27,1.4816 l -22,0 z" id="w" opacity="0.3" fill="none" stroke="url(#14)"/>
</svg>
