<?xml version="1.0"?>
<svg xmlns:rdf="http://www.w3.org/1999/02/22-rdf-syntax-ns#" xmlns="http://www.w3.org/2000/svg" xmlns:cc="http://web.resource.org/cc/" xmlns:dc="http://purl.org/dc/elements/1.1/" xmlns:svg="http://www.w3.org/2000/svg" id="Layer_1" xml:space="preserve" viewBox="0 0 492.15 431.448" version="1.0">
<g id="g5" fill-rule="evenodd">
	<path id="path7" stroke="#000" stroke-width=".036" stroke-miterlimit="10" d="m86.964 236.75c0 100.12 66.176 181.33 147.81 181.33 81.61 0 147.79-81.2 147.79-181.33s-66.18-181.33-147.79-181.33c-81.63 0.002-147.81 81.2-147.81 181.33h0.004z"/>
	<path id="path9" d="m90.109 237.07c0 98.46 65.051 178.32 145.28 178.32 80.23 0 145.28-79.86 145.28-178.32 0-98.48-65.05-178.34-145.28-178.34-80.23-0.002-145.28 79.86-145.28 178.34h-0.001z" stroke="#000" stroke-miterlimit="10" stroke-width=".036" fill="#e8ccba"/>
	<path id="path11" stroke="#000" stroke-width=".036" stroke-miterlimit="10" d="m244.91 191.54c0.32 4.25-3.31 7.96-8.12 8.3-4.79 0.36-8.92-2.79-9.25-7.04-0.29-4.22 3.34-7.93 8.12-8.3 4.81-0.35 8.95 2.79 9.25 7.04z"/>
	<path id="path13" d="m237.89 190.62c0.11 1.3-0.89 2.45-2.17 2.53-1.32 0.11-2.45-0.89-2.53-2.18-0.11-1.31 0.86-2.44 2.17-2.55 1.32-0.08 2.45 0.89 2.53 2.2z" stroke="#000" stroke-miterlimit="10" stroke-width=".036" fill="#fff"/>
	<path id="path15" stroke="#000" stroke-width=".036" stroke-miterlimit="10" d="m199.62 187.69c-2.32 3.69-0.86 8.71 3.22 11.27 4.06 2.55 9.25 1.64 11.53-2.05 2.31-3.68 0.86-8.73-3.22-11.26-4.06-2.55-9.25-1.64-11.53 2.04z"/>
	<path id="path17" d="m204.1 188.8c-0.7 1.13-0.37 2.58 0.76 3.28 1.1 0.7 2.55 0.35 3.25-0.76 0.7-1.1 0.35-2.58-0.75-3.28-1.1-0.67-2.58-0.35-3.26 0.76z" stroke="#000" stroke-miterlimit="10" stroke-width=".036" fill="#fff"/>
	<path id="path19" stroke="#000" stroke-width=".036" stroke-miterlimit="10" d="m253.16 175.71c-1.94-1.35-5.83-3.5-8.79-4.6-3.09-1.21-6.61-2.2-9.01-2.37-2.44-0.21-4.51 0.33-4.86 1.11-0.35 0.67 1.13 2.42 3.09 3.17 1.96 0.64 5.75 0.19 8.58 1.02 2.82 0.78 5.72 2.8 7.87 3.98 1.94 1.21 3.25 2.63 4.17 2.93 0.91 0.13 1.5-1 1.37-1.83-0.19-0.91-0.62-2.12-2.42-3.41z"/>
	<path id="path21" stroke="#000" stroke-width=".036" stroke-miterlimit="10" d="m194.59 169.63c2.07-0.89 6.02-1.88 9.17-2.26 2.98-0.43 6.63-0.4 8.89-0.02 2.21 0.37 4.17 1.48 4.33 2.28 0.13 0.75-1.67 2.04-3.55 2.31-2.04 0.11-5.51-1.29-8.23-1.18-2.84 0.11-6.02 1.26-8.17 1.91-2.12 0.62-3.63 1.8-4.51 1.8-0.97-0.08-1.27-1.34-0.89-2.12 0.3-0.84 0.94-1.91 2.96-2.72z"/>
	<path id="path23" stroke="#000" stroke-width=".036" stroke-miterlimit="10" d="m231.52 367.65c-5.7-0.78-7.93-0.54-14.43-3.06-6.51-2.56-16.99-6.83-24.19-11.99-7.18-5.16-12.88-10.83-18.58-18.71-5.72-7.9-11.69-18.71-15.4-28.25-3.68-9.54-5.83-18.87-6.56-28.46 0.7-1.67 1.02-3.5 1.26-5.7 0.16-2.29 0.25-6.59-0.16-7.39-0.54-0.78-1.93 0.45-2.63 2.68-0.67 2.15-0.51 7.1-1.59 10.38-1.31 3.2-4.62 5.83-5.56 9.06-0.94 3.17-0.59 10.29 0 10.19 0.51-0.22 1.93-8.58 3.04-10.97 0.99-2.39 2.01-3.55 3.06-3.36 1.42 9.51 4 18.79 8.04 28.44 3.92 9.59 8.95 20.56 15.7 28.87 6.77 8.19 16.82 15.29 24.35 20.13 7.42 4.73 14.49 6.39 19.86 8.33 5.32 1.86 7.8 2.28 11.88 2.85 4.09 0.46 8.01 0.46 12.18 0 4-0.56 6.5-0.99 11.85-2.85 5.32-1.94 12.39-3.6 19.86-8.33 7.45-4.84 17.5-11.94 24.36-20.13 6.64-8.31 11.74-19.28 15.72-28.87 3.96-9.65 6.59-18.93 8.01-28.44 0.84-1.4 1.97-1.24 3.39 0.78 1.43 1.93 4.7 11.15 5.08 10.97 0.22-0.36-1.85-9.25-3.31-12.58-1.53-3.39-4.3-4.52-5.29-7.42-1-2.96-0.16-8.28-0.51-10.06-0.43-1.77-1.43-1.69-1.83-0.59-0.51 1.11-0.83 4.92-0.75 7.1 0.05 2.1 0.51 3.92 1.26 5.48-0.72 9.6-3.49 20.35-7.18 29.89-3.71 9.54-9.67 20.35-15.37 28.25-5.73 7.88-11.42 13.55-18.6 18.71-7.2 5.16-17.69 9.44-24.19 11.99-6.51 2.52-8.74 2.28-14.44 3.06-5.69 0.75-2.63 0.75-8.33 0z"/>
	<path id="path25" stroke="#000" stroke-width=".036" stroke-miterlimit="10" d="m95.834 196.83c-4.22-1.07-8.467-0.88-12.848 0.57-4.462 1.4-10.026 3.3-13.494 8.12-3.601 4.78-7.123 12.9-7.337 20.72-0.242 7.88 3.037 19.14 6.209 25.7 3.118 6.34 6.72 10.29 12.687 12.58 5.968 2.23 13.494 2.39 22.879 0.69l-8.096-68.38z"/>
	<path id="path27" fill="#e8ccba" d="m93.227 270.29c6.747 2.07 11.503 1.45 14.493-1.85 2.9-3.44 3.89-7.82 3.08-18.12-0.91-10.48-5.58-33.86-8.22-43.59-2.741-9.63-5.16-14.25-7.66-13.98-0.242 2.77-0.807 4.78-1.908 6.15-1.129 1.27-2.473 1.24-4.542 1.88-2.204 0.65-5.538 0.76-8.145 2.08-2.688 1.31-5.269 2.06-7.526 5.67-2.312 3.54-5.241 9.59-5.887 15.56-0.699 5.91 0.564 14.51 1.828 19.57 1.236 5 3.603 7.47 5.537 10.21 1.882 2.55 3.683 4.3 5.833 5.56 2.124 1.19 4.65 1.37 6.64 1.91 1.854 0.51 3.548-0.32 4.676 1.24 1.022 1.5 1.72 4 1.801 7.71z"/>
	<path id="path29" stroke="#000" stroke-width=".036" stroke-miterlimit="10" d="m374.98 198.02c4.19-1.08 8.44-0.89 12.84 0.56 4.41 1.4 9.95 3.31 13.5 8.12 3.49 4.78 7.12 12.9 7.36 20.72 0.08 7.82-3.04 19.19-6.23 25.72-3.2 6.35-6.78 10.33-12.69 12.56-5.99 2.23-13.52 2.39-22.88 0.7l8.1-68.38z"/>
	<path id="path31" fill="#e8ccba" d="m377.61 271.48c-6.77 2.12-11.53 1.48-14.49-1.83-2.98-3.47-3.95-7.74-3.12-18.12 0.84-10.48 5.52-33.87 8.23-43.59 2.69-9.65 5.13-14.22 7.66-14.01 0.21 2.77 0.78 4.79 1.91 6.16 1.05 1.23 2.42 1.29 4.54 1.91 2.15 0.59 5.43 0.75 8.17 2.04 2.61 1.23 5.22 2.12 7.53 5.67 2.26 3.55 5.1 9.59 5.86 15.56 0.62 5.92-0.62 14.49-1.83 19.6-1.29 5.02-3.65 7.41-5.54 10.18-1.96 2.53-3.73 4.36-5.83 5.59-2.18 1.22-4.73 1.32-6.64 1.89-1.94 0.48-3.63-0.27-4.68 1.26-1.1 1.5-1.69 4.03-1.77 7.69z"/>
	<path id="path33" stroke="#000" stroke-width=".036" stroke-miterlimit="10" d="m91.668 221.78c-1.344-0.43-2.876-0.97-4.597-0.78-1.8 0.16-4.166 0-5.752 2.1-1.639 2.14-3.736 6.77-3.817 10.24-0.134 3.3 1.586 7.58 3.414 9.59 1.801 1.94 5.537 2.42 7.472 1.96 1.909-0.64 2.85-4.81 3.951-5.24 1.021-0.43 2.393 1.29 2.231 2.88-0.188 1.53-0.914 5.51-3.414 6.42-2.714 0.89-9.058 0.81-12.069-1.29-3.037-2.23-5.161-7.52-5.537-11.83-0.403-4.38 1.183-10.83 3.414-14.05 2.177-3.2 6.666-4.76 9.73-5.11 3.091-0.43 6.854 1.37 8.386 2.5 1.264 1.1 0.35 3.41-0.242 3.92-0.616 0.33-1.88-0.94-3.17-1.31z"/>
	<path id="path35" stroke="#000" stroke-width=".036" stroke-miterlimit="10" d="m374.87 221.78c1.26-0.43 2.79-0.97 4.59-0.78 1.75 0.16 4.12 0 5.76 2.1 1.58 2.14 3.65 6.77 3.81 10.24 0.06 3.3-1.64 7.58-3.41 9.59-1.85 1.94-5.59 2.42-7.47 1.96-1.99-0.64-2.93-4.81-3.95-5.24-1.08-0.43-2.48 1.29-2.24 2.88 0.11 1.53 0.87 5.51 3.42 6.42 2.63 0.89 9 0.81 12.07-1.29 2.95-2.23 5.08-7.52 5.53-11.83 0.35-4.38-1.23-10.83-3.41-14.05-2.26-3.2-6.75-4.76-9.73-5.11-3.17-0.43-6.93 1.37-8.38 2.5-1.35 1.1-0.44 3.41 0.24 3.92 0.56 0.33 1.82-0.94 3.17-1.31z"/>
	<path id="path37" stroke="#000" stroke-width=".036" stroke-miterlimit="10" d="m197.92 57.922c-2.58-6.021-6.69-11.559-12.63-16.934-6.02-5.43-14.65-13.278-22.88-15.052-8.33-1.774-18.46-0.752-26.04 4.516-7.55 5.295-11.56 18.654-18.95 26.718-7.56 7.902-20.565 12.284-25.671 20.697-5.054 8.44-6.667 17.982-4.731 29.353-19.971 9.33-33.116 19.54-40.265 31.26-7.042 11.69-0.162 25.32-1.962 38.38-2.043 12.96-5.16 24.92-9.461 38.79-4.354 13.87-13.789 29.81-16.181 43.47-2.392 13.49 3.064 25.53 1.962 37.25-1.317 11.61-5.59 19.59-9.085 32.36-3.548 12.77-14.595 29.06-11.45 43.68 3.387 14.57 19.003 33.33 31.179 42.9 12.15 9.46 30.75 13.68 41.072 13.17 10.16-0.83 8.897-11.96 19.729-17.31 10.804-5.29 34.274-9.19 44.594-14.3 10.11-5.21 14.19-7.18 16.18-16.56 1.96-9.49 0.73-23.14-4.33-39.51-5.21-16.56-23.09-42.34-26.45-58.36-3.3-15.91 2.26-27.46 6.32-36.52 3.95-9.09 14.06-11.08 17.36-17.69 3.15-6.69 1.7-12.37 1.97-22.2 0.21-10-4.04-24.81-0.41-36.88 3.66-12.21 16.32-25.46 22.13-35 5.75-9.54 9.75-14.38 12.22-21.47 2.42-7.15-0.08-15.918 2.37-20.701 2.39-4.785 9.14-4.946 11.85-7.526 2.66-2.661 3.9-5.161 3.93-7.902 1.21 9.811 4.3 17.255 9.49 22.954 5.1 5.565 11.45 8.625 21.31 10.535 9.95 1.88 29.57-3.09 37.5 0.75 7.63 3.79 5.97 14.95 8.68 21.86 2.69 6.74 2.88 12.6 7.5 18.81 4.6 6.24 13.01 13.71 19.73 18.07 6.61 4.13 15.64 2.68 19.73 7.15 3.98 4.54 0.62 15.08 4.33 19.56 3.73 4.25 13.97 1.89 17.76 6.4 3.69 4.54 5.38 10 4.36 20.72-1.21 10.73-9.81 30.97-11.08 42.9-1.23 11.78 2.45 20.73 3.58 27.47 1.1 6.59 4.54 6.35 2.74 12.34-2.02 5.92-11.45 15.59-14.19 23.33-2.66 7.72-1.19 15.06-1.99 22.96-0.97 7.9-2.02 15.35-3.55 24.08-1.69 8.68-7.26 18.98-5.91 27.69 1.37 8.6 5.83 19.89 14.22 23.71 8.36 3.7 25.1-2.02 35.5-1.51 10.33 0.4 17.07 3.55 26.05 4.14 8.95 0.59 19.27 2.18 27.23-0.75 7.82-3.12 13.68-14.87 19.76-17.31 6.02-2.4 9.89 4.73 16.18 3.01 6.23-1.83 15.35-5.38 20.91-13.55 5.54-8.31 13.28-22.9 11.83-35.4-1.67-12.61-16.86-26.34-21.32-39.14-4.54-12.85-3.2-26.15-5.51-36.9-2.42-10.75-8.22-18.44-8.3-27.1-0.09-8.73 4.73-16.77 7.9-24.83 3.14-8.2 10.64-12.53 10.67-23.55-0.16-11.21-4.41-27.23-11.08-42.14-6.74-14.89-15.24-32.61-28.81-46.29-13.71-13.79-42.49-25.59-52.47-35.4-9.94-9.838-5.27-16.316-6.72-22.955-1.48-6.666 2.26-11.182-1.96-16.558-4.35-5.457-7.82-7.661-23.68-15.832-16.05-8.333-55.35-28.035-71.45-33.304-16.07-5.268-14.11-0.806-24.48 1.882-10.54 2.581-28.6 9.166-37.5 13.95-8.79 4.704-11.77 8.037-14.97 14.676-3.26 6.611-4.71 14.89-4.36 24.943z"/>
	<path id="path39" d="m202.65 74.264c-1.18-7.123-1.85-16.88-1.18-23.977 0.65-7.176 2.39-13.708 5.13-18.439 2.66-4.677 3.69-5.967 11.05-9.785 7.31-3.924 24.14-10.59 32.77-13.573 8.54-3.091 12.31-4.731 18.54-4.516 6.13 0.161 9.03 1.801 18.55 5.644 9.6 3.817 26.64 11.612 38.27 16.96 11.46 5.242 23.04 10.215 30.4 14.3 7.29 3.924 10.76 5.591 13.42 9.785 2.58 4.166 1.88 9.864 2.36 15.428 0.35 5.51-0.96 13.063 0.41 17.687 1.37 4.461 1.21 4.488 7.9 9.408 6.72 4.892 22.42 13.434 31.96 19.944 9.49 6.37 17.55 11.07 24.49 18.47 6.8 7.39 11.61 17.33 16.18 25.58 4.4 8.18 7.47 14.47 10.64 23.23 3.15 8.68 7.77 20.64 8.28 28.63 0.38 7.87-2.77 11.39-5.51 18.43-2.8 7.05-8.49 16.72-10.67 23.33-2.12 6.51-2.85 8.26-1.96 15.73 0.86 7.5 5.26 19.14 7.09 28.6 1.69 9.3 0.65 19.16 3.17 27.09 2.48 7.8 8.28 13.93 11.83 19.95 3.47 5.99 7.02 10.86 9.09 15.83 2.07 4.86 3.49 8.17 3.14 13.55-0.48 5.4-2.18 11.82-5.91 18.44-3.9 6.45-11.51 17.12-16.59 20.4-5.13 3.14-9.56-0.86-13.41-1.13-3.82-0.35-5.73-2.74-9.46-0.75-3.93 1.99-8.84 9.13-13.41 12.44-4.63 3.25-7.37 5.86-13.82 6.77-6.61 0.78-16.91-1.15-24.86-1.88-7.96-0.8-14.68-2.82-22.12-2.63-7.56 0.16-15.76 3.97-22.1 3.76-6.37-0.24-11.5-1.59-15.4-5.27-3.92-3.82-7.31-11.18-7.88-17.34-0.61-6.2 2.8-12.52 4.33-19.56 1.48-7.07 3.58-14.12 4.73-22.58 1.1-8.66-0.99-19.19 1.99-28.6 2.98-9.44 14.09-20.4 15.78-27.5 1.56-7.18-5.11-8.46-6.32-15.05-1.29-6.75-2.2-16.32-1.18-24.46 0.99-8.12 5.03-14.09 7.12-23.71 2.1-9.7 6.19-26.4 5.11-33.9-1.32-7.52-8.2-8.57-12.23-10.91-4.11-2.39-9.27 0.14-11.45-2.98-2.15-3.28 0.21-11.77-1.18-15.83-1.48-4.04-3.12-6.1-7.5-8.28-4.57-2.34-13.66-2.23-18.95-5.27-5.3-3.07-8.58-7.98-12.23-12.79-3.74-4.9-6.86-9.6-9.46-16.19-2.56-6.69-3.88-18.54-5.92-23.33-2.12-4.76-1.56-4.3-6.72-5.27-5.37-1.07-17.25-0.72-24.46-1.13-7.23-0.48-12.04 0.92-18.17-1.5-6.18-2.56-14.16-7.958-18.14-13.199-4.01-5.262-4.43-11.041-5.54-18.057z" stroke="#000" stroke-miterlimit="10" stroke-width=".036" fill="#ffb600"/>
	<path id="path41" stroke="#000" stroke-width=".036" stroke-miterlimit="10" d="m212.14 41.337c3.55-2.634 14.92-9.22 22.1-12.794 6.98-3.71 12.76-7.285 20.13-8.655 7.44-1.371 13.84-2.257 24.06 0.752 10.08 3.064 26.74 11.639 36.31 17.311 9.46 5.537 15.48 8.009 20.54 15.804 4.94 7.742 3.36 21.611 9.46 30.508 6.15 8.762 16.31 13.816 26.85 22.197 10.48 8.42 25.67 16.21 35.51 27.85 9.7 11.53 17.06 27.88 22.5 41.05 5.4 13.09 8.49 24.64 9.48 37.25 0.78 12.53-5.75 23.9-4.35 37.63 1.37 13.74 11.18 30.83 12.63 44.03 1.27 13.01-5.99 23.2-4.35 33.9 1.69 10.69 10.4 20.77 14.22 29.73 3.63 8.86 7.33 15.61 7.9 23.14 0.38 7.5-3.41 18.04-4.73 21.45-1.29 3.2-3.15 1.15-2.77-1.88 0.35-3.12 5-9.76 4.73-16.19-0.43-6.45-3.01-13.44-6.72-22.2-3.82-8.84-12.96-22.76-15.38-30.48-2.36-7.71 0.38-9.43 1.19-15.83 0.67-6.59 4.25-14.03 3.14-22.95-1.23-8.93-7.52-22.56-9.86-30.11-2.42-7.53-4.11-7.5-3.95-15.05 0.21-7.69 4.86-21.32 5.13-30.51 0.16-9.22-0.91-14.3-3.95-24.46-3.2-10.35-9.27-26.34-14.59-36.58-5.41-10.19-6.56-14.11-17.37-24.01-10.97-10-37.36-27.09-47.36-34.993-9.94-7.822-8.68-5.806-11.85-11.774-3.23-6.154-4.14-17.767-7.1-24.379-3.01-6.531-3.52-9.757-10.64-14.864-7.26-5.295-23.44-12.176-32.37-16.181-8.98-4.005-13.92-6.72-20.94-7.526-7.06-0.833-14 0.457-20.91 2.714-7.01 2.205-14.54 7.338-20.51 10.537-5.99 3.118-12.31 7.338-15 8.306-2.79 0.885-4.67-0.163-1.18-2.743z"/>
	<path id="path43" stroke="#000" stroke-width=".036" stroke-miterlimit="10" d="m222.38 53.486c5.14 0.404 19.14 1.318 30.81 5.646 11.66 4.328 30.05 14.729 38.67 20.32 8.42 5.537 4.79 8.628 12.24 12.794 7.49 4.086 24.05 5.457 32.36 11.664 8.14 6.19 10.8 17.29 16.58 25.21 5.7 7.88 8.23 14.06 17.74 21.86 9.6 7.68 31.13 14.3 39.08 24.08 7.77 9.73 7.13 22.23 7.5 33.87 0.22 11.53-5.34 22.44-5.51 35.02-0.13 12.47 3.42 27.69 4.73 39.51 1.27 11.67 4.22 17.72 2.74 30.49-1.64 12.74-11.18 31.58-12.22 45.64-1.05 14.03 5.32 30.88 5.94 37.92 0.51 6.91-0.81 9.39-2.4 3.39-1.69-6.34-7.2-27.52-7.09-39.89 0.1-12.36 5.64-23.89 7.9-33.14 2.15-9.27 5.21-11.51 5.13-21.83-0.19-10.45-4.49-28.84-5.94-39.8-1.45-10.97-3.22-17.23-2.74-25.32 0.4-8.07 4.22-14.55 5.14-22.96 0.78-8.58 1.74-20.11 0-27.85-1.83-7.77-3.31-12.25-10.68-18.44-7.5-6.29-25.94-13.35-33.54-18.73-7.64-5.4-6.4-5.78-11.86-13.25-5.53-7.64-14.4-24.92-20.91-31.53-6.58-6.64-11.91-5.4-18.14-7.9-6.35-2.531-14.49-4.09-19.35-7.181-4.79-3.226-5-8.118-9.47-11.666-4.51-3.575-10.4-5.94-17.77-9.489-7.63-3.602-18.54-9.354-26.82-11.96-8.28-2.662-18.38-2.769-22.12-3.844-3.73-1.128-5.19-3.144 0-2.634z"/>
	<path id="path45" stroke="#000" stroke-width=".036" stroke-miterlimit="10" d="m216.87 65.904c3.2 3.172 8.79 19.112 18.95 24.084 10.22 4.865 31.93 1.854 41.82 4.972 9.76 3.064 10.25 4.705 16.59 13.2 6.34 8.54 13.65 28.79 20.91 37.17 7.23 8.17 16.37 5.49 21.72 11.75 5.11 6.21 5.46 19.62 9.46 25.21 4.03 5.43 9.14 4.27 14.6 7.53 5.32 3.22 9.86 9.78 17.36 11.69 7.53 1.72 23.15-1.26 27.26-0.86 3.87 0.43 0.29 2.39-3.58 3.39-4 0.94-14 2.76-19.73 2.25-5.72-0.62-10.21-3.33-14.19-5.64-3.98-2.37-5.78-5.65-9.86-8.28-4.22-2.72-10.92-2.04-15-7.53-4.11-5.59-5.97-20.08-9.49-25.21-3.63-5.11-7.74-2.71-11.83-5.27-4.14-2.63-8.27-3.98-12.63-10.16-4.41-6.34-8.71-19.7-13.41-27.12-4.73-7.52-7.98-13.41-14.62-16.93-6.75-3.497-18.04-2.718-25.27-3.766-7.31-1.048-13.01-1.129-18.14-2.634-5.19-1.64-9.09-3.038-12.64-6.774-3.63-3.924-7.28-12.203-8.68-15.805-1.51-3.627-2.82-8.358 0.4-5.267z"/>
	<path id="path47" stroke="#000" stroke-width=".036" stroke-miterlimit="10" d="m374.36 222.56c0.18 5 7.98 24.32 6.69 37.66-1.42 13.25-13.41 28.22-14.6 41.39-1.18 13.04 8.82 20.13 7.5 36.53-1.53 16.4-14.08 51.72-15.77 60.96-1.64 8.92 2.6 3.9 5.91-6.77 3.25-10.89 12.39-42.5 13.41-57.2 0.81-14.65-7.87-21.1-7.9-30.13 0-9.09 5.4-16.16 7.9-23.71 2.42-7.66 6.32-12.98 6.72-21.45 0.22-8.58-3.06-22.69-4.76-28.98-1.66-6.29-5.4-13.17-5.1-8.3z"/>
	<path id="path49" stroke="#000" stroke-width=".036" stroke-miterlimit="10" d="m345.92 409.64c2.34 1.29 3.22 6.12 9.08 6.42 5.89 0.19 18.31-5.43 26.05-4.92 7.58 0.48 11.88 7.82 19.73 7.93 7.9 0 24.48-7.5 27.25-7.55 2.53-0.14-6.37 5.54-11.45 7.18-5.13 1.66-13.49 3.3-18.95 2.63-5.51-0.83-8.97-6.51-13.81-7.15-4.92-0.67-9.92 2.53-15.4 3.39-5.7 0.72-13.07 3.09-17.74 1.5-4.68-1.61-9.12-9.41-9.9-10.94-0.75-1.61 2.69 0.14 5.14 1.51z"/>
	<path id="path51" stroke="#000" stroke-width=".036" stroke-miterlimit="10" d="m377.9 403.99c-1.1 2.93-4.24 12.15-4.35 14.3-0.13 2.1 2.39 0.92 3.55-1.88 1.07-3.01 2.55-13.33 2.77-15.43 0.05-2.04-0.92 0.03-1.97 3.01z"/>
	<path id="path53" stroke="#000" stroke-width=".036" stroke-miterlimit="10" d="m394.33 409.34c-1.86 2.58-7.26 10.81-7.9 12.85-0.67 1.96 2.12 1.53 3.92-0.99 1.77-2.64 5.94-12.34 6.69-14.3 0.62-2.02-0.94-0.17-2.71 2.44z"/>
	<path id="path55" stroke="#000" stroke-width=".036" stroke-miterlimit="10" d="m236.2 115.12c2.93-0.51 8.68-0.27 13.41 0 4.6 0.24 12.1 0.78 14.22 1.51 2.04 0.64 1.43 1.88-1.96 2.25-3.58 0.22-13.52-0.59-18.55-0.75-5.02-0.21-9.89 0.11-11.07-0.37-1.24-0.57 1.05-2.21 3.95-2.64z"/>
	<path id="path57" stroke="#000" stroke-width=".036" stroke-miterlimit="10" d="m267.38 118.88c0 1.24 0.88 2.26 1.99 2.26 1.07 0 1.96-1.02 1.96-2.26 0-1.23-0.89-2.25-1.96-2.25-1.11 0-1.99 1.02-1.99 2.25z"/>
	<path id="path59" stroke="#000" stroke-width=".036" stroke-miterlimit="10" d="m300.55 172.35c1.8 0.19 6.26 2.82 9.46 3.76 3.22 0.81 7.63 0.75 9.49 1.51 1.69 0.77 2.47 2.71 0.78 3.01-1.94 0.13-7.83-0.94-11.46-1.89-3.57-1.02-8.52-2.68-9.86-3.76-1.37-1.1-0.32-2.85 1.59-2.63z"/>
	<path id="path61" d="m195.56 58.379c-3.87-5.349-7.99-10.134-12.64-14.677-4.65-4.596-9.54-9.918-15-12.445-5.53-2.553-12.68-3.468-18.14-2.635-5.62 0.753-10.86 3.118-15 7.526-4.22 4.462-4.94 13.063-9.86 18.843-5.03 5.726-14.41 10.778-19.73 15.053-5.351 4.085-9.168 5.51-11.856 9.784-2.661 4.248-3.495 10.832-3.951 15.805-0.564 4.947-0.296 9.327 0.807 13.547-12.042 5.97-21.315 11.83-28.438 17.69-7.124 5.83-11.558 8.71-13.816 17.33-2.258 8.61 1.371 23.66 0.402 33.87-1.075 10.05-3.413 16.1-6.719 26.34-3.468 10.33-9.973 25.43-13.413 34.73-3.521 9.09-6.37 12.45-7.096 19.95-0.699 7.5 2.365 17.71 2.769 24.83 0.269 6.96 0.619 9.87-0.806 17.31-1.559 7.42-4.569 17.39-7.875 27.12-3.36 9.76-10.188 22.5-11.854 30.86-1.613 8.23-0.807 11.75 1.989 18.44 2.876 6.69 9.246 14.76 14.972 21.07 5.645 6.1 11.934 11.72 18.574 15.83 6.532 4.09 14.3 6.94 20.509 8.66 6.182 1.72 12.095 2.66 16.181 1.59 3.924-1.22 4.973-5.46 7.499-8.28 2.393-2.91 0.995-5.86 7.124-8.66 6.182-2.79 20.748-5.08 29.598-8.01 8.68-2.95 17.28-5.21 22.49-9.78 5.14-4.71 7.93-9.41 8.28-18.07 0.22-8.76-2.34-22.6-6.31-33.86-4.06-11.43-12.96-23.5-17.37-33.52-4.41-10-7.58-17.69-8.68-25.97-1.13-8.41-1.02-16.18 1.99-23.71 3.04-7.55 11.83-16.12 15.78-21.07 3.76-5.03 5.64-4.38 7.09-8.65 1.4-4.25 1.48-8.31 1.59-16.96 0.03-8.93-2.45-26.1-1.18-35.46 1.23-9.27 4.16-12.39 8.68-19.94 4.46-7.72 13.76-18.58 18.14-25.62 4.17-7.07 5.94-10.32 7.5-16.18 1.53-5.91-0.05-14.328 1.99-18.817 2.02-4.516 7.02-5.214 10.24-7.902 3.17-2.742 7.66-3.951 8.68-8.279 0.92-4.406-0.13-10.158-3.14-17.683z" stroke="#000" stroke-miterlimit="10" stroke-width=".036" fill="#ffb600"/>
	<path id="path63" stroke="#000" stroke-width=".036" stroke-miterlimit="10" d="m183.73 51.981c-2.99-2.15-12.2-8.439-18.95-10.16-6.72-1.72-15.3-2.688-20.94 0-5.64 2.58-7.04 5.806-13.01 15.805-6.15 10.107-14.19 31.906-23.28 44.034-9.19 12.01-22.495 18.54-30.801 27.46-8.333 8.85-16.343 17.13-18.547 25.24-2.204 8.07 4.167 19.12 5.537 22.58 1.344 3.26 2.823 0.65 2.366-2.63-0.564-3.36-6.209-11.32-5.537-16.93 0.618-5.65 3.683-10.06 9.489-16.56 5.806-6.7 18.089-15.78 25.239-22.61 7.064-6.8 11.424-9.38 16.984-17.69 5.46-8.462 11-23.138 15.78-31.981 4.68-8.897 8.2-16.02 12.64-20.321 4.38-4.273 8.84-4.838 13.81-4.892 4.92-0.081 11.18 2.634 15.78 4.516 4.57 1.828 9.11 5.617 11.45 6.397 2.23 0.591 4.73-0.161 1.99-2.258z"/>
	<path id="path65" stroke="#000" stroke-width=".036" stroke-miterlimit="10" d="m188.06 59.131c-4.06-0.915-18.92-3.092-26.05-1.882-7.2 1.237-10.11 0.646-16.58 9.409-6.59 8.843-15.89 25.804-22.1 42.902-6.26 17.06-7.52 40.91-15 58.35-7.63 17.26-23.328 30.81-29.994 44.78-6.72 13.9-10.591 22.82-9.865 38.49 0.726 15.75 12.687 38.63 14.219 54.94 1.397 16.19-3.252 28.09-5.537 41.42-2.366 13.26-9.408 28.5-8.279 37.64 1.102 9 12.284 13.95 14.999 16.18 2.634 2.04 2.312-1.64 0.78-3.39-1.693-1.8-7.983-4.08-10.268-7.15-2.312-3.14-3.978-4.97-3.145-11.29 0.941-6.5 6.021-18.38 8.279-26.72 2.07-8.27 3.172-14.22 4.354-22.57 1.103-8.5 3.548-18.69 2.366-27.88-1.237-9.33-6.989-18.36-9.489-27.09-2.526-8.74-5.537-16.18-5.51-24.84-0.027-8.73 1.398-17.61 5.51-27.12 4.113-9.65 13.574-22.18 18.95-30.11 5.3-7.95 8.92-10.26 12.63-17.39 3.58-7.2 6.29-14.73 9.09-25.58 2.77-11.05 3.92-28.44 7.5-39.54 3.49-11.133 9.24-18.981 13.41-26.346 4.06-7.365 7.5-13.279 11.05-17.31 3.38-4.139 4.94-5.672 9.86-6.774s15.27 0.027 19.73 0.376c4.41 0.242 5.16 1.747 6.72 1.506 1.51-0.296 6.24-2.231 2.37-3.011z"/>
	<path id="path67" stroke="#000" stroke-width=".036" stroke-miterlimit="10" d="m190.42 68.539c-4.32 0.376-18.57 0.672-24.08 6.397-5.43 5.806-5.7 19.407-8.28 27.844-2.69 8.31-3.01 13.44-7.5 21.83-4.65 8.23-16.23 17.31-19.73 27.87-3.44 10.62-0.83 24.62-1.18 35.38-0.46 10.64 1.5 20.05-1.59 28.22-3.22 8.01-11.15 14.84-17.36 19.97-6.24 5.08-17.444 8.63-19.729 10.54-2.365 1.93 1.881 2.25 5.913 0.75 4.056-1.75 12.876-6.5 18.166-10.54 5.17-4.08 10.08-8.52 13.01-13.2 2.85-4.56 3.69-6.15 4.36-14.29 0.56-8.39-0.65-25.86-0.4-35 0.18-9.11 0.56-14.35 1.96-19.57 1.31-5.32 2.9-7.23 6.31-12.04 3.42-4.89 10.54-11.13 13.82-16.96 3.15-5.92 3.33-11.21 5.13-18.06 1.75-6.94 3.63-17.53 5.54-22.961 1.88-5.456 2.47-7.284 5.91-9.407 3.44-2.15 11.08-2.93 14.6-3.387 3.41-0.484 4.97 0.888 5.91 0.376 0.89-0.618 3.26-4.219-0.78-3.762z"/>
	<path id="path69" stroke="#000" stroke-width=".036" stroke-miterlimit="10" d="m60.569 198.39c-2.312 8.09-5.51 27.39-10.644 45.16-5.242 17.82-15.617 43.25-20.133 60.61-4.542 17.18-7.365 29.33-6.72 42.15 0.672 12.74 5.887 26.77 10.671 33.89 4.677 6.94 12.741 8.71 17.364 7.91 4.569-0.97 8.79-11.02 9.865-13.17 0.914-2.15-2.338-1.13-3.951 0.37-1.613 1.51-3.306 6.83-5.914 8.28-2.822 1.27-6.934 2.31-10.268-0.37-3.359-2.83-7.096-9.2-9.461-15.81-2.446-6.67-4.758-14.68-4.758-23.73 0.027-9.14 1.748-18.2 4.758-30.48 2.903-12.48 8.736-30.4 12.633-42.9 3.763-12.45 7.042-20.73 10.241-31.26 3.171-10.68 7.069-24.65 8.682-31.99 1.398-7.37 0.806-10.21 0.403-11.67-0.403-1.5-0.564-5.02-2.768 3.01z"/>
	<path id="path71" stroke="#000" stroke-width=".036" stroke-miterlimit="10" d="m106.75 258.6c-0.33 6.26-0.7 26.59 1.99 38.04 2.74 11.39 9.27 20.72 14.19 29.73 4.84 8.84 12.5 15.13 14.59 23.33 1.88 8.2-2.66 20.48-2.74 25.24-0.11 4.51 1.48 4.78 2.37 2.25 0.91-2.68 2.28-12.17 2.77-17.68 0.4-5.49 1.72-9.79-0.41-15.08-2.34-5.43-8.79-9.97-13.03-16.94-4.25-7.12-9.33-16.74-12.23-24.83-2.91-8.15-4.52-16.13-5.14-23.33-0.61-7.29 1.51-16.11 1.19-19.6-0.52-3.47-3.28-7.34-3.55-1.13z"/>
	<path id="path73" stroke="#000" stroke-width=".036" stroke-miterlimit="10" d="m20.707 388.29c3.844 4.6 13.574 15.89 20.913 20.7 7.284 4.71 17.391 6.59 22.121 7.53 4.57 0.8 7.15-1.29 5.134-2.26-2.231-1.08-12.096-1.26-17.768-3.76-5.698-2.61-10.482-6.51-15.805-11.29-5.537-4.9-13.627-15.43-16.181-17.31-2.5-1.8-2.177 1.74 1.586 6.39z"/>
	<path id="path75" stroke="#000" stroke-width=".036" stroke-miterlimit="10" d="m35.302 392.46c-0.483 2.69-1.935 11.26-1.666 13.17 0.242 1.77 2.258 0.54 2.849-2.15 0.457-2.71 0.242-12.12 0.081-13.92-0.242-1.83-0.807 0.11-1.264 2.9z"/>
	<path id="path77" stroke="#000" stroke-width=".036" stroke-miterlimit="10" d="m43.984 400.01c-0.484 2.72-1.936 11.21-1.667 13.15 0.242 1.77 2.258 0.54 2.85-2.15 0.429-2.72 0.295-12.12 0.107-13.93-0.241-1.77-0.806 0.14-1.29 2.93z"/>
	<path id="path79" stroke="#000" stroke-width=".036" stroke-miterlimit="10" d="m127.82 258.74c0.4-2.83 1.24-5.92 3.23-8.66 1.91-2.74 6.93-6.85 8.54-7.66 1.59-0.86 2.53 0.27 1.08 2.55-1.59 2.18-8.12 7.1-10.16 10.73-2.07 3.6-1.72 10.1-2.15 10.7-0.51 0.4-0.97-4.92-0.54-7.66z"/>
</g>
<metadata><rdf:RDF><cc:Work><dc:format>image/svg+xml</dc:format><dc:type rdf:resource="http://purl.org/dc/dcmitype/StillImage"/><cc:license rdf:resource="http://creativecommons.org/licenses/publicdomain/"/><dc:publisher><cc:Agent rdf:about="http://openclipart.org/"><dc:title>Openclipart</dc:title></cc:Agent></dc:publisher><dc:title>Lady Face Cartoon</dc:title><dc:date>2006-11-13T11:00:16</dc:date><dc:description>Uploaded by "World Label" for conversion to SVG and publication on OCAL.</dc:description><dc:source>http://openclipart.org/detail/1398/lady-face-cartoon-by-gerald_g-1398</dc:source><dc:creator><cc:Agent><dc:title>Gerald_G</dc:title></cc:Agent></dc:creator><dc:subject><rdf:Bag><rdf:li>cartoon</rdf:li><rdf:li>clip art</rdf:li><rdf:li>clipart</rdf:li><rdf:li>externalsource</rdf:li><rdf:li>face</rdf:li><rdf:li>lady</rdf:li><rdf:li>people</rdf:li><rdf:li>remix</rdf:li><rdf:li>woman</rdf:li><rdf:li>worldlabel</rdf:li></rdf:Bag></dc:subject></cc:Work><cc:License rdf:about="http://creativecommons.org/licenses/publicdomain/"><cc:permits rdf:resource="http://creativecommons.org/ns#Reproduction"/><cc:permits rdf:resource="http://creativecommons.org/ns#Distribution"/><cc:permits rdf:resource="http://creativecommons.org/ns#DerivativeWorks"/></cc:License></rdf:RDF></metadata></svg>
