<?xml version="1.0" encoding="UTF-8" standalone="no"?>
<!-- Created with Inkscape (http://www.inkscape.org/) -->

<svg
   xmlns:dc="http://purl.org/dc/elements/1.1/"
   xmlns:cc="http://creativecommons.org/ns#"
   xmlns:rdf="http://www.w3.org/1999/02/22-rdf-syntax-ns#"
   xmlns:svg="http://www.w3.org/2000/svg"
   xmlns="http://www.w3.org/2000/svg"
   xmlns:sodipodi="http://sodipodi.sourceforge.net/DTD/sodipodi-0.dtd"
   xmlns:inkscape="http://www.inkscape.org/namespaces/inkscape"
   width="210mm"
   height="297mm"
   viewBox="0 0 744.09448819 1052.3622047"
   id="svg32911"
   version="1.1"
   inkscape:version="0.91 r"
   sodipodi:docname="hitler_head.svg">
  <defs
     id="defs32913" />
  <sodipodi:namedview
     id="base"
     pagecolor="#ffffff"
     bordercolor="#666666"
     borderopacity="1.0"
     inkscape:pageopacity="0.0"
     inkscape:pageshadow="2"
     inkscape:zoom="0.35"
     inkscape:cx="325"
     inkscape:cy="520"
     inkscape:document-units="px"
     inkscape:current-layer="layer1"
     showgrid="false"
     inkscape:window-width="1366"
     inkscape:window-height="719"
     inkscape:window-x="0"
     inkscape:window-y="25"
     inkscape:window-maximized="1" />
  <metadata
     id="metadata32916">
    <rdf:RDF>
      <cc:Work
         rdf:about="">
        <dc:format>image/svg+xml</dc:format>
        <dc:type
           rdf:resource="http://purl.org/dc/dcmitype/StillImage" />
        <dc:title></dc:title>
      </cc:Work>
    </rdf:RDF>
  </metadata>
  <g
     inkscape:label="Layer 1"
     inkscape:groupmode="layer"
     id="layer1">
    <path
       style="fill:#000000;fill-rule:evenodd;stroke:none;stroke-width:1px;stroke-linecap:butt;stroke-linejoin:miter;stroke-opacity:1"
       d="m 336.99608,125.55613 c -107.9351,0.55698 -226.5659,90.25188 -229.88279,225.57031 -2.14286,17.85715 2.14453,75 2.14453,75 l 3.21289,38.21485 c 0,0 -2.85575,1.42801 -8.21289,-0.71485 -5.357154,-2.14286 -15.001124,-1.42884 -18.929694,-0.35742 -3.92858,1.07143 -7.8563,4.28739 -11.42773,14.64453 -3.57142,10.35714 1.78599,38.57004 7.85742,48.21289 6.07143,9.64287 16.07059,26.42913 18.927734,33.21485 2.85714,6.78571 4.64314,28.92913 5.35742,33.21484 0.71429,4.28572 1.78601,15.71429 7.85743,25 6.07143,9.28572 8.92885,8.21289 12.85742,8.21289 3.92857,0 7.5,-3.57031 7.5,-3.57031 l 4.28515,20.35742 c 0,0 2.49944,6.42885 14.28516,52.85742 11.78571,46.42858 34.28516,78.92774 34.28516,78.92774 0,0 15.71569,23.57171 29.28711,40.35742 13.57138,16.78571 30.71488,26.78571 45.71488,35 15,8.21429 28.5703,12.85743 28.5703,12.85743 0,0 25.7151,11.42857 43.5722,20 17.8572,8.57143 71.4278,8.57031 71.4278,8.57031 l 16.4277,2.14258 c 16.4286,2.14286 49.2859,-14.28461 77.8574,-38.57032 28.5714,-24.28571 52.1428,-66.42828 65,-87.14257 12.8571,-20.71429 17.1431,-59.28628 17.8575,-65.71485 0.7143,-6.42857 7.8582,-69.28516 11.4296,-69.28516 3.5714,0 11.7852,-3.21484 11.7852,-3.21484 5.7143,-2.85715 10,-21.42942 10,-26.07227 0,-4.64286 4.6432,-32.14229 7.8574,-39.28515 3.2143,-7.14285 10.7137,-19.64202 11.7852,-23.92774 1.0714,-4.28571 9.642,-33.21484 11.4277,-50.71484 1.7857,-17.5 -14.6428,-26.42885 -22.5,-27.85742 -7.8571,-1.42857 -12.5,-1.07032 -12.5,-1.07032 -6.4285,-3.57143 1.4292,-27.14286 0.7149,-35 -0.7144,-7.85714 1.4285,-82.14342 0,-95.71484 -1.4286,-13.57143 -6.429,-34.28627 -12.8575,-50.71484 -6.4286,-16.42857 -23.5703,-44.28516 -38.5703,-59.28516 -15,-15 -12.1431,-17.14369 -72.8574,-53.57227 -60.7143,-36.42857 -75.7149,-33.57142 -135.7148,-40 -5.2416,-0.40897 -10.5238,-0.5977 -15.8321,-0.57031 z m 90.6348,26.86914 c 1.6398,0.0828 3.0606,0.81058 5.9609,1.39063 3.788,0.75762 5.0504,9.8e-4 6.0606,1.26367 1.0101,1.26269 -1.262,2.52403 0.5058,4.79687 1.7677,2.27285 4.0393,0.75783 4.7969,3.28321 0.7576,2.52538 2.5268,4.04003 -2.2715,2.77734 -4.7982,-1.26269 -4.7997,-5.04902 -7.8301,-3.28125 -3.0305,1.76776 -6.5655,3.02911 -3.5351,4.79688 3.0305,1.76777 5.5559,1.26289 5.0508,3.2832 -0.5051,2.02048 -2.5256,2.7791 -5.8086,2.02148 -3.283,-0.75761 -5.5549,-4.29433 -6.3125,-2.02148 -0.7577,2.27284 10e-5,2.27266 2.5254,4.29297 2.5254,2.0203 5.5562,1.26349 1.5156,3.03125 -4.0406,1.76777 -5.3043,-1.2623 -6.3145,1.51562 -1.0101,2.77792 0.2525,3.0299 2.5254,5.30274 2.2728,2.27285 3.5346,3.2836 6.3125,4.79883 9.1093,5.05229 -0.5466,4.0766 -2.7773,3.53515 -5.3033,-1.26269 -8.8381,-2.27305 -12.1211,-3.2832 -3.283,-1.01016 -5.8083,-1.51523 -9.3438,-2.52539 -3.5355,-1.01015 -6.5666,-3.28319 -7.3242,-0.75781 -0.7576,2.52538 3.2834,3.78809 1.5156,5.05078 -1.7678,1.26269 -5.5554,0.5045 -6.0605,2.77734 -0.5051,2.27285 2.7769,3.03087 1.2617,4.04102 -1.5152,1.01015 -3.536,1.01093 -6.5664,0.50586 -3.0304,-0.50508 -4.7982,-1.51563 -7.5762,-1.51563 -2.7779,0 -4.2914,-1.00995 -5.8066,0.75781 -1.5153,1.76777 -0.7593,4.2918 0.7559,4.79688 1.5152,0.50507 3.2841,0.75821 7.0722,2.27344 3.5266,1.82242 17.5157,6.52949 7.0703,6.81836 -3.0304,0 -8.0814,-1.0088 -10.8593,-2.27149 -2.7779,-1.26269 -4.2931,-2.77812 -6.8184,-3.2832 -2.5254,-0.50507 -4.5461,-0.75859 -6.5664,-1.26367 -2.0203,-0.50507 -5.0508,-2.27344 -5.0508,-2.27344 0,0 -0.7562,-1.51427 2.7793,-3.78711 3.5354,-2.27285 -2.7784,-4.54649 0.252,-5.55664 3.0304,-1.01015 6.8187,-1.76699 10.8593,-2.01953 4.0406,-0.25254 6.8174,-0.25294 8.0801,-1.51563 1.2627,-1.26269 2.5262,-2.77734 0.5059,-2.77734 -2.0203,0 -5.8086,-0.25195 -5.8086,-0.25195 0,0 -3.03,-2.02052 1.5156,-3.28321 4.5457,-1.26269 8.3334,-2.52656 11.1113,-2.02148 2.7779,0.50507 5.052,5.8e-4 9.5977,-0.25195 4.5457,-0.25255 6.061,0.50565 7.5762,-0.25196 1.5137,-0.75762 3.0289,-1.01075 1.5136,-2.27344 -1.5152,-1.2627 -3.7882,-1.01016 -3.2832,-2.52539 0.5051,-1.51522 4.2946,-1.2627 5.3047,-2.52539 1.0102,-1.26269 4.2935,-2.27266 1.5156,-4.29297 -2.7779,-2.0203 -5.0525,-2.52637 -6.8203,-3.78906 -1.7677,-1.26269 -5.3031,-1.01016 -4.2929,-2.52539 1.0102,-1.51523 4.5455,-2.77715 6.8183,-2.01953 2.2729,0.75761 1.7688,1.01035 6.3145,0.75781 4.5457,-0.25254 7.0703,-2.02069 9.5957,-1.51562 2.5254,0.50508 4.5454,-0.25157 4.2929,-1.26172 -0.2526,-1.01015 -0.2511,-0.50509 -2.2714,-2.52539 -2.0203,-2.02031 -3.2832,-3.78789 -0.7579,-4.29297 0.3158,-0.0632 0.611,-0.10385 0.8946,-0.12305 0.2481,-0.0168 0.4864,-0.0177 0.7207,-0.006 z m -71.3164,66.04102 c 2.0203,0 7.3242,0.25137 9.8496,0.50391 2.5253,0.25291 5.5564,-1.00879 7.3242,0.2539 1.7678,1.26269 5.8071,3.02891 7.3223,4.03906 1.5152,1.01015 1.7678,2.02188 0,3.53711 -1.7678,1.51523 -5.302,-5.7e-4 -4.7969,2.77735 0.505,2.77792 5.0496,4.29316 5.5547,5.05078 0.5051,0.75761 3.0312,2.02051 0.5058,3.2832 -2.5254,1.26269 -3.0304,-0.50586 -5.0507,-0.50586 -2.0203,0 -7.0723,2e-4 -9.5977,0.75781 -5.194,2.58205 -9.2572,2.68152 -15.1523,5.55665 -1.2626,-1.01015 -0.7563,-3.28419 -2.2715,-4.54688 -1.5153,-1.26269 -1.5168,-2.01972 -3.5371,-2.77734 -2.0203,-0.75761 -5.5541,-0.25314 -3.2813,-2.27344 2.2728,-2.02031 7.0703,-0.75723 9.5957,-1.00977 2.5254,-0.25254 4.7991,0.50488 8.0821,-0.75781 3.283,-1.26269 5.3025,-1.01016 4.5449,-2.52539 -0.7576,-1.51523 -3.535,-3.7873 -5.3028,-4.54492 -1.7677,-0.75761 -4.5467,-2.52521 -6.3144,-4.29297 -1.7678,-1.76777 0.5051,-2.52539 2.5254,-2.52539 z M 160.0918,247.25535 c 2.02049,0 2.02149,1.26172 2.02149,1.26172 0,0 -1.26329,5.80997 -2.27344,8.58789 -1.01015,2.77792 -1.76681,6.31308 -3.78711,6.06055 -2.02031,-0.25254 -2.27326,-5.55645 -4.04102,-7.32422 -1.76777,-1.76777 -2.02069,-4.29317 1.00977,-5.05078 3.03046,-0.75762 5.05,-3.53516 7.07031,-3.53516 z m 212.56058,2.09961 c 2.6655,-0.15883 4.6537,1.2785 6.6425,1.94141 2.2728,0.75762 4.0417,2.02032 6.3145,2.52539 2.2729,0.50508 -1.0101,1.7664 -2.5254,2.27148 -1.5153,0.50507 -4.2941,-1.9e-4 -6.3144,-0.75781 -2.0203,-0.75761 -3.283,1.01192 -5.0508,1.76953 -1.7677,0.75786 -4.5449,0.75586 -6.3125,0.75586 -1.7678,0 -2.2727,1.51543 -4.293,3.2832 -2.0203,1.76777 2.2734,3.03125 2.2734,3.03125 0,0 2.5249,-3.8e-4 5.3028,1.00977 2.7779,1.01015 1.2633,1.76837 2.2734,2.27344 1.0102,0.50508 3.7873,1.26308 7.0703,1.51562 3.283,0.25254 1.516,1.76797 0.5059,3.2832 -1.0102,1.51523 -2.778,-0.75938 -5.0508,-1.76953 -2.2729,-1.01015 -3.7897,-0.50431 -6.0625,-2.01953 -2.2728,-1.51523 -3.2819,-1.00976 -5.5547,-1.00976 -2.2728,0 -5.0518,-1.51603 -8.8398,-3.03125 -3.7881,-1.51523 -5.5553,-1.26192 -7.8281,-2.01953 -2.2729,-0.75762 -8.8399,-2.77833 -8.8399,-4.04102 0,-1.26269 4.7998,-1.26192 6.0625,-2.01953 1.2627,-0.75762 4.7982,-1.76758 7.5762,-1.76758 2.7779,0 6.0612,0.50391 8.334,0.50391 2.2729,0 6.0595,-0.75684 7.3222,-2.01954 1.2627,-1.26268 2.5256,-2.77754 5.8086,-3.53515 0.4103,-0.0947 0.8048,-0.15113 1.1856,-0.17383 z"
       id="path32281"
       inkscape:connector-curvature="0" />
    <path
       style="fill:#d3a189;fill-opacity:1;fill-rule:evenodd;stroke:none;stroke-width:1px;stroke-linecap:butt;stroke-linejoin:miter;stroke-opacity:1"
       d="m 183.9004,243.62644 c -1.07142,0 -5.71373,6.42913 -6.78516,10.71485 -1.07143,4.28571 2.49916,2.14258 1.42773,4.64258 -1.07143,2.5 -3.9294,13.92884 -6.07226,17.85742 -2.14285,3.92857 -9.64258,17.85742 -9.64258,17.85742 0,0 -6.07058,7.85714 -11.42773,7.5 -5.35714,-0.35714 -5.35687,1.42777 -7.14258,1.42773 -1.78572,0 -4.64342,9.64258 -5.71485,12.14258 -1.07143,2.5 -3.92828,8.9283 -4.64257,12.14258 -0.71428,3.21429 -2.14397,7.50112 -3.92969,11.42969 -1.78571,3.92857 -2.85547,9.64233 -2.85547,11.78515 0,2.14286 -2.50084,7.50112 -3.57227,11.42969 -1.07143,3.92857 -0.35714,12.14203 -2.5,16.42774 -2.14286,4.28571 5.6e-4,13.21457 -1.78515,17.85742 -1.78572,4.64286 -1.07282,12.85662 -1.78711,16.78515 -0.71428,3.92857 -1.07004,10.71485 -3.21289,13.21485 -2.14286,2.5 -1.78711,7.14258 -1.78711,7.14258 l 2.14453,22.85742 c 1.42857,0.71429 1.78431,7.85715 3.21289,12.5 1.42857,4.64286 0.71456,16.78518 2.85742,31.78515 2.14286,15 7.14258,39.64231 12.14258,84.28516 5,44.64286 22.14258,102.5 22.14258,100 0,-2.5 5.5e-4,5.5e-4 13.21484,40.71484 13.21428,40.71431 34.64286,64.28516 50,84.28516 15.35713,20 30.71373,26.78571 34.64263,30 3.9284,3.21429 28.9288,13.92914 37.8574,18.21485 8.9285,4.28572 33.2151,3.57198 53.5722,3.21484 20.3572,-0.35715 47.1417,-6.78515 53.5704,-9.28515 6.4284,-2.5 18.2157,-7.5014 21.7871,-9.28711 3.5715,-1.78572 11.7851,-10.35631 14.2851,-13.92774 0.098,-0.13997 0.2093,-0.34638 0.3106,-0.5039 4.828,-1.99585 12.269,-7.69486 16.4922,-10.51368 5.6105,-3.74521 2.7679,-1.19954 12.4199,-4.72265 9.6519,-3.52315 12.8633,-12.80469 12.8633,-12.80469 0,0 7.0689,-5.69302 7.291,-9.73437 0.2221,-4.04136 9.2665,-21.10832 10.7617,-23.72852 1.495,-2.62021 3.0941,-19.42308 6.2695,-28.03125 3.1753,-8.6082 7.1803,-7.71283 7.4395,-12.42774 0.2591,-4.7149 3.3973,-12.64848 6.6836,-23.27734 2.8076,-9.08013 3.2426,-19.75981 4.8222,-27.23242 2.3498,-1.07467 3.6779,-3.64705 5.0039,-5.23829 1.7857,-2.14286 2.4988,-9.28599 3.5704,-15.35742 1.0711,-6.07143 3.2151,-6.07031 3.5722,-13.57031 0.3572,-7.5 0.7132,-18.57227 1.4278,-21.07227 0.714,-2.5 -0.7129,-3.92884 -3.2129,-7.85742 -2.5,-3.92857 -6.0718,-4.99943 -10.3575,-9.28515 -4.2857,-4.28571 -1.071,-6.78488 0.3575,-11.42774 1.4286,-4.64286 4.9996,-4.64342 7.1425,-8.21484 2.1428,-3.57143 6.7847,-7.50054 8.5704,-10.71485 1.7853,-3.21429 5.7148,-10.35685 8.2148,-14.64257 2.5,-4.28571 2.8574,-10 5.3574,-15 2.5,-5 0.7149,-10.35631 3.2149,-16.42774 2.5,-6.07143 1.7853,-17.14397 2.1425,-21.42969 0.3571,-4.28572 0.7129,-8.92855 0.7129,-15 0,-6.07143 -0.7131,-7.49888 -1.0703,-13.57031 -0.1422,-2.41717 -0.2787,-4.83095 -0.3984,-7.38281 -3.4653,-0.26749 -6.9649,-0.55661 -8.1738,-2.97461 -1.786,-3.57143 -2.4995,-9.64286 -4.2852,-7.5 -1.7857,2.14285 -6.0711,9.64313 -9.6426,17.85742 -3.5714,8.21428 -5.0003,13.9269 -0.3574,17.85547 4.6429,3.92857 11.4283,7.50167 9.6426,9.64453 -1.7858,2.14286 -9.6435,3.57032 -13.2149,3.57031 -3.5715,0 -8.5706,1.786 -6.4277,5.35743 2.1429,3.57143 7.5009,8.21403 3.5723,9.64257 -3.9285,1.42857 -7.1432,2.50056 -10.3575,0.71485 -3.2143,-1.78572 -4.3107,-3.15882 -7.1425,-1.07227 -6.7857,5.00001 -4.2873,1.42857 -6.7871,5 -2.5,3.57143 -1.4276,3.57171 -6.0704,2.85742 -4.6429,-0.71429 -4.6434,0.35715 -8.2148,-2.5 -3.5714,-2.85714 -4.2848,-6.42773 -6.4277,-6.42773 -2.1428,0 -8.9303,-0.71512 -12.1446,1.42773 -3.2143,2.14286 -3.9274,5.00112 -8.5703,3.92969 -4.6428,-1.07143 -8.2154,0.71373 -11.4297,-0.71484 -3.2143,-1.42858 -6.4268,-2.8577 -5.3554,-5.71485 1.0715,-2.85714 2.5,-2.14174 7.5,-3.57031 5,-1.42857 8.2139,-1.78681 12.1425,-3.92969 3.9286,-2.14285 9.2843,-4.28488 8.5704,-6.42773 -0.7147,-2.14286 -1.0704,-2.14258 -1.0704,-2.14258 0,0 -3.2151,-2.14286 -6.0722,0 -2.8572,2.14286 -5.3566,3.57004 -11.7852,5.71289 -6.4285,2.14286 -12.1431,2.14369 -17.8574,1.07227 -5.7143,-1.07144 -10.0003,-2.50112 -12.8574,-6.42969 -2.8572,-3.92857 -2.8572,-4.64258 -5,-7.14258 -2.1429,-2.5 -3.5721,-2.14285 -5.7149,0 -2.1429,2.14286 -5.3554,7.5 -5.3554,7.5 0,0 -2.1443,3.57143 -6.7871,2.5 -4.6432,-1.07142 -7.8563,0.35715 -8.9278,2.5 -1.0714,2.14286 -3.5708,4.28655 -6.7851,3.57227 -3.2143,-0.71429 -3.9297,-3.57227 -3.9297,-3.57227 0,0 -4.2846,-5.71401 -6.0703,-2.14258 -1.7857,3.57144 -2.8589,10.00056 -7.1446,10.71485 -4.2857,0.71428 -2.8563,-3.2154 -6.4277,-1.42969 -3.5715,1.78572 -4.2852,2.14286 -6.7852,0 -2.5,-2.14285 -6.786,3.21568 -5.3574,-0.71289 1.4286,-3.92857 4.6423,-6.42969 6.7852,-8.92969 2.1428,-2.5 -0.3563,-8.57031 1.0722,-11.07031 1.4286,-2.5 8.2132,-5.00027 8.5704,-7.85742 0.3568,-2.85714 -2.5,-3.57171 -2.5,-7.85742 0,-4.28571 -4.2852,-6.07088 -6.7852,-6.78516 -2.5,-0.71429 -6.786,-2.14397 -7.8574,-3.92969 -1.0715,-1.78571 3.5717,-4.28487 7.8574,-6.42773 4.2857,-2.14285 39.2857,-10.71512 45,-11.07227 5.7143,-0.35714 23.2152,-7.49944 31.0723,-9.28515 7.8572,-1.78571 14.6423,1.07059 19.2851,1.42773 4.6429,0.35714 7.1426,-0.35575 9.6426,1.78711 2.5,2.14285 5.3562,4.64146 8.9277,3.21289 3.5714,-1.42857 2.5014,-2.14174 6.7871,-1.07031 4.2857,1.07143 18.9278,3.92829 23.9278,2.14258 5,-1.78571 16.7869,-2.50056 18.9297,-3.21485 2.1429,-0.71428 2.4982,-2.14146 5.3554,-5.71289 2.8571,-3.57143 3.2161,-9.64397 7.1446,-8.92969 3.9286,0.71428 4.6425,5.00029 7.1425,5.35743 2.5,0.35714 4.2852,-2.14258 6.7852,0.35742 2.5,2.5 2.8568,3.92829 7.1426,4.64258 0.09,0.0151 0.1812,0.0206 0.2715,0.0332 -1.8948,-6.61715 -4.34,-12.66097 -4.5567,-13.96094 -0.3571,-2.14286 -4.9998,-11.42969 -7.1426,-13.92969 -2.1429,-2.5 -2.1431,-13.21484 -7.8574,-20.71484 -5.7142,-7.5 -5.3579,-13.214 -11.0722,-19.64258 -5.7147,-6.42857 -10.7129,-16.42773 -10.7129,-16.42773 0,0 -8.2149,-8.2154 -13.2149,-11.42969 -5,-3.21428 -5.3577,-6.78404 -10.7148,-10.35547 -5.3572,-3.57143 -2.1435,-5.00167 -5.7149,-9.64453 -3.5715,-4.64286 -4.2845,-2.49944 -8.5703,-4.28516 -4.2857,-1.7857 -9.2855,-5.71372 -14.6426,-9.28515 -5.3572,-3.57142 -7.8586,-5.71481 -16.7871,-8.21485 -8.9286,-2.5 -10.3554,-3.21373 -17.8554,-6.78515 -7.5,-3.57143 -6.7875,-1.42885 -14.6446,-2.85742 -7.8572,-1.42857 -8.5715,-1.42884 -17.5,-5.35743 -8.9286,-3.92857 -9.642,-1.07031 -18.9277,-3.57031 -9.2856,-2.5 -9.6437,-0.35742 -16.0723,-2.85742 -6.4286,-2.5 -7.8566,-1.07198 -16.7851,-0.71484 -8.9286,0.35715 -9.9988,-2.49945 -16.0703,-1.78516 -6.0714,0.71428 -3.2158,-1.78655 -6.7871,-6.07227 -3.5716,-4.2857 -2.1426,-4.64174 -4.6426,-6.07031 -2.5,-1.42857 -7.1423,-0.71456 -11.7852,-0.35742 -4.6428,0.35714 -5.3577,-0.001 -10.7148,-1.78711 -5.3572,-1.78571 -7.4995,0.35799 -9.2852,-1.42773 -1.7857,-1.78571 -4.2863,-5.35771 -5.7148,-8.21485 -1.4286,-2.85715 -7.1417,-0.71456 -11.0703,-2.85742 -3.9285,-2.14285 -9.2863,-1.4269 -13.2149,-2.85547 -3.9286,-1.42857 -4.2863,1.07031 -10.7148,1.07031 -6.4286,0 -6.0712,-2.8e-4 -9.64261,-2.85742 -3.57143,-2.85715 -5.71344,-1.07059 -11.42773,-1.42773 -5.71429,-0.35715 -5.35854,3.57087 -11.78711,-0.71485 -6.42858,-4.2857 -2.49915,0.71513 -8.92773,1.07227 -6.42857,0.35714 -2.85771,-0.71429 -5.71485,-2.5 -2.85714,-1.78572 -5.71372,-3.57223 -6.78515,-3.57227 z m 18.87109,201.8711 c 1.01016,0 3.53615,0.75841 7.32422,3.03125 3.78807,2.27285 5.5549,2.27227 8.83789,2.77734 3.283,0.50508 8.58626,-0.25195 10.10158,-0.25195 1.5152,0 3.7888,-1.76933 5.5566,-1.01172 1.7678,0.75762 5.3033,1.76855 7.5762,0.50586 2.2728,-1.26269 4.2928,-1.76855 8.5859,-0.50586 4.2932,1.26269 7.324,1.01192 9.0918,1.76953 1.7678,0.75761 2.2725,2.77637 3.5352,4.03906 1.2627,1.26269 4.0396,2.77871 6.3125,3.03125 2.2728,0.25254 4.5459,-0.50566 8.334,0.25196 3.788,0.75761 4.0418,2.52539 7.0722,2.52539 3.0305,0 6.0596,-1.00899 9.8477,-0.50391 3.788,0.50508 4.799,1.00879 8.082,-0.2539 3.283,-1.26269 6.8191,-3.02988 7.3242,-0.25196 0.5051,2.77792 -2.2744,4.79884 -3.5371,7.32422 -1.2627,2.52538 -3.0288,3.28146 -1.5136,6.56445 1.5153,3.283 4.2925,4.29357 7.8281,6.56641 3.5355,2.27285 4.5457,3.53575 2.5254,5.80859 -2.0203,2.27284 -4.2942,4.29297 -6.3145,4.29297 -2.0203,0 -4.2915,1.76857 -4.039,5.55664 0.2526,3.78807 2.0187,5.80841 1.5136,7.57618 -0.5051,1.76777 -4.0394,5.80858 -5.5547,3.2832 -1.5152,-2.52538 1.2616,-4.04141 -2.0214,-5.55664 -3.2829,-1.51523 -3.5344,-2.52598 -8.0801,-2.27344 -4.5457,0.25253 -13.6375,-0.25097 -16.668,1.01172 -3.0305,1.26269 -11.1108,2.27128 -13.8887,1.51367 -2.7779,-0.75762 -6.3144,-0.25079 -6.3144,-3.28125 0,-3.03046 -1.2629,-5.80917 -3.2832,-3.03125 -2.0203,2.77792 -1.01,5.30294 -6.8184,8.58594 -5.8084,3.283 -12.1221,6.31327 -20.96091,4.29297 -8.83883,-2.02031 -13.63613,-4.54571 -16.41407,-7.57617 -2.77791,-3.03045 -2.52519,-9.09122 -4.29296,-9.34375 -1.76776,-0.25254 -4.04122,-0.25136 -4.79883,2.02148 -0.75761,2.27284 -3.02969,2.52423 -2.01953,5.55469 1.01015,3.03046 2.77752,4.29278 1.00976,6.06054 -1.76777,1.76777 -6.31348,3.53674 -5.05078,7.07227 1.26269,3.53554 8.08147,5.55605 10.85938,5.80859 2.77792,0.25254 5.80841,-1.26386 10.10156,0.50391 4.29315,1.76776 6.06017,1.51486 9.5957,1.00977 3.53553,-0.50507 7.32368,1.2627 10.10158,0 2.7779,-1.26268 6.314,-0.75782 7.3242,-0.75782 1.0101,0 3.2822,-3.53496 4.5449,-2.77734 1.2627,0.75761 2.2727,3.03046 6.8184,2.52539 4.5456,-0.50508 8.3346,-1.7668 10.6074,-1.26172 2.2728,0.50507 4.2927,2.27247 2.7773,3.53516 -1.5149,1.26269 -4.2935,-0.7582 -6.5664,0.25195 -2.2728,1.01015 -3.283,3.53652 -5.8086,3.78906 -2.5252,0.25254 -6.3134,-2.27342 -10.1015,0.25196 -3.7881,2.52538 -9.8481,1.26308 -11.3633,1.51562 -1.5152,0.25254 -2.0209,1.51563 -4.79882,1.51563 -2.77792,0 -5.55451,-1.01153 -7.32227,-0.25391 -1.76777,0.75761 -2.77892,2.02069 -8.83984,1.51563 -6.06091,-0.50509 -9.34298,-1.26212 -11.36328,-2.77735 -2.02031,-1.51523 -8.08126,-4.5461 -10.10157,-6.56641 -2.0203,-2.0203 -4.79863,-3.28398 -6.5664,-3.78906 -1.76777,-0.50507 -3.53575,-3.0285 -5.8086,-2.52344 -2.27282,0.50509 -12.37461,1.51368 -13.38476,1.51368 -1.01015,0 -6.05997,2.27363 -8.83789,0.50586 0,0 -7.82871,4.29198 -7.57617,0.5039 0.25254,-3.78807 4.29239,-2.77679 7.07031,-5.55468 2.77792,-2.77792 1.76741,-3.28243 8.58594,-5.30274 6.81853,-2.0203 6.31328,-4.29376 6.81836,-7.32422 0.50507,-3.03045 -0.75644,-5.05079 2.02148,-7.57617 2.77792,-2.52538 7.82833,-10.10098 11.11133,-10.35352 3.283,-0.2529 2.27248,1.26133 8.58594,-0.2539 6.31345,-1.51523 7.5754,-3.78652 12.12109,-4.03906 4.54568,-0.2529 8.33458,0.50371 10.60742,-0.25391 2.27284,-0.75761 5.05021,0 7.82813,0 2.77792,0 9.8489,-0.5047 12.627,-1.00977 2.778,-0.50508 0.7583,-3.28243 -2.0196,-5.30273 -2.77785,-2.02031 -5.30332,-4.79785 -10.10154,-3.53516 -4.79823,1.26269 -5.55607,2.27207 -8.33399,2.01953 -2.77792,-0.25254 -4.5461,-1.76855 -6.5664,-0.50585 -2.02031,1.26267 -5.30353,2.52655 -8.33399,2.02148 -3.03046,-0.50508 -4.79808,-3.53573 -11.86914,-0.75781 -7.07107,2.77792 -11.36446,2.77774 -13.38476,4.29297 -2.02031,1.51523 -3.53517,4.54651 -6.06055,10.60742 -2.52538,6.06092 -3.28322,6.31192 -5.8086,6.56445 -2.52539,0.25254 -4.5447,1.26306 -3.78711,-6.06055 0.75762,-7.32361 4e-4,-7.32384 1.51563,-10.85937 1.51523,-3.53553 1.01036,-5.80822 3.2832,-9.34375 2.27285,-3.53554 8.33302,-6.56563 9.59571,-8.58594 1.26269,-2.0203 4.79863,-1.00918 6.5664,-1.26172 1.76776,-0.25254 6.56486,0.75586 10.60547,-1.76953 4.04061,-2.52538 4.54708,-4.03906 7.83008,-4.03906 3.283,0 5.30235,-3.03125 6.3125,-3.03125 z M 95.376956,465.72801 c -0.56536,0.005 -1.12054,0.0187 -1.65625,0.041 -4.28571,0.17857 -10.89146,1.42857 -13.21289,6.25 -2.32143,4.82143 -4.82227,8.75167 -4.82227,12.14453 0,3.39286 -0.53627,8.57006 0.53516,13.21289 1.07143,4.64286 3.03599,16.786 4.10742,17.85743 1.07142,1.07143 4.82142,9.64397 10,16.42968 5.17857,6.78572 10.178574,17.32115 11.250004,20.89258 1.07142,3.57143 3.03544,12.67801 3.39258,15.53516 0.35715,2.85714 2.85742,21.42773 2.85742,21.42773 0,0 1.25056,13.03739 3.21484,15.89453 1.96429,2.85715 5.17774,10.71261 7.67774,12.85547 2.5,2.14285 3.75055,4.46596 5.71484,4.64453 1.96428,0.17858 3.21512,-0.71568 4.82227,-1.78711 1.60714,-1.07142 5.1769,-1.60685 5.35547,-2.14257 0.17857,-0.53571 -1.60547,-10 -1.60547,-10 0,0 -4.46596,-25.17857 -4.64453,-27.5 -0.17857,-2.32143 -3.39286,-23.21345 -3.75,-25.17774 -0.35714,-1.96428 -2.85631,-18.57143 -2.67774,-20 0.17857,-1.42857 -1.24972,-13.21568 -4.64258,-16.78711 -3.39286,-3.57143 -3.57226,-7.49832 -6.07226,-9.10547 -2.5,-1.60714 -11.606594,-8.75167 -13.035164,-9.64453 -1.42857,-0.89285 -4.82086,-1.78404 -5.53515,-0.35547 -0.71428,1.42857 -0.53683,2.1415 -0.17969,5.71289 0.35715,3.57142 2.50139,5.3577 1.78711,8.21485 -0.71429,2.85714 -2.14453,3.03518 -2.14453,3.03515 0,0 -5.71346,-8.39201 -6.42774,-12.67773 -0.71429,-4.28571 -3.21512,-16.07142 -2.32226,-18.75 0.89286,-2.67857 3.39369,-6.42802 4.82226,-8.03516 1.42857,-1.60714 5.17857,-2.67857 7.5,-2.5 2.32143,0.17857 4.464564,0.1769 6.607424,1.60547 2.14286,1.42857 8.03516,3.92969 8.03516,3.92969 0,0 4.28516,3.57143 4.28516,0 0,-3.57142 -0.35603,-10.17857 -1.07032,-11.25 -0.71428,-1.07142 -6.07087,-1.60826 -8.03515,-2.67969 -1.71876,-0.9375 -6.173344,-1.32763 -10.130864,-1.29101 z m 134.667924,19.92383 c -2.52519,0 -4.29292,0.5039 -4.29292,0.5039 0,0 -2.0203,3.28438 0,5.30469 2.02031,2.0203 7.32422,1.00937 7.32422,-0.50586 0,-1.51523 -0.5059,-5.30274 -3.0313,-5.30273 z m 213.8555,0.11718 c -4.2857,0 -1.4297,0.71485 -1.4297,0.71485 0,0 -3.9277,8.3e-4 -1.4277,3.57226 2.5,3.57143 5.7136,2.14286 6.7852,0 1.0711,-2.14286 0.358,-4.28711 -3.9278,-4.28711 z m 163.3125,107.44532 c -0.9275,-0.18032 -2.3086,1.7073 -4.0273,6.12695 -2.5,6.42857 -2.1429,11.78571 -5,12.5 -8.87,-1.18145 -20.5935,1.23977 -12.1426,8.21484 5.3571,4.28572 6.7857,6.42857 12.5,2.5 5.7143,-3.92857 7.1418,-8.57199 8.5703,-13.21484 1.4286,-4.64286 1.7865,-11.78544 1.0723,-14.64258 -0.2232,-0.89286 -0.5511,-1.40241 -0.9727,-1.48437 z m -209.2148,37.95898 c 1.1593,-0.0356 2.3308,0.399 3.4023,1.73828 2.8572,3.57143 -0.3574,2.1437 -0.3574,3.57227 0,1.42857 2.1426,6.78599 2.1426,10.35742 0,3.57142 -2.1429,5.71373 -2.5,9.28515 -0.3572,3.57144 3.9297,11.07227 3.9297,11.07227 0,0 3.2134,10.35602 3.9277,13.57031 0.7143,3.21428 2.142,4.99973 3.9277,7.14258 1.7857,2.14286 -3.5703,3.92969 -3.5703,3.92969 l -1.0722,4.64258 c -2e-4,0 -1.4278,6.07115 1.0722,9.64257 2.5,3.57144 4.6435,1.42913 8.2149,3.21485 3.5715,1.78571 12.142,5.3563 16.4277,6.42773 4.2857,1.07143 5.3565,4.28571 6.7852,7.5 1.4285,3.21428 0.7139,5.00057 -5.3575,5.71485 -6.0715,0.71429 -7.8566,-2.5 -9.2851,-2.5 -1.4286,0 -7.4997,2.14257 -12.1426,2.14257 -4.6429,0 -1.7866,-1.78459 -8.5723,-1.07031 -6.7857,0.71429 -8.9277,0 -8.9277,0 0,0 -3.2149,2.1423 -10.7148,1.78516 -7.5002,-0.35715 -11.0704,1.42773 -11.0704,1.42773 0,0 -3.2151,1.07173 -6.0722,2.85742 -2.8571,1.78571 -10.7149,0.35743 -10.7149,0.35743 0,0 -3.5709,1.42773 -6.7851,1.42773 -3.2143,0 -6.0712,0.35742 -9.6426,0.35742 -3.5715,0 -3.9289,0.35686 -5.3574,2.14258 -1.4286,1.78571 -3.5715,10e-6 -7.5,-2.5 -3.9286,-2.5 -11.0703,1.0717 -16.0703,0.35742 -5,-0.71429 -4.2857,-3.57059 -7.5,-3.92773 -3.2142,-0.35715 -11.7869,0.71428 -16.4297,0 -4.6429,-0.71429 -3.2138,-0.71429 -6.7852,0 -3.5714,0.71428 -7.8571,0.71484 -12.5,0.71484 -4.6428,0 -7.1438,2.14203 -11.0722,3.92774 -3.9286,1.78572 -8.2129,1.42913 -10.7129,3.21484 -2.5,1.78571 -7.8571,4.28543 -10,2.14258 -2.1428,-2.14286 5,-9.28516 5,-9.28516 0,0 2.8572,-1.0731 5,-4.64453 2.1429,-3.57142 6.4286,-6.07031 7.5,-8.57031 1.0715,-2.5 5.7134,-1.07254 8.9277,-3.92969 3.2143,-2.85714 7.8568,-3.57031 9.6426,-3.57031 1.7857,0 0.3569,-2.14286 -0.3574,-5 -0.7145,-2.85715 -0.3567,-2.5 -1.7852,-5 -1.4286,-2.5 -0.7143,-3.21373 0,-6.78516 0.7143,-3.57143 -1.0717,-3.92885 -2.8574,-5.35742 -1.7858,-1.42857 -0.3563,-5.35797 1.0722,-8.57227 1.4286,-3.21428 5.0004,-5.35685 5.3575,-7.14257 0.3572,-1.78571 0.356,-6.07116 1.0703,-9.64258 0.7142,-3.57143 2.1434,-4.64258 3.2148,-7.14258 1.0714,-2.5 -5.0006,-7.14341 -8.2148,-10.71484 -3.2143,-3.57143 -1.7858,-7.14369 -2.5,-8.57227 -0.7143,-1.42857 1.072,-3.92857 3.2148,-5 2.1429,-1.07142 5.7133,1.07282 8.9278,1.78711 3.2141,0.71428 6.7862,1.07031 10.7148,1.07031 4.4278,-0.0893 2.4282,-4.50773 6.4277,0 1.0714,1.42857 2.8577,2.49973 5.7149,4.64258 2.8571,2.14286 3.2142,1.78599 5,2.85742 1.7857,1.07143 5.7145,2.50057 7.8574,3.21485 2.1428,0.71429 6.7854,1.07226 9.6426,1.07226 2.8571,0 9.6437,0.71262 13.5722,0.35547 3.9286,-0.35714 7.8572,-2.14201 10,-3.92773 2.1429,-1.78571 6.7852,-5.35743 6.7852,-5.35743 0,10e-6 2.1438,8.4e-4 6.0723,1.07227 3.9286,1.07143 6.7845,0.35742 8.5703,0.35742 1.7857,0 7.4996,-0.35854 12.1426,-1.78711 4.6427,-1.42857 7.857,-3.92857 10,-5 1.3392,-0.66965 3.2377,-2.0364 5.1699,-2.0957 z m -53.6172,83.33008 c -1.2165,0.0167 -2.4451,0.10601 -3.3379,0.19531 -3.5715,0.35715 -15,0.35742 -15,0.35742 0,0 -6.4277,-0.71428 -1.4277,2.5 5,3.21429 13.2131,4.9986 21.0703,0.71289 5.8928,-3.21429 2.3448,-3.81582 -1.3047,-3.76562 z m -1.9102,35.19531 c 0,0 2.8589,2.14341 2.1446,5.71485 -0.7143,3.57142 -2.1444,6.42773 -4.2871,6.42773 -2.143,0 -4.2861,1.072 -7.8575,0.71485 -3.5714,-0.35714 -6.0705,-2.9e-4 -6.4277,-2.85743 -0.3571,-2.85714 -0.3574,-4.64257 -0.3574,-4.64257 0,0 5e-4,-5.00001 3.2148,-5.00001 3.2143,0 13.5703,-0.35742 13.5703,-0.35742 z"
       id="path32277"
       inkscape:connector-curvature="0" />
  </g>
</svg>
