<?xml version="1.0" encoding="UTF-8" standalone="no"?>
<!-- Created with Inkscape (http://www.inkscape.org/) -->

<svg
   version="1.1"
   id="svg1791"
   width="2084.7634"
   height="2255.5454"
   viewBox="0 0 2084.7634 2255.5455"
   sodipodi:docname="man4.svg"
   inkscape:version="1.4 (e7c3feb100, 2024-10-09)"
   xmlns:inkscape="http://www.inkscape.org/namespaces/inkscape"
   xmlns:sodipodi="http://sodipodi.sourceforge.net/DTD/sodipodi-0.dtd"
   xmlns="http://www.w3.org/2000/svg"
   xmlns:svg="http://www.w3.org/2000/svg">
  <defs
     id="defs1795" />
  <sodipodi:namedview
     id="namedview1793"
     pagecolor="#ffffff"
     bordercolor="#000000"
     borderopacity="0.25"
     inkscape:showpageshadow="2"
     inkscape:pageopacity="0.0"
     inkscape:pagecheckerboard="0"
     inkscape:deskcolor="#d1d1d1"
     showgrid="false"
     inkscape:zoom="0.17"
     inkscape:cx="629.41176"
     inkscape:cy="847.05882"
     inkscape:window-width="1920"
     inkscape:window-height="1011"
     inkscape:window-x="0"
     inkscape:window-y="0"
     inkscape:window-maximized="1"
     inkscape:current-layer="layer1" />
  <g
     inkscape:groupmode="layer"
     id="layer1"
     inkscape:label="Layer 1"
     transform="translate(-66.928033,-196.60696)">
    <path
       style="fill:#00ffff"
       d="m 529.15025,1039.9403 c 0,0 -8.88889,52.2222 -2.22222,55.5556 6.66667,3.3333 48.88889,13.3333 55.55556,12.2222 6.66666,-1.1111 22.22222,-20 22.22222,-20 l -14.44445,-34.4445 z"
       id="path4" />
    <path
       style="fill:#803300"
       d="m 488.98685,458.37167 89.70589,50 325,-16.17647 147.05886,-38.2353 -38.2353,77.94118 1.4706,63.23529 6.2745,87.5817 -21.11115,84.44445 -8.88889,93.33333 29.44444,43.33333 36.6667,36.66667 83.3333,38.88889 46.1111,24.44446 -20,52.2222 -11.6667,59.4445 25,55.5555 c 0,0 72.7778,1.1111 75.5556,-0.5555 2.7778,-1.6667 159.4444,-102.7778 159.4444,-102.7778 l 173.8889,-58.3334 57.7778,132.7778 251.6667,64.4445 142.7777,40.5556 29.4445,-193.3334 -7.7778,-162.22224 -42.7778,-136.66667 -48.3333,-78.88889 -79.4445,-161.66666 -109.4444,-114.44445 -165,-70 -219.4444,-47.22222 -91.6667,-36.66667 -57.2222,19.44445 -196.6667,-43.33333 -139.99997,6.11111 -182.77778,27.22222 -41.11111,60.55555 -58.33333,88.33334 -65.55556,16.11111 z"
       id="path3" />
    <path
       id="path2"
       style="fill:#ffccaa"
       d="M 520.21319 546.24173 L 460.35772 595.87649 L 366.92803 715.58548 L 277.87725 858.64993 L 233.35186 949.16165 L 275.6878 1042.5933 L 291.74639 1098.7964 L 277.14678 1170.3296 L 239.92022 1225.0738 L 125.32256 1350.6206 L 88.096002 1409.0152 L 104.1546 1459.3804 L 131.89092 1475.439 L 264.00811 1533.1031 L 318.02374 1792.9566 L 315.10381 1929.4546 L 320.9417 2015.5855 L 363.27764 2055.732 L 436.27178 2090.7671 L 678.60772 2103.1773 L 740.65069 2103.1773 L 904.88506 2413.396 L 958.16827 2386.3882 L 1250.139 2195.8765 L 1623.8616 1979.8179 L 1663.2776 1947.7027 L 1707.803 1815.5855 L 1682.2562 1593.687 L 1717.2933 1364.4898 L 1672.7679 1176.1695 L 1578.6077 1146.2417 L 1499.0452 1146.2417 L 1320.2132 1230.9136 L 1231.8909 1218.5054 L 1159.6292 1153.5406 L 1150.8694 1094.4175 L 1173.4964 1033.8335 L 1134.0804 984.92727 L 1064.7386 942.59329 L 1010.723 902.4468 L 990.28545 867.40969 L 996.1253 788.57766 L 1022.4026 671.7886 L 1007.0745 595.14798 L 899.04522 561.56985 L 520.21319 546.24173 z M 529.15069 1039.9409 L 590.26202 1053.273 L 604.70538 1087.7183 C 604.70538 1087.7183 589.14938 1106.6072 582.48272 1107.7183 C 575.81605 1108.8294 533.5947 1098.8289 526.92803 1095.4956 C 520.26136 1092.1622 529.15069 1039.9409 529.15069 1039.9409 z " />
    <path
       id="path1"
       style="fill:#000000"
       d="m 1064.67,197.3282 c -11.3455,-0.98832 -20.583,-0.96269 -32,0.0879 -8.8277,0.81226 -24.7513,2.25474 -35.38475,3.20508 -10.6333,0.95035 -27.05057,3.31408 -36.48437,5.25195 -16.3733,3.36339 -18.0082,3.46186 -36,2.17188 -32.8074,-2.35227 -51.55618,-1.80761 -71.64258,2.08398 -28.4907,5.51988 -29.95044,5.67114 -55.77734,5.77344 -14.1903,0.0563 -26.58439,0.73189 -29.33399,1.59766 -2.6188,0.82455 -8.06045,2.56002 -12.09375,3.85742 -4.0333,1.29741 -8.969,2.72968 -10.9668,3.18359 -1.9976,0.45392 -5.83153,2.31844 -8.51953,4.14258 -2.688,1.82413 -5.70357,3.31641 -6.70117,3.31641 -0.9977,0 -1.8125,0.51688 -1.8125,1.14844 0,0.63156 -3.33636,2.42392 -7.41406,3.98437 -4.0777,1.56047 -8.32169,3.74553 -9.42969,4.85352 -1.108,1.10797 -3.19582,2.01367 -4.64062,2.01367 -5.7483,0 -46.88701,22.50865 -57.84961,31.65234 -0.7334,0.61166 -3.4334,1.9239 -6,2.91406 -2.5667,0.99018 -5.86729,3.1399 -7.33399,4.7793 -1.4666,1.6394 -7.99898,5.45754 -14.51758,8.48438 -31.9592,14.84001 -52.28424,34.83224 -58.90234,57.9414 l -2.4375,8.51563 -16.07031,0.81445 c -30.363,1.54202 -54.82248,10.3897 -76.92188,27.82422 -48.327,38.12565 -70.11586,112.67126 -54.94336,187.9707 1.9892,9.87225 1.95254,11.01325 -0.79296,24.72656 -5.7276,28.60927 -19.48627,62.74018 -38.13477,94.59961 -8.8096,15.05046 -32.85613,50.74007 -62.73633,93.11133 -25.2694,35.83292 -39.46768,58.3616 -51.67578,82 -5.1131,9.9 -14.84345,27.34772 -21.62305,38.77344 -29.4429,49.62073 -38.82647,74.61386 -37.66797,100.32029 0.4316,9.577 1.29859,13.8338 3.98829,19.5723 7.0804,15.1064 19.57111,25.2503 41.10351,33.3808 l 12.66602,4.7813 0.39453,13.2519 c 0.2171,7.2885 -0.56548,20.7256 -1.73828,29.8594 -1.1728,9.1339 -1.74659,19.0339 -1.27539,22 1.1189,7.0424 5.92388,14.3332 11.86328,18.0039 2.616,1.6168 4.75586,3.2805 4.75586,3.6973 0,1.1741 -20.22699,29.6471 -35.77539,50.3594 -31.3227,41.7251 -68.41136,85.9714 -129.44336,154.4238 l -35.447268,39.7578 -1.90625,8.7617 c -5.3749,24.718 8.689259,48.9563 40.572268,69.9199 14.9234,9.8124 23.1661,14.1712 70,37.0157 36.4854,17.7969 46.61061,24.6422 50.94531,34.4414 2.3549,5.3234 2.48761,6.7515 1.07031,11.4824 -2.516,8.3972 -14.1567,18.687 -33.4082,29.5293 -35.1877,19.8175 -51.86028,44.5602 -51.92188,77.0566 -0.073,38.4785 22.94767,78.7192 59.98047,104.8457 16.1531,11.3959 23.63977,13.3546 55.07617,14.418 l 22.41407,0.7578 2.40429,4.7949 c 3.4117,6.8011 7.63405,20.4179 10.03125,32.3536 3.7555,18.6981 4.75221,41.2365 4.41211,99.7734 -0.292,50.241 -0.0279,59.7226 1.97852,70.875 5.8524,32.5407 16.39646,54.0739 35.19336,71.8633 10.5456,9.9803 18.23206,15.0499 34.28906,22.6191 46.3161,21.833 90.93874,30.4651 192.86914,37.3125 63.9252,4.2944 84.74215,6.5603 117.49805,12.7832 17.8038,3.3823 18.32761,3.5818 26.29101,10.0254 16.4215,13.2872 32.55049,35.883 43.61719,61.1035 6.2184,14.1713 14.00823,37.3618 25.33203,75.418 18.3438,61.6493 31.96742,88.4769 58.00782,114.2285 l 11.55078,11.4219 54.61718,41.8359 c 0.37779,-0.3731 0.51658,-0.606 1.04102,-1.0605 33.8289,-29.3221 74.47927,-57.7101 153.377,-107.1094 84.6213,-52.983 114.472,-73.6738 154,-106.7422 9.0849,-7.6002 63.7733,-43.8476 95.3339,-63.1875 35.6293,-21.833 92.3349,-54.2896 166,-95.0156 68.2519,-37.7332 113.4142,-63.5491 139.1075,-79.252 l 0.01,0.037 68.1153,-24.2753 -0.029,-0.1993 c 0.02,0.017 0.037,0.022 0.057,0.039 l 10.5879,-37.332 c -0.1214,-14.2078 1.6556,-24.5674 7.4199,-38.1133 11.4517,-26.9112 30.3232,-51.4069 77.5039,-100.6074 28.0457,-29.2463 41.8359,-45.3713 48.2735,-56.4434 15.1391,-26.0379 28.8509,-36.4403 69.8867,-53.0215 22.2744,-9.0004 32.2574,-13.9921 42.4023,-21.2031 9.8833,-7.0252 21.5337,-19.1342 27.7324,-28.8242 l 4.6817,-7.3223 18.459,-1.5957 c 33.3802,-2.8869 52.7552,-9.5347 65.3398,-22.4199 9.2172,-9.4374 12.6815,-18.5171 13.416,-35.1699 0.4691,-10.6369 1.1637,-13.8417 4.3418,-20 5.6207,-10.8913 14.0465,-31.6981 18.6328,-46.0157 7.5849,-23.6785 13.5402,-49.2619 26.8496,-115.3183 14.6234,-72.5775 21.077,-99.4854 30.1797,-125.8418 7.3374,-21.2452 8.9553,-36.1881 7.7383,-71.4922 -2.4957,-72.3908 -14.3937,-129.8216 -54.6953,-264 -14.7075,-48.96643 -21.4477,-72.6006 -28.8945,-101.33203 -5.571,-21.49389 -8.4322,-29.66308 -16.5117,-47.13672 -11.8733,-25.67817 -27.7885,-55.52607 -57.336,-107.53125 -37.2917,-65.63529 -64.3591,-120.94549 -75.125,-153.51172 C 1910.3161,495.60312 1866.322,446.888 1820.6202,412.48036 1782.0913,383.47397 1723.7703,350.742 1657.42,320.8868 l -25.8652,-11.63868 -30.1348,-0.46484 c -43.5998,-0.67244 -79.2754,-5.48231 -124.1347,-16.73633 -37.676,-9.45194 -70.9834,-20.35968 -162.0313,-53.06054 -14.2156,-5.10569 -15.0042,-5.23672 -24,-3.9961 -5.1158,0.70552 -19.502,0.98069 -31.9687,0.61133 -26.0634,-0.77222 -45.2404,-3.97866 -81.3321,-13.60156 -74.1784,-19.77774 -85.5546,-22.25639 -113.2832,-24.67188 z m -61.7363,40.17578 c 5.1738,-0.39607 8.8986,-0.10885 9.5742,0.98438 1.9733,3.19283 -14.51266,11.13305 -38.63866,18.60937 -12.4072,3.8448 -14.9641,5.28468 -34,19.15625 -11.3212,8.24976 -32.87855,23.26799 -47.90625,33.37305 -23.9568,16.10918 -30.67774,20.012 -30.67774,17.8125 0,-0.94952 27.43001,-24.30479 45.12891,-38.42383 9.2256,-7.35958 17.85518,-14.75471 19.17578,-16.43359 8.4398,-10.72939 37.63148,-26.52103 59.08398,-31.96289 6.46435,-1.63982 13.08595,-2.71916 18.25978,-3.11524 z m 71.6113,0.0352 c 2.565,-0.71328 9.9061,0.80223 21.0977,4.42383 19.9315,6.44986 30.706,10.82092 36.3926,14.76172 9.8883,6.85264 17.917,22.38126 14.6894,28.41211 -1.6909,3.15944 -3.5799,3.5037 -8.6445,1.57812 -1.8583,-0.7065 -6.8465,-4.45641 -11.086,-8.33398 -4.2395,-3.87756 -14.5163,-11.25022 -22.8359,-16.38282 -15.8049,-9.75043 -29.6222,-20.15202 -30.5508,-22.99804 -0.2407,-0.73787 0.082,-1.22318 0.9375,-1.46094 z m -40.2246,21.13672 c 42.3984,0.44698 92.5963,22.56053 121.0938,57.10937 8.2072,9.94991 17.9992,28.07574 21.0039,38.88086 1.1215,4.03334 3.8294,12.47505 6.0175,18.75977 5.6089,16.10984 7.2559,26.206 7.2696,44.57422 0.017,22.51754 -1.8453,31.74729 -15.8692,78.68945 -10.619,35.54508 -12.8724,47.41851 -13.0273,68.64453 -0.137,18.77889 1.0715,26.95917 6.498,44 1.9202,6.02998 3.0814,12.64604 2.9239,16.66602 -0.6811,17.37496 15.0117,33.47244 68.748,70.51953 18.8247,12.97819 16.4121,14.10501 -11.6933,5.46289 -18.6469,-5.73373 -26.369,-7.0562 -49.0157,-8.39648 -10.0924,-0.5973 -18.9988,-1.73317 -19.791,-2.5254 -1.9978,-1.9978 0.3847,-6.28268 7.6973,-13.84375 l 5.916,-6.11523 -10.4512,-13.88477 c -42.5307,-56.49983 -78.1248,-148.27346 -74.4941,-192.07031 1.1743,-14.16519 3.2744,-19.43918 9.416,-23.63867 6.691,-4.57508 8.4937,-7.44973 6.5898,-10.50781 -3.3794,-5.42804 -13.4183,-11.00605 -35.2851,-19.60547 -35.4121,-13.92631 -41.2481,-17.16832 -41.2481,-22.9082 0,-6.17834 20.6093,-13.13429 45.0118,-15.19336 8.2563,-0.69665 17.1056,-2.14114 19.666,-3.21094 3.9618,-1.65538 4.6562,-2.58988 4.6562,-6.27149 0,-8.90927 -20.2509,-23.46714 -44.8672,-32.2539 -20.3706,-7.27128 -47.7618,-9.68236 -63.13278,-5.55664 -4.0333,1.08258 -7.62461,1.97566 -7.97851,1.98437 -0.3539,0.009 5.91468,-3.88455 13.92968,-8.65234 15.08271,-8.97211 22.04881,-14.53782 22.04881,-17.61524 0,-3.32512 -6.7859,-4.38281 -28.08787,-4.38281 -11.6856,0 -21.24609,-0.31988 -21.24609,-0.71094 0,-0.39104 1.434,-3.54346 3.1875,-7.0039 4.2925,-8.47073 16.42469,-19.67045 25.80859,-23.82617 11.30687,-5.00735 24.57227,-7.26619 38.70507,-7.11719 z m -203.78319,2.62891 c 14.3578,-0.45229 23.32056,1.20023 20.88281,5.14453 -1.8614,3.0118 -13.7802,8.98153 -30.0332,15.04297 -16.2408,6.05689 -16.65959,6.13622 -21.33399,4.08984 -8.8543,-3.87624 -23.61591,-2.78076 -46.09961,3.41992 -22.3769,6.17125 -24.234,6.55993 -32.5664,6.81641 l -5.89844,0.18164 3.08008,-3.2793 c 7.2364,-7.70285 31.41909,-17.5621 58.71679,-23.9375 19.14135,-4.47048 38.89416,-7.02623 53.25196,-7.47851 z m 479.47269,13.58789 c 21.2663,-0.40823 23.9554,-0.18461 35.8984,2.99414 30.6692,8.16294 87.377,33.02001 87.377,38.30078 0,1.85318 -9.1279,0.75649 -22.8458,-2.7461 -5.4011,-1.37906 -16.6831,-3.19846 -25.0703,-4.04296 -36.8943,-3.7148 -91.9103,-18.69778 -99.9062,-27.20899 -5.3399,-5.68404 -1.6038,-6.79488 24.5469,-7.29687 z m -142.502,12.70507 c 1.4635,0.90396 4.9215,4.14164 9.793,9.35547 38.1721,40.85452 67.5651,97.97936 79.541,154.58399 3.205,15.14836 3.6217,19.98345 3.5976,41.79687 -0.025,22.32953 -0.358,25.89418 -3.5058,37.63086 -3.725,13.88923 -11.6403,30.51628 -18.4727,38.80469 -7.5082,9.10808 -7.9595,7.03813 -8.416,-38.57227 -0.5141,-51.36862 -4.2402,-82.24592 -15.4297,-127.8789 -10.8059,-44.06887 -29.7601,-90.91739 -44.9375,-111.07227 -3.1042,-4.12221 -3.6334,-5.55239 -2.1699,-4.64844 z m 98.5723,3.06836 c 3.3723,0 9.4215,4.78694 26.0234,20.5918 9.4033,8.95183 22.7103,19.71631 33.8809,27.4082 20.3709,14.02704 37.9687,29.53715 37.9687,33.46485 0,3.26583 -3.408,3.2801 -14.6797,0.0566 -16.9038,-4.83404 -32.0287,-14.16464 -49.3261,-30.42969 -21.8247,-20.52213 -42.0878,-51.0918 -33.8672,-51.0918 z m -497.93362,17.55664 c 2.4456,0.34614 3.23099,1.39362 3.55469,4.7461 0.3376,3.49532 -0.43605,5.04979 -4.12305,8.28711 -7.5798,6.65508 -15.78601,24.54819 -35.57031,77.56445 -13.324,35.70466 -15.99926,37.87422 -16.03516,12.99609 -0.016,-11.27172 0.67816,-16.61034 3.38086,-26 9.1168,-31.67241 38.87547,-78.99747 48.79297,-77.59375 z m 41.81641,8.22266 c 0.69546,-0.3885 1.20247,-0.34438 1.59375,0.0469 1.9359,1.93592 -12.31527,38.55607 -18.91797,48.61132 -3.8327,5.83692 -7.38614,18.48078 -12.05274,42.89649 -5.2393,27.41331 -8.40733,38.14208 -12.58593,42.61523 -4.6977,5.02888 -7.7921,4.26735 -14.7461,-3.63281 -2.9164,-3.31331 -5.30078,-7.00244 -5.30078,-8.19727 0,-1.19482 1.19219,-6.47803 2.65039,-11.74023 6.1068,-22.03702 27.12802,-64.55502 46.04492,-93.13086 7.44473,-11.24602 11.22808,-16.30326 13.31446,-17.46875 z m 153.17578,21.61719 c -0.20753,0.59187 -1.53162,2.30445 -4.13477,5.60156 -5.0687,6.41997 -11.05078,19.19272 -11.05078,23.59375 0,1.0031 -2.18245,4.42919 -4.84765,7.61523 -6.9237,8.27687 -16.10849,22.20443 -25.80469,39.12696 -12.4248,21.68491 -20.78686,33.24884 -30.43946,42.09375 -9.193,8.4237 -10.9082,9.29423 -10.9082,5.53711 0,-1.30258 0.61755,-7.29695 1.37305,-13.32227 3.0883,-24.62886 10.18604,-37.63365 35.02344,-64.16797 8.2148,-8.77604 17.86556,-19.32423 21.44726,-23.4414 5.7888,-6.65412 14.72085,-13.82883 26.77735,-21.51172 1.86345,-1.18746 2.77197,-1.71688 2.56445,-1.125 z m 414.00003,0.76172 c 10.6995,0.6396 24.2774,3.78795 35.7949,9.14843 20.1712,9.38805 19.7539,19.1996 -1.1328,26.61524 -12.7514,4.52728 -14.816,4.00908 -31.4082,-7.89844 -16.1985,-11.62496 -21.7735,-17.24849 -21.7735,-21.96289 0,-4.67198 7.8201,-6.54195 18.5196,-5.90234 z m 211.4804,15.17578 c 17.4231,0 23.8517,0.5635 35.0703,3.07617 37.718,8.44783 88.7018,28.73106 129.6758,51.58789 17.4255,9.72059 44.9224,27.60316 54.5977,35.50781 4.0395,3.30022 10.6408,8.11224 14.668,10.69336 18.195,11.66167 55.4038,59.05268 71.4003,90.9375 8.1809,16.30654 7.9541,20.25929 -0.8789,15.29492 -2.7902,-1.56823 -10.5662,-7.85854 -17.2793,-13.97851 -37.5554,-34.23707 -95.901,-77.30316 -143.1718,-105.67969 -55.1936,-33.13256 -108.7613,-56.22843 -162.3692,-70.00391 l -22.2851,-5.72656 2.9687,-2.78906 c 1.6331,-1.53424 5.9616,-4.16966 9.6192,-5.85547 6.06,-2.79316 8.5439,-3.06445 27.9843,-3.06445 z m -905.27731,31.46875 c 1.30145,-0.25965 2.60033,-0.16928 3.8711,0.31836 5.0104,1.92271 5.77884,19.1317 1.86914,41.83008 -1.5744,9.14044 -1.47298,10.25234 2.04492,22.43164 5.0952,17.64032 3.80335,19.92017 -7.24805,12.79687 -14.0741,-9.07162 -19.2532,-19.08247 -19.0664,-36.8457 0.20763,-19.75461 9.41916,-38.71373 18.52929,-40.53125 z m 849.94341,6.03711 c 35.3245,-0.26227 56.8251,5.71156 80.6679,22.41211 5.1446,3.60349 11.3301,6.47863 17.3321,8.05468 16.3917,4.30427 44.8386,14.00967 61.2207,20.88672 83.8661,35.20616 139.7036,87.35762 161.1093,150.47461 7.1637,21.12317 10.3379,31.76572 10.3379,34.66797 0,5.49832 -7.9938,2.43198 -28.0937,-10.77734 -10.259,-6.742 -18.9904,-11.91982 -19.4024,-11.50782 -0.412,0.41206 -0.3616,1.96873 0.1114,3.45899 1.5206,4.79101 19.4738,28.58022 27.5156,36.46094 8.5354,8.36443 14.5351,18.67877 14.5351,24.98632 0,6.36116 -4.4276,5.26529 -11.7617,-2.91015 -27.4935,-30.64756 -61.6854,-55.87164 -103.5722,-76.40625 -52.4916,-25.73359 -99.6818,-37.63406 -161.0645,-40.61914 -33.2874,-1.61879 -52.7247,-5.31015 -55.5273,-10.54688 -4.0433,-7.55501 22.7617,-14.65644 66.9121,-17.72656 49.1288,-3.41632 92.8732,3.99496 108.9629,18.46094 7.3764,6.63204 15.3932,10.24255 37.5683,16.92187 24.3941,7.34772 39.479,9.28479 40.8106,5.24024 1.1226,-3.40941 -26.3268,-18.63068 -56.1563,-31.13867 -20.8692,-8.75077 -48.8379,-27.65148 -48.8379,-33.00391 0,-2.9652 10.3572,-1.57936 24.2031,3.23828 7.5876,2.64011 14.8457,5.36119 16.129,6.04688 3.388,1.81023 2.8874,0.255 -1.9278,-5.98829 -23.5824,-30.57605 -59.5044,-56.05264 -102.957,-73.01953 -29.5209,-11.527 -56.0362,-17.00739 -87.4473,-18.07226 -26.5674,-0.90066 -37.4566,0.213 -62.3359,6.36914 -30.0367,7.43228 -51.2334,4.4399 -47.6875,-6.73242 2.0765,-6.54254 12.3804,-9.61335 36.0234,-10.73633 12.1598,-0.57756 27.8402,-2.39441 40,-4.63477 16.4994,-3.03992 24.0828,-3.71646 43.3321,-3.85937 z m -937.52544,29.18945 c 1.6291,1.62904 6.34707,40.79691 5.01367,41.62109 -4.2648,2.63574 -36.62029,4.03588 -48.15429,2.08399 -4.8492,-0.82064 -5.0308,-0.98792 -2,-1.85156 1.8333,-0.52241 5.4333,-1.01545 8,-1.09571 6.7069,-0.20974 17.32208,-5.57108 22.33398,-11.27929 5.2305,-5.95722 8.56254,-12.33776 11.74414,-22.49024 1.3185,-4.20777 2.6975,-7.35343 3.0625,-6.98828 z m 36.87305,7.57422 c 1.67766,1.47945 2.28624,7.60132 1.67969,18.23828 -0.7186,12.60526 -3.63205,20.61148 -7.02735,19.30859 -1.0883,-0.41762 -3.17928,-4.64624 -4.64648,-9.39648 l -2.66602,-8.63672 4.56836,-9.89258 c 3.6675,-7.93768 6.41414,-11.10054 8.0918,-9.62109 z M 1036.711,557.33406 c 2.4335,0 18.1808,27.70101 28.0567,49.35547 4.6348,10.16261 16.0161,37.53546 25.291,60.83008 9.2749,23.29461 20.3594,50.08082 24.6328,59.52539 22.332,49.35605 48.542,84.44683 81.5957,109.24414 12.1456,9.11174 36.0898,12.9882 80.9981,13.10938 49.9689,0.13481 68,2.41528 68,8.60156 0,5.45575 -39.3593,27.98575 -52.5762,30.0957 -3.7164,0.59331 -18.7571,0.85649 -33.4238,0.58594 -20.7096,-0.382 -29.6125,-1.12354 -39.8575,-3.32031 -65.6143,-14.06916 -115.0694,-50.11457 -141.8105,-103.36133 -6.4201,-12.78371 -12.7617,-30.3575 -14.916,-41.33399 -1.9768,-10.07259 -5.5746,-19.58063 -12.8633,-34 -3.1508,-6.23334 -6.6252,-15.23334 -7.7227,-20 -2.4723,-10.73779 -6.574,-39.43198 -5.9179,-41.40039 0.6177,-1.85315 19.9933,20.07031 32.0722,36.28907 5.0976,6.84484 13.5141,19.64531 18.7032,28.44531 5.1891,8.8 10.4851,17.76226 11.7675,19.91601 l 2.3301,3.91602 0.9121,-4.85742 c 1.2534,-6.68116 -2.2749,-22.97748 -7.2148,-33.32813 -6.3807,-13.36953 -15.787,-26.90514 -36.8321,-53 -31.0962,-38.55774 -37.9824,-50.12559 -37.9824,-63.79687 0,-4.50637 0.9149,-7.81448 3.0313,-10.95508 3.1592,-4.68791 10.7928,-10.56055 13.7265,-10.56055 z m -390.98239,8.875 c 29.93285,0.17348 65.15737,2.73657 114.85352,7.74219 72.2188,7.2742 88.18529,8.46103 125.37109,9.32227 48.456,1.12226 74.18592,7.77941 107.94922,27.92773 l 12.45116,7.42969 0.9863,15.68554 c 1.3837,22.01571 -0.097,52.11788 -2.705,55 -1.1084,1.22479 -2.0157,2.66284 -2.0157,3.19532 0,0.53249 -1.1721,3.53945 -2.6035,6.68164 -1.43135,3.14217 -3.25341,11.05951 -4.04881,17.59375 -0.7953,6.53426 -1.78406,12.99092 -2.19726,14.34961 -0.4132,1.3587 -2.17557,13.36 -3.91797,26.66797 -1.7424,13.30797 -4.12236,29.29596 -5.28906,35.52929 -1.1668,6.23334 -2.62042,23.03203 -3.22852,37.33203 -0.6081,14.3 -1.74846,28.40066 -2.53516,31.33399 -1.3495,5.0322 -1.15015,5.74674 3.52735,12.66601 2.7266,4.03333 10.38543,13.03333 17.01953,20 6.6342,6.96666 12.7713,14.31732 13.6387,16.33399 0.8674,2.01667 2.1903,3.66601 2.9394,3.66601 0.749,0 1.3614,0.68108 1.3614,1.51172 0,1.85064 5.1786,6.48828 7.2441,6.48828 0.8259,0 2.3844,1.29182 3.4629,2.86914 2.3484,3.43439 10.1314,11.01607 19.3808,18.87696 6.2696,5.32834 12.6542,8.76905 43.5899,23.5 16.0895,7.66146 30.1506,18.66329 48.2637,37.75981 12.4881,13.1661 15.3925,16.9685 15.3925,20.1601 0,2.1635 1.0187,7.1654 2.2637,11.1152 2.152,6.8267 2.1444,7.4919 -0.1621,13.4512 -1.3344,3.448 -3.4509,9.8676 -4.7012,14.2676 -1.2503,4.4 -3.5156,10.4074 -5.0351,13.3496 -12.582,24.3624 -11.7759,56.0131 2.1289,83.6133 7.4038,14.6959 14.2568,24.2878 26.6738,37.3359 14.9471,15.7068 30.6742,27.3101 50.166,37.0098 28.6237,14.2439 48.6535,18.0798 84,16.0859 38.2014,-2.155 56.3329,-9.8462 114.0664,-48.3789 55.425,-36.9919 74.1655,-44.9494 105.9336,-44.9824 16.4845,-0.017 31.4955,3.3741 46.9102,10.5977 6.1569,2.8852 12.0158,4.9308 13.0215,4.5449 1.0466,-0.4016 2.5929,0.6891 3.6152,2.5527 0.9822,1.7905 3.0962,5.6349 4.6992,8.543 1.6029,2.908 7.4136,9.6508 12.9121,14.9824 5.7881,5.6124 11.4868,12.6369 13.5352,16.6855 l 3.539,6.9922 -5.9648,18.5352 c -7.8954,24.5354 -10.6811,38.5338 -10.7188,53.8672 -0.031,12.7635 2.2062,22.8317 6.8731,30.9336 1.9041,3.3055 1.8237,5.0521 -0.9824,21.334 -8.4333,48.9324 -26.8601,89.736 -58.2871,129.0664 -12.742,15.9464 -42.0409,44.8934 -62.4864,61.7363 -9.5334,7.8535 -19.1339,16.734 -21.3339,19.7363 -9.1493,12.4856 -30.6094,25.7374 -49.5059,30.5703 -23.8546,6.101 -51.0893,5.9153 -98.9434,-0.6757 -13.4472,-1.8521 -26.6478,-3.3431 -29.334,-3.3125 l -4.8828,0.057 5.334,4.75 c 20.9737,18.6843 44.0834,28.2991 70.7969,29.4531 25.634,1.1073 45.4555,-3.485 73.2031,-16.959 33.0875,-16.067 61.3372,-37.7863 101.5938,-78.1113 27.5766,-27.6234 28.401,-28.6116 34.1269,-40.7773 7.0869,-15.0576 15.1984,-26.0318 28.0078,-37.8946 18.3459,-16.9901 39.7026,-26.7186 56.3262,-25.6601 10.0849,0.6422 14.4364,3.2902 19.0899,11.6211 2.6266,4.7023 3.1281,7.4324 3.039,16.5488 -0.1011,10.3352 -3.4498,26.8108 -7.2422,35.6289 -0.8875,2.0635 -8.1838,8.9792 -16.2754,15.4277 -40.9448,32.6306 -56.0257,51.6846 -61.375,77.5489 -1.7039,8.2387 -2.8262,10.5334 -7.5097,15.3339 -7.1774,7.357 -10.3836,14.5733 -10.42,23.459 -0.05,12.2667 5.3809,20.333 29.7481,44.1856 11.6119,11.3666 22.2627,22.8925 23.668,25.6133 6.964,13.4832 -1.3272,22.9954 -27.4551,31.4961 l -11.9902,3.9003 -0.4141,6.3575 c -0.2279,3.4962 0.2926,8.0616 1.1562,10.1465 2.1072,5.0873 10.2651,12.2698 18.877,16.6191 22.1572,11.1902 24.1897,17.013 10.8965,31.2246 l -6.1895,6.6191 5.1524,6.3457 c 2.8339,3.4901 8.7599,10.0451 13.1699,14.5665 10.4941,10.7585 14.9719,12.0922 33.1562,9.8769 7.2257,-0.8803 13.4631,-1.2752 13.8614,-0.8769 1.3059,1.306 -4.8859,29.6148 -9.7012,44.3515 -18.1517,55.5512 -55.3417,102.2474 -109.9648,138.0762 -16.4914,10.8171 -53.7809,29.486 -72.6661,36.3789 -26.9833,9.8486 -103.5649,52.363 -182,101.0391 -43.6383,27.0816 -74.8678,47.3715 -166.666,108.2832 -119.5894,79.3525 -146.47445,96.9029 -186.54295,121.7773 l -15.20898,9.4434 -8.8125,-12.9532 c -4.8471,-7.1234 -15.43018,-21.9511 -23.51758,-32.9511 -32.4759,-44.1719 -45.59195,-64.4205 -55.71875,-86.0157 -12.4272,-26.5007 -17.159,-46.1122 -17.375,-72.0214 l -0.15039,-18.0372 4.26367,-6.6308 c 6.2616,-9.7355 16.02378,-18.6903 24.67578,-22.6367 6.0142,-2.7434 9.65879,-3.4683 17.33399,-3.4453 12.5784,0.037 20.22387,2.1475 43.67187,12.0527 29.4304,12.4326 39.61588,14.3731 50.04688,9.5332 6.8028,-3.1562 12.89655,-9.6296 17.22265,-18.293 3.5727,-7.1548 8.73031,-22.3909 8.75981,-25.8789 0.025,-2.9228 12.1149,-14.3578 50.0175,-47.3086 69.1215,-60.0913 93.8084,-86.5158 111.9473,-119.8301 6.2378,-11.4564 13.2864,-30.8208 14.8613,-40.8222 l 0.9453,-6 -12.5878,12 c -27.4622,26.1809 -53.4745,44.1302 -89.8321,61.9844 -44.4306,21.819 -91.36325,36.8119 -166.66795,53.2421 -10.2666,2.24 -36.66601,8.0178 -58.66601,12.8399 -80.4147,17.6262 -141.01882,26.7341 -222.66602,33.4629 -33.4357,2.7555 -136.25428,3.3113 -189.33398,1.0234 -30.9079,-1.3322 -33.94258,-1.6859 -41.70508,-4.8555 -13.3991,-5.471 -22.86856,-11.7019 -32.97656,-21.6972 -11.4231,-11.2959 -19.08373,-22.3279 -26.73633,-38.5039 -9.574,-20.2378 -11.89448,-30.4392 -11.86328,-52.1621 0.024,-16.33 0.41191,-19.6323 3.09961,-26.377 8.7159,-21.8723 25.01337,-32.4597 52.14257,-33.8711 11.4056,-0.5935 15.06824,-1.3167 19.52344,-3.8574 16.2559,-9.27 9.9838,-25.2396 -27.0625,-68.9199 -19.8854,-23.4465 -25.57249,-34.816 -19.80859,-39.5996 3.2004,-2.6562 11.94356,-3.1549 25.03906,-1.4297 12.1036,1.5944 12.61254,1.5479 25.68164,-2.3262 25.0369,-7.4217 37.03073,-8.9591 69.33203,-8.8906 25.3036,0.053 31.25729,0.4771 43.33399,3.0801 17.5078,3.7739 34.57046,9.4317 49.28906,16.3437 6.2572,2.9385 16.77695,6.7854 23.37695,8.5488 21.9931,5.8764 25.43654,6.9035 28.30664,8.4395 3.6331,1.9444 17.69923,1.9781 22.60743,0.055 2.0644,-0.8092 8.2539,-2.5652 13.7539,-3.9024 15.3947,-3.7428 30.39622,-8.9288 40.66602,-14.0566 12.0074,-5.9955 14.52467,-7.9474 13.54297,-10.5059 -0.9304,-2.4247 0.17582,-2.362 -45.13868,-2.5722 -35.5291,-0.1648 -38.21721,-0.5841 -36.51171,-5.6914 0.4532,-1.3572 7.21514,-6.9668 15.02734,-12.4668 25.1344,-17.6951 28.56989,-27.669 13.86719,-40.2539 -9.518,-8.1471 -16.89879,-11.051 -28.20899,-11.0977 -8.6532,-0.036 -11.34812,-0.6623 -18.95312,-4.4062 -12.0576,-5.9359 -27.69092,-20.9536 -42.47852,-40.8047 -17.2152,-23.1098 -17.5096,-23.4526 -20.8125,-24.295 -1.65,-0.4209 -3,-1.2761 -3,-1.9003 0,-0.6244 -2.40068,-1.8556 -5.33398,-2.7344 -2.9334,-0.8789 -5.33399,-2.1014 -5.33399,-2.7188 0,-0.6172 -0.61925,-1.123 -1.37695,-1.123 -1.6667,0 -8.12319,-6.4048 -15.12109,-15 -2.8358,-3.4834 -6.14994,-6.334 -7.36524,-6.334 -2.6142,0 -6.80273,-4.5237 -6.80273,-7.3477 0,-1.0916 -0.9,-1.9843 -2,-1.9843 -1.1,0 -2,-0.6007 -2,-1.334 0,-0.7334 -0.83592,-1.334 -1.85742,-1.334 -1.0216,0 -2.2028,-0.9 -2.625,-2 -0.4221,-1.1 -1.6857,-2 -2.8086,-2 -1.1231,0 -2.04297,-0.4875 -2.04297,-1.084 0,-0.5964 -2.09941,-1.9089 -4.66601,-2.916 -2.5667,-1.007 -4.66602,-2.3177 -4.66602,-2.9141 0,-0.5966 -2.03132,-1.0859 -4.51172,-1.0859 -3.4538,0 -5.71641,-1.2045 -9.66601,-5.1445 -2.8363,-2.8295 -6.65684,-5.6017 -8.49024,-6.1621 -1.8333,-0.5603 -3.93271,-1.4663 -4.66601,-2.0137 -0.7334,-0.5476 -4.43792,-1.7241 -8.23242,-2.6133 -3.7946,-0.8892 -7.226,-2.4677 -7.625,-3.5078 -0.4239,-1.1043 -2.55666,-1.8906 -5.12696,-1.8906 -2.421,0 -8.73289,-1.2013 -14.02539,-2.668 -5.2927,-1.4666 -11.3965,-2.666 -13.5625,-2.666 -2.166,0 -4.30852,-0.6006 -4.76172,-1.334 -0.4532,-0.7333 -6.03871,-1.3504 -12.41211,-1.3731 -13.9042,-0.049 -30.9317,-2.1036 -32.7832,-3.955 -0.7352,-0.7352 -3.63561,-1.3379 -6.44531,-1.3379 -3.311,0 -5.37956,-0.7038 -5.87696,-2 -0.5599,-1.459 -2.85492,-2 -8.48242,-2 -5.6274,0 -7.92252,0.541 -8.48242,2 -0.5792,1.5093 -3.01574,2 -9.93164,2 h -9.16406 l -1.67774,-5.666 c -2.2845,-7.7104 -9.61937,-22.158 -16.07617,-31.6661 -2.9336,-4.3199 -5.33398,-8.0747 -5.33398,-8.3437 0,-0.269 4.34941,0.2716 9.66601,1.2012 5.3167,0.9297 18.75508,2.4233 29.86328,3.3203 33.9136,2.7386 59.99755,-1.3068 68.99805,-10.7012 5.175,-5.4015 5.83677,-12.4612 1.88867,-20.1445 l -3.08203,-6 -8,-0.3594 c -4.4,-0.198 -32.00068,-1.8879 -61.33398,-3.7539 -101.724,-6.471 -141.40238,-5.8942 -193.48828,2.8125 l -5.48829,0.918 -4.0664,-7.1426 c -6.6958,-11.7553 -9.62305,-22.3473 -9.62305,-34.8184 0,-19.3633 5.85353,-34.6061 21.39063,-55.6992 9.3049,-12.6324 40.11074,-43.9 73.27734,-74.373 34.9444,-32.1063 52.25004,-52.6752 63.43164,-75.3985 3.2003,-6.5036 10.22149,-17.2932 15.61719,-24 31.9277,-39.6859 53.84779,-75.7254 63.77539,-104.8515 3.7435,-10.9827 4.33021,-14.5293 4.41211,-26.668 0.084,-12.5181 -0.26667,-14.7029 -3.32617,-20.6504 l -3.42188,-6.6523 -11.8457,-3.0293 c -34.9064,-8.929 -58.5923,-30.36242 -66.7832,-60.42973 -3.224,-11.83511 -3.25456,-34.60088 -0.0645,-48.57031 5.9147,-25.9009 22.43257,-55.01571 43.13867,-76.03711 9.2281,-9.3687 14.17349,-16.55289 41.74219,-60.63086 11.2373,-17.96667 26.74875,-42.23415 34.46875,-53.92968 40.5787,-61.4757 74.76065,-98.6097 116.96485,-127.06446 18.2758,-12.32176 49.51677,-26.89542 61.88867,-28.86914 28.53485,-4.55222 53.17652,-6.76723 83.10937,-6.59375 z m 810.62699,47.48242 c 9.7372,-0.30468 16.5765,2.32869 22.8242,7.82813 3.3583,2.95612 6.1055,5.83218 6.1055,6.39258 0,0.56041 -5.5488,1.38472 -12.3321,1.83203 -15.8277,1.04369 -34.6086,4.67731 -70.334,13.60742 -25.0391,6.25889 -40.6628,9.59518 -55.3339,11.81641 -9.6473,1.46063 -32.1034,-0.25491 -40.6661,-3.10743 -8.0011,-2.66543 -22.364,-11.47391 -20.9746,-12.86328 0.8012,-0.80121 22.4224,2.93688 31.5977,5.46289 9.2395,2.54372 19.5709,2.54599 32.9433,0.01 10.1264,-1.92094 20.6336,-5.29413 65.9551,-21.17773 17.8427,-6.25324 30.4777,-9.49611 40.2149,-9.80079 z m 6.8261,6.5625 c -8.2107,-0.51714 -6.4911,2.22989 2.1192,3.38477 4.4918,0.60248 5.5457,0.37222 5.0586,-1.10547 -0.389,-1.17995 -3.0282,-2.01794 -7.1778,-2.2793 z m 210.9414,16.63672 c 13.6676,-0.77601 27.5468,-0.67667 41.1504,0.38867 31.146,2.4392 51.7164,6.98488 68.4102,15.11719 7.6112,3.70774 17.6016,12.48489 17.6016,15.46485 0,0.65333 -4.3623,-0.19576 -9.6934,-1.88868 -26.4662,-8.40461 -57.4695,-7.69475 -92.4199,2.11914 -16.9507,4.75964 -30.9852,9.92784 -65.834,24.23829 -32.2677,13.25056 -47.936,18.94585 -63.3574,23.02734 -16.5031,4.36779 -18.6445,4.14595 -9.9688,-1.03125 9.3594,-5.58526 10.1993,-9.13345 2.8594,-12.07031 -2.8716,-1.14898 -9.0527,-3.06948 -13.7363,-4.26953 -19.8999,-5.09884 -19.4886,-10.86125 1.5546,-21.77149 5.4613,-2.83153 14.1664,-7.89535 19.3458,-11.25195 23.9918,-15.54834 63.0851,-25.74424 104.0878,-28.07227 z m -419.125,40.74805 c 0.2618,-0.16289 1.3971,0.0334 3.6211,0.45703 2.5666,0.48885 15.1666,4.0835 28,7.98633 59.3915,18.06192 75.9114,21.79253 103.334,23.34375 24.735,1.3992 33.3067,2.47467 31.7656,3.98437 -0.6051,0.5928 -3.5001,1.31698 -6.4335,1.60938 -11.3062,1.12702 -54.075,0.89117 -69.3321,-0.38281 -26.2549,-2.19231 -47.334,-7.51505 -47.334,-11.95313 0,-0.69458 -8.8493,-5.75144 -19.666,-11.23633 -10.8167,-5.48491 -20.8674,-10.93192 -22.334,-12.10547 -1.2709,-1.01685 -1.8828,-1.54023 -1.6211,-1.70312 z m 507.4747,2.45312 c 12.2639,-0.10227 24.3427,0.33312 31.623,1.34571 9.6392,1.34071 16.9279,3.08013 45.8574,10.94726 6.2333,1.6951 14.4232,4.76505 18.2012,6.82227 8.8866,4.83892 21.4276,17.098 31.3476,30.64062 15.2044,20.75676 31.1188,56.64392 32.7208,73.78711 2.0055,21.4617 -10.2159,12.61816 -34.5313,-24.98828 -6.1193,-9.46412 -12.7033,-17.78726 -17.166,-21.69726 -9.0404,-7.92073 -26.9093,-17.2585 -39.9317,-20.86719 -10.5822,-2.93248 -24.5869,-3.66 -26.0136,-1.35156 -1.7463,2.82557 9.4805,10.94145 27.1914,19.65625 17.0092,8.36958 18.6288,9.50544 25.1211,17.61328 15.6041,19.48697 32.468,52.53926 34.457,67.5332 0.7826,5.89904 0.5182,7.21615 -1.9336,9.66797 -3.293,3.293 -6.5255,2.88605 -16.459,-2.07813 -3.4811,-1.73965 -10.2175,-6.68648 -14.9687,-10.99218 -10.2425,-9.28214 -19.2177,-15.37764 -32.3418,-21.96485 -30.378,-15.24735 -61.2552,-23.1099 -129.0274,-32.85351 -20.5334,-2.95208 -38.4436,-5.71417 -39.8007,-6.13867 -3.3404,-1.04484 -1.6362,-2.31757 7.6933,-5.74219 14.9775,-5.49779 25.7075,-7.10718 47.4414,-7.11719 30.0601,-0.0139 54.8532,4.2216 104.4219,17.83789 13.1751,3.61912 24.1978,6.3373 24.4941,6.04102 1.0238,-1.02373 -16.2868,-15.68823 -27.0644,-22.92774 -28.9907,-19.47366 -57.8396,-28.27884 -96.7539,-29.52929 -27.8134,-0.89373 -42.3419,0.60932 -67.1797,6.94726 -40.1108,10.23518 -72.8759,27.19895 -108.5645,56.20703 l -4.6464,3.77539 5.9785,-8.54492 c 39.2911,-56.14681 113.1625,-99.63431 187.1015,-110.14648 8.02,-1.14022 20.4685,-1.78049 32.7325,-1.88282 z m 200.9882,7.62305 c 1.8413,-2.97938 22.7797,33.98229 38.5352,68.02735 32.9777,71.2594 53.5886,140.35012 48.6875,163.20312 -1.5676,7.30942 -3.8251,11.18204 -5.5078,9.44531 -0.563,-0.58108 -3.5635,-5.55664 -6.666,-11.05664 -3.1025,-5.5 -8.7577,-14.5 -12.5684,-20 -8.884,-12.82226 -20.2272,-33.22715 -30.7168,-55.25586 -26.4408,-55.52709 -38.2056,-104.19431 -33.9883,-140.59375 0.7975,-6.88326 1.7979,-13.07914 2.2246,-13.76953 z m -945.6992,52.95117 2.4902,8.66797 c 5.9959,20.86604 15.7405,40.29575 26.1094,52.0625 3.0223,3.4298 6.032,8.62531 6.9297,11.95899 2.516,9.34391 9.8191,22.5703 17.7031,32.06054 13.8854,16.71431 33.2482,30.1989 75.1426,52.33399 38.3306,20.25215 47.8244,26.53147 51.836,34.28906 4.299,8.3134 1.6845,9.47401 -14.7754,6.55859 -45.9714,-8.14253 -87.5601,-42.34932 -132.0293,-108.59765 -22.0558,-32.85783 -36.5489,-57.19743 -36.5489,-61.37696 0,-2.07719 0.7061,-9.21556 1.5703,-15.86523 z m 493.3945,26.08008 c 2.1134,-0.3866 3.6499,0.19226 4.3204,1.93945 1.2516,3.2618 -5.8807,15.71831 -16.4004,28.64258 -5.3846,6.61533 -9.791,13.17809 -9.791,14.58203 0,1.40393 -1.624,4.48227 -3.6094,6.8418 -6.9472,8.25623 -16.4375,11.83336 -18.3418,6.91406 -0.9589,-2.47694 9.5418,-23.99681 17.0527,-34.94726 8.8989,-12.97398 20.4294,-22.81284 26.7695,-23.97266 z m 230.129,33.28711 c 16.7209,0.0287 36.5881,7.06138 44.0917,15.60742 4.6831,5.3338 4.8843,7.52429 0.9454,10.28321 -4.3457,3.04387 -16.571,2.60321 -32.9434,-1.1875 -11.5253,-2.66848 -20.0093,-3.49343 -46.5566,-4.5293 -41.0255,-1.6008 -43.4418,-3.00367 -17.3985,-10.09766 20.1189,-5.4802 43.8437,-10.08992 51.8614,-10.07617 z m -126.7618,10.25781 c 5.7044,3.56872 0.7958,13.76279 -9.7734,20.29493 -4.6002,2.84308 -16.6793,6.51289 -21.9219,6.66015 -2.9326,0.0824 -2.7822,-0.32074 2.4453,-6.56445 11.5871,-13.83953 24.8932,-23.11632 29.25,-20.39063 z m -611.3593,1.92774 c 0.9756,-0.22846 2.7385,2.3143 7.33,9.82812 12.8394,21.01107 28.612,40.81958 68.5508,86.08985 16.9103,19.16776 26.2403,31.97332 26.2403,36.01562 0,2.92894 -0.2777,2.96873 -7.3321,1.04688 -8.5028,-2.31644 -13.6835,-5.17653 -14.4101,-7.95508 -0.3884,-1.48517 -1.8273,-2.57813 -3.3946,-2.57813 -1.4961,0 -6.3913,-2.25 -10.8789,-5 -4.4875,-2.75 -9.7699,-5.9073 -11.7383,-7.01757 -10.4988,-5.92177 -22.9121,-16.00947 -22.9121,-18.61915 0,-0.65057 -1.1993,-1.56378 -2.666,-2.02929 -1.4667,-0.46551 -2.6679,-1.70527 -2.6679,-2.75586 0,-1.10823 -1.296,-1.91016 -3.0879,-1.91016 -2.353,0 -4.4362,-2.11462 -8.7461,-8.875 -5.6999,-8.94061 -6.4007,-11.02779 -10.2305,-30.45898 -1.1562,-5.86667 -3.0475,-14.86667 -4.2031,-20 -2.1808,-9.68703 -2.4448,-19.83918 -0.6426,-24.71094 0.2258,-0.61033 0.4638,-0.99416 0.7891,-1.07031 z m 709.2402,23.94726 c 15.052,-0.76835 32.9018,1.55506 54.6348,7.05274 23.2277,5.87579 39.9916,12.17202 64.2461,24.1289 30.4368,15.00457 43.1823,25.74108 37.9863,32.00196 -2.2054,2.6573 -5.9653,2.49784 -14.125,-0.60352 -15.9747,-6.0717 -27.9776,-7.17993 -64.5274,-5.95312 -18.7,0.62768 -40.3542,1.06577 -48.1211,0.97265 -24.1517,-0.28956 -38.5896,-5.69394 -50.9843,-19.08593 -6.7508,-7.29396 -15.5606,-21.8188 -15.5606,-25.6543 0,-2.90712 12.068,-8.8982 22.291,-11.06445 4.4362,-0.94003 9.1429,-1.53881 14.1602,-1.79493 z m -135.7852,25.90039 c 13.7628,-0.0185 17.6096,0.48685 27.5098,3.61719 13.4756,4.26084 36.6082,15.81213 64.1211,32.01758 25.4884,15.01306 35.9011,20.19317 50.0879,24.92187 21.067,7.02198 35.2255,6.62209 51.2441,-1.44726 9.0291,-4.5484 9.6432,-4.59031 19.0137,-1.29688 17.8885,6.28732 48.375,31.62371 55.8437,46.41016 7.9153,15.67071 2.318,24.87886 -16.8593,27.74023 l -6.3711,0.95118 11.7051,3.92578 c 23.6944,7.94477 42.8686,21.60827 53.8261,38.35547 6.7196,10.2701 4.4751,20.0425 -5.0879,22.1543 -2.0353,0.4495 -4.2998,1.0455 -5.0332,1.3242 -2.1483,0.8165 -17.8924,-0.8126 -28,-2.8965 -5.1334,-1.0584 -11.7327,-3.1844 -14.666,-4.7265 -14.8351,-7.7992 -19.195,-9.5735 -30.6933,-12.4903 -15.7142,-3.9863 -40.1583,-6.7543 -75.9746,-8.6035 -53.6822,-2.7717 -72.7577,-5.2654 -81.6446,-10.6699 -5.9879,-3.6414 -8.7787,-8.3933 -7.7304,-13.166 0.7669,-3.4914 2.3151,-4.5249 14.1289,-9.42776 7.2968,-3.02828 27.2135,-10.5136 44.2578,-16.63476 34.733,-12.47376 44.8363,-16.70334 47.4394,-19.85547 1.556,-1.88411 1.3152,-2.27695 -1.8769,-3.07813 -5.9898,-1.50333 -45.7439,0.45218 -57.0918,2.8086 -5.7853,1.20134 -19.886,5.4816 -31.334,9.51172 -51.6448,18.18101 -49.1849,17.47709 -50.3535,14.43164 -1.2468,-3.2491 1.4003,-7.1048 14.666,-21.35352 6.7136,-7.21107 11.0058,-12.58758 9.5391,-11.94922 -26.1245,11.37059 -55.3321,14.87908 -55.3321,6.64649 0,-5.18505 22.7114,-21.36881 42.9688,-30.61719 12.1042,-5.5261 28.0113,-5.4793 55.6972,0.16211 4.097,0.83483 4.4598,0.70036 2.9805,-1.09961 -0.9267,-1.12764 -9.0681,-6.94128 -18.0937,-12.91992 l -16.4102,-10.8711 -9.7129,1.37891 c -9.179,1.30184 -23.8869,5.82094 -60.7637,18.67578 -26.8005,9.34234 -40.9481,8.70811 -45.4394,-2.04101 -2.2657,-5.42266 -2.3131,-22.37973 -0.09,-31.95508 1.4054,-6.05385 2.402,-7.30927 10.8496,-13.65039 5.1165,-3.84064 13.2137,-8.61927 17.9922,-10.6211 7.8127,-3.27286 10.3001,-3.64269 24.6875,-3.66211 z m 414.8223,31.54883 c 3.2843,1.49324 7.8205,10.5043 21.6445,39.71875 10.0587,21.25729 21.6665,59.58688 19.6426,64.86133 -0.7672,1.99921 -1.0168,2.00031 -3.2226,0.004 -1.3151,-1.19008 -5.0536,-6.82133 -8.3067,-12.51368 -3.2536,-5.69331 -9.568,-13.95007 -14.0371,-18.35156 -12.3534,-12.16654 -20.5481,-31.92651 -22.4668,-54.17773 -0.9295,-10.78082 0.2192,-16.87801 3.5801,-18.99805 1.1141,-0.70273 2.0712,-1.04071 3.166,-0.54297 z m -801.4375,62.84766 c 2.6097,-1.00144 13.2624,4.5076 24.0996,12.46484 l 8.4238,6.18555 -3.2871,3.04687 c -2.7169,2.51804 -3.2871,4.30186 -3.2871,10.29102 0,6.73455 1.045,11.02956 9.3438,38.36525 1.6948,5.5824 2.7049,11.1331 2.2441,12.334 -1.1542,3.0078 -5.5809,2.7332 -11.7402,-0.7285 -2.8498,-1.6017 -5.1817,-3.9068 -5.1817,-5.1211 0,-5.1834 -5.671,-23.5368 -13.8672,-44.87699 -8.9491,-23.30068 -10.4762,-30.5303 -6.748,-31.96094 z m -585.0332,9.36523 c -5.31453,-0.44505 -10.35823,-0.31622 -19.01758,0.0605 -10.2667,0.4467 -22.8667,0.98502 -28,1.19727 -5.1333,0.21224 -10.5333,1.00486 -12,1.76171 -1.4667,0.75687 -7.7667,2.44504 -14,3.75 -15.7201,3.29103 -30.5904,9.32574 -38,15.42188 -1.4667,1.2067 -5.36797,2.95535 -8.66797,3.88476 -11.4942,3.23725 -29.67006,19.03288 -35.69336,31.01958 -2.3683,4.7129 -4.30664,9.2092 -4.30664,9.9922 0,0.783 -0.83326,2.1158 -1.85156,2.9609 -2.9239,2.4266 -4.79936,19.5713 -2.34766,21.4571 2.8593,2.1993 4.20108,7.8291 4.20508,17.6484 v 11.0176 l 8.14258,9.334 c 4.4792,5.1334 11.0474,13.1331 14.5957,17.7773 l 6.45118,8.4434 25.0664,0.3711 c 13.7867,0.2038 35.56709,0.7201 48.40039,1.1484 12.8334,0.4282 24.5334,0.4424 26,0.031 h 0.006 c 1.4667,-0.4111 3.02239,-1.3125 3.45899,-2.0039 0.4364,-0.6914 8.5364,-1.8673 18,-2.6132 18.3741,-1.4482 27.20703,-3.1399 27.20703,-5.209 0,-0.7039 0.91801,-1.2793 2.04101,-1.2793 1.123,0 2.38835,-0.9 2.81055,-2 0.4221,-1.1 1.68655,-2 2.81055,-2 1.1242,0 2.70913,-0.8319 3.52343,-1.8477 0.8141,-1.0158 5.68106,-3.4791 10.81446,-5.4746 5.1333,-1.9955 12.3333,-5.8889 16,-8.6523 9.1866,-6.9237 10.2668,-7.3594 25,-10.0977 l 13,-2.416 v -5.1191 c 0,-4.0823 -0.6068,-5.3462 -3,-6.25 -1.65,-0.6231 -10.2,-4.0008 -19,-7.5059 -45.1899,-17.9996 -70.02212,-26.2072 -84.66602,-27.9824 -12.9156,-1.5658 -30.28081,-5.7359 -35.97461,-8.6406 -20.7358,-10.5787 25.81711,-24.53425 73.97461,-22.1758 30.1453,1.4762 44.98587,5.8996 61.38867,18.3007 19.3454,14.6261 32.14119,19.1574 51.67969,18.3028 10.449,-0.457 13.35384,-1.1032 18.49024,-4.1133 18.4082,-10.7879 11.00799,-28.1367 -18.03321,-42.28325 -12.6428,-6.15852 -14.70219,-6.72979 -31.52539,-8.72461 -21.5351,-2.55353 -57.52215,-8.43469 -86.34765,-14.11133 -9.73535,-1.9172 -15.32025,-2.9358 -20.63477,-3.38086 z m 683.6055,11.75196 c 7.1017,-0.51163 18.1244,0.61451 36.0527,3.16211 24.8003,3.52409 48.6119,4.40113 56.3496,2.07421 5.2061,-1.56559 5.6644,-2.46446 -7.6992,15.10157 -19.434,25.54535 -30.3886,44.42955 -28.5508,49.21875 2.0581,5.3634 14.09,0.5895 39.1211,-15.5234 9.1529,-5.8918 15.2436,-8.9473 17.8418,-8.9473 3.8196,0 3.9231,0.1663 3.2441,5.2285 -1.9167,14.2898 -32.1897,46.3374 -56.2656,59.5625 -14.0778,7.7331 -22.6396,9.6604 -31.7129,7.1406 -2.7475,-0.763 -7.0628,-3.5151 -9.5879,-6.1152 -2.5252,-2.6001 -8.1351,-6.4036 -12.4687,-8.4531 -4.3335,-2.0494 -8.2981,-4.8141 -8.8086,-6.1446 -1.5458,-4.0283 3.2734,-8.7583 16.8965,-16.5859 15.6099,-8.9692 19.6308,-12.5462 19.6308,-17.4629 0,-5.7361 -10.8769,-12.5866 -27.5664,-17.3613 -3.2404,-0.927 -5.6673,-3.4532 -10.3457,-10.7656 -3.3617,-5.2544 -7.1326,-12.7885 -8.3789,-16.74223 -2.0266,-6.429 -2.0567,-7.56132 -0.2812,-10.7246 2.2457,-4.00098 5.4275,-6.15049 12.5293,-6.66211 z m 680.709,2.14257 c 0,-0.63231 1.35,-0.43661 3,0.43555 4.4842,2.37026 26.7919,19.05811 33.1269,24.78122 7.0751,6.392 20.9647,24.2188 26.3633,33.836 7.037,12.536 4.8288,16.34 -6.209,10.6953 -2.7208,-1.3915 -9.8999,-6.0732 -15.9531,-10.4043 -10.2446,-7.3299 -11.3998,-8.6534 -16.6973,-19.1367 -3.1301,-6.1942 -9.7267,-17.5167 -14.6601,-25.16019 -4.9333,-7.6435 -8.9707,-14.41457 -8.9707,-15.04688 z m -790.3165,64.17967 c 0.3025,-0.8547 0.8604,-0.5697 1.8809,0.2676 2.8233,2.3163 14.5904,27.2834 16.5762,35.1699 3.0263,12.0184 -1.1117,12.6523 -16.3711,2.5078 l -8.9453,-5.9472 3.2539,-8.6485 c 2.1499,-5.7119 3.2558,-11.4072 3.2558,-16.7793 0,-3.7215 0.047,-5.7156 0.3496,-6.5703 z m -617.09956,6.7637 c 11.4789,0 11.51561,0.012 16.41211,4.9082 4.4283,4.4283 4.96101,5.7301 5.44531,13.3359 0.4783,7.5124 0.1525,8.9353 -3,13.0684 -4.5327,5.9427 -9.3749,7.3512 -23.7168,6.9023 -9.0695,-0.2838 -12.20578,-0.902 -14.33398,-2.8281 -2.3862,-2.1594 -2.72103,-4.0544 -2.70313,-15.2598 0.013,-7.0363 0.4612,-13.3936 1,-14.1269 2.9829,-4.0602 9.73889,-6 20.89649,-6 z m 1218.71486,2.0801 c 34.2457,2.3642 58.7772,12.2507 67.0898,27.041 l 3.0449,5.4199 -3.498,2.291 c -3.1364,2.0551 -9.79,3.9455 -15.2676,4.3379 -1.1,0.079 -5.9012,-0.4738 -10.6679,-1.2285 -4.7666,-0.7548 -17.0654,-3.6787 -27.3321,-6.498 -10.2667,-2.8193 -25.4856,-6.4091 -33.8183,-7.9766 -16.9047,-3.18 -29.1901,-7.57 -31.3907,-11.2168 -4.5569,-7.552 23.4615,-14.129 51.8399,-12.1699 z m 103.9804,36.5547 c 10.5119,0.7059 31.2935,7.1018 48.7208,15.6562 12.3923,6.0829 17.0387,9.2225 24.2265,16.3731 6.6054,6.571 9.1315,10.1093 9.8145,13.75 0.9521,5.0752 -0.027,11.6075 -1.7325,11.5605 -0.5361,-0.015 -6.3746,-3.9492 -12.9746,-8.7422 -22.3686,-16.2445 -27.4105,-19.3895 -45.7187,-28.5097 -19.4947,-9.7113 -30.2169,-16.669 -28.9199,-18.7676 0.7169,-1.16 3.08,-1.5557 6.5839,-1.3203 z m -709.0195,0.033 c 3.6558,0 12.0177,5.2447 16.8008,10.539 9.5781,10.6018 11.6416,22.0439 5.3281,29.5469 -3.0303,3.6014 -12.1575,9.1129 -15.2636,9.2168 -0.4816,0.016 -2.6741,-4.32 -4.8731,-9.6367 -8.326,-20.131 -10.3333,-32.4899 -6.0449,-37.2285 1.2137,-1.341 3.0372,-2.4375 4.0527,-2.4375 z m 61.6817,4.8379 c 1.3345,1.4588 7.5375,20.4997 9.2832,28.4941 3.3467,15.326 -6.3415,27.0735 -26.8926,32.6074 -8.5706,2.3079 -29.0874,2.5958 -36.332,0.5098 l -5.3321,-1.5371 12.541,-2.5157 c 28.7756,-5.7732 39.9129,-17.6126 30.1231,-32.0195 l -3.334,-4.9062 3.9062,1.3613 c 7.4867,2.6099 12.0368,-2.7903 14.0372,-16.6602 0.5151,-3.5718 1.4159,-5.9724 2,-5.3339 z m 456.0859,2.33 c 20.8642,-1.2479 45.3066,1.708 45.3066,6.9942 0,3.0601 -10.7104,4.7791 -36.666,5.8847 -20.0888,0.8558 -27.9556,1.7596 -38,4.3692 -6.9667,1.81 -14.7674,3.3418 -17.334,3.4023 l -4.666,0.1094 4.666,-3.9688 c 5.9787,-5.0855 18.7568,-11.4937 28.0606,-14.0722 5.1221,-1.4196 11.6781,-2.3028 18.6328,-2.7188 z m 123.4844,42.5782 c 2.9487,-1.1315 31.3108,1.4071 55.8222,4.9961 32.6766,4.7846 56.5021,12.1461 74.6075,23.0527 8.8337,5.3213 24.4024,17.8284 26.0976,20.9648 1.7473,3.2327 4.3255,24.937 3.4004,28.6231 -0.4532,1.8057 -1.5971,3.2832 -2.543,3.2832 -0.9459,0 -7.9838,-5.1861 -15.6406,-11.5254 -17.2261,-14.2623 -32.8879,-24.6418 -44.8125,-29.6953 -5.0098,-2.1231 -25.9099,-9.7178 -46.4433,-16.877 -49.3414,-17.2034 -56.5918,-20.48 -50.4883,-22.8222 z m -315.3496,58.2734 c -17.9556,0.023 -28.3377,2.116 -41.9375,8.4551 -26.6488,12.4215 -43.7035,34.6534 -52.3106,68.1914 -2.9052,11.3204 -3.3571,15.6517 -3,28.6953 0.39,14.2466 0.7382,16.0106 4.8086,24.2773 4.9698,10.0933 12.1366,17.072 22.4981,21.9063 8.9629,4.1817 22.8379,7.0687 34.1093,7.0976 8.5066,0.021 9.2984,0.2956 14.543,5.0235 7.8859,7.109 11.765,16.123 11.7812,27.375 0.017,11.6869 -3.1447,20.9838 -14.7675,43.4277 -5.0708,9.7919 -9.2188,18.9426 -9.2188,20.334 0,3.9628 8.1512,3.1549 21.709,-2.1523 27.8421,-10.8989 48.319,-27.75 55.0098,-45.2696 3.5894,-9.3986 2.2478,-24.2752 -3.2188,-35.7109 -10.4956,-21.9561 -31.6155,-42.4249 -80.0918,-77.6172 -19.3271,-14.0308 -21.2076,-15.7442 -19.7793,-18.0313 4.1364,-6.6233 12.2076,-7.335 30.3711,-2.6777 25.8327,6.6236 35.5856,0.7815 40.8496,-24.4648 1.0883,-5.2197 2.6926,-9.9684 3.5645,-10.5547 2.3073,-1.5516 12.7464,0.2003 18.4101,3.0898 14.1715,7.2297 24.3344,30.7568 29.0489,67.252 0.7578,5.8667 2.3038,22.4881 3.4355,36.9355 1.1318,14.4473 2.4137,27.1961 2.8496,28.3321 1.4389,3.7496 4.1705,2.1567 7.1426,-4.1661 3.8456,-8.1811 16.8772,-46.0403 20.8027,-60.4355 15.7797,-57.8671 -29.7631,-109.3975 -96.6093,-109.3125 z m -107.1446,157.3125 c -8.1501,0 -13.0242,8.3354 -20.9863,35.8926 -10.431,36.1024 -15.6883,46.1954 -28.2402,54.207 -8.807,5.6212 -9.6994,16.2282 -1.6231,19.2988 4.7826,1.8183 16.4603,1.4722 21.291,-0.6308 3.5929,-1.5642 4.0454,-2.3305 3.5157,-5.9395 -0.9921,-6.76 0.8896,-13.2458 5.2988,-18.2676 5.2742,-6.0069 10.3968,-8.5795 27.7305,-13.9296 26.1893,-8.0836 31.58,-12.6206 30.3398,-25.5274 -1.6994,-17.6864 -24.3886,-45.1035 -37.3262,-45.1035 z" />
  </g>
</svg>
