<?xml version="1.0" encoding="UTF-8" standalone="no"?>
<svg
   xmlns:dc="http://purl.org/dc/elements/1.1/"
   xmlns:cc="http://creativecommons.org/ns#"
   xmlns:rdf="http://www.w3.org/1999/02/22-rdf-syntax-ns#"
   xmlns:svg="http://www.w3.org/2000/svg"
   xmlns="http://www.w3.org/2000/svg"
   id="svg54"
   version="1.1"
   viewBox="0 0 191.47778 211.43628"
   height="211.43628mm"
   width="191.47778mm">
  <defs
     id="defs48" />
  <metadata
     id="metadata51">
    <rdf:RDF>
      <cc:Work
         rdf:about="">
        <dc:format>image/svg+xml</dc:format>
        <dc:type
           rdf:resource="http://purl.org/dc/dcmitype/StillImage" />
        <dc:title></dc:title>
      </cc:Work>
    </rdf:RDF>
  </metadata>
  <g
     transform="translate(1.1591213,-101.83488)"
     id="layer1">
    <path
       id="path67"
       d="m 49.080098,312.96166 -50.2392193,-0.22346 0.26066476,-79.29987 c 0.1433777,-43.61491 0.83830159,-90.48382 0.94791036,-104.75073 l 0.20661012,-26.8928 95.27161306,0.26035 94.790983,-0.22027 -0.21993,65.48119 c -0.12097,36.01466 -0.22759,83.68864 -0.237,105.94217 -0.009,22.25353 -0.37683,40.2582 -0.81655,40.01039 -0.43974,-0.24784 -7.68708,-0.53721 -16.1052,-0.64309 -15.15283,-0.19063 -20.1905,-0.88874 -14.99387,-2.07808 2.38477,-0.54581 2.47926,-0.71826 1.13544,-2.07233 -0.80619,-0.81232 -1.4658,-2.10407 -1.4658,-2.87055 -0.59682,-3.00258 -1.88134,-1.22039 -1.89582,0.51856 0,3.75864 -2.81244,7.15725 -5.22437,6.31327 -1.31704,-0.46086 -1.46488,-0.84462 -0.6216,-1.61359 1.47222,-1.34251 1.41677,-3.49375 -0.0785,-3.04401 -0.65169,0.19601 -1.69853,1.28818 -2.32629,2.42701 -1.04996,1.90476 -1.77139,2.08764 -9.00514,2.28293 -10.39894,0.28072 -10.72273,0.13378 -7.9414,-3.60357 0,0 9.15832,0.88299 -9.79048,3.8676 -1.85501,0 -2.12232,-1.88214 -0.49955,-3.51729 0.9168,-0.92379 1.38776,-1.93413 1.04659,-2.24526 -0.96324,-0.87836 -4.42358,2.38186 -4.42358,4.16778 0,1.41586 -0.84212,1.59477 -7.50575,1.59477 -4.12817,0 -8.07384,0.0973 -8.76817,0.21611 -0.69433,0.11884 -23.870062,0.11565 -51.501631,-0.007 z m 58.490152,-6.90857 c 1.40991,-2.25773 4.5028,-6.24429 6.87309,-8.85907 5.20561,-5.74249 9.53983,-11.02375 21.3705,-26.03991 4.95283,-6.28641 13.09437,-15.58868 18.09232,-20.67169 10.3038,-10.47916 13.18871,-13.9327 13.18871,-15.78838 0,-1.46481 -9.31725,-11.83705 -10.63307,-11.83705 -1.11554,0 -8.71157,5.21126 -13.56924,9.30916 -16.24335,13.70282 -20.92085,18.31107 -26.64005,26.24572 -3.41455,4.73724 -7.05163,10.83075 -8.08241,13.54116 -3.53649,9.29903 -8.559651,20.46354 -10.767316,23.93147 -1.251543,1.96601 -2.052526,4.40728 -1.847665,5.63144 1.571862,9.39293 1.098183,8.64394 5.465991,8.64296 3.76255,-8.3e-4 4.12916,-0.23056 6.54914,-4.10581 z m 39.61851,-0.36589 c -15.23166,-8.70001 -3.8067,1.44132 -4.39223,3.26176 -0.54846,1.38455 -0.25402,1.31334 1.87067,-0.45239 1.38686,-1.15256 2.52156,-2.41672 2.52156,-2.80925 z m -62.901307,-2.1265 c 3.986828,-1.72518 8.616409,-6.80321 12.502802,-13.71394 3.986095,-7.08801 14.377935,-35.83056 14.377935,-39.7676 0,-4.81167 3.94043,-22.9184 4.87316,-22.39275 0.44786,0.25242 0.8143,2.91 0.8143,5.90577 0,2.99576 0.27433,7.27196 0.60964,9.50267 0.54042,3.59541 0.85555,4.02616 2.77589,3.79429 1.21602,-0.14677 6.69224,-4.24285 12.48399,-9.33762 5.67475,-4.99182 12.78599,-11.02088 15.80275,-13.39794 l 5.48503,-4.32193 0.88333,-7.34726 c 1.15241,-9.58544 2.35841,-13.50565 5.45131,-17.71986 4.892,-6.66561 6.28047,-13.14235 6.20769,-28.95687 -0.0755,-16.39059 -1.16521,-21.42592 -7.06076,-32.62434 -5.91218,-11.22998 -15.39656,-19.08682 -28.61936,-23.70821 -7.38372,-2.58062 -37.197273,-3.32198 -47.855122,-1.19 -18.194257,3.63956 -26.291484,7.03807 -38.623743,16.2109 -11.660342,8.67305 -16.507719,14.96635 -21.833247,28.34588 -2.272222,5.7086 -2.524541,7.36042 -2.112596,13.83016 0.257306,4.04098 0.771397,8.02796 1.142435,8.85993 1.317841,2.95497 2.36807,1.44254 2.400899,-3.45753 0.07816,-11.66811 4.464284,-21.98249 12.696954,-29.85819 4.933247,-4.71935 9.071674,-7.41538 9.071674,-5.90984 0,0.9463 -5.657753,7.26626 -9.555444,10.67381 -4.816376,4.21073 -6.018968,7.31129 -5.793787,14.9377 0.270934,9.17591 1.14891,11.91502 4.034908,12.58804 2.895668,0.67526 5.943718,-0.64788 5.256177,-2.28172 -0.284748,-0.67665 -0.153615,-1.23028 0.291417,-1.23028 0.445027,0 1.475041,-0.92675 2.288917,-2.05943 l 1.479775,-2.05942 -3.284488,0.67551 c -2.688241,0.55286 -3.453313,0.38784 -4.214485,-0.90911 -1.099938,-1.87415 -1.073211,-9.85903 0.04329,-12.93524 0.475065,-1.30888 0.567288,0.19112 0.233902,3.80427 -0.475564,5.15384 -0.312596,6.12379 1.198182,7.13115 3.051559,2.03474 7.156915,1.43568 9.848426,-1.43708 2.235391,-2.38596 2.966142,-2.6114 8.761189,-2.70309 4.940131,-0.0782 6.21321,-0.35945 5.823021,-1.28668 -0.659817,-1.56793 1.702167,-1.51956 4.024867,0.0823 1.782043,1.22911 1.767843,1.26995 -0.450766,1.29659 -2.926547,0.035 -2.120569,0.75273 2.457227,2.18783 2.439471,0.76476 3.625193,1.65752 3.625193,2.72949 0,1.0092 -0.521117,1.45335 -1.421865,1.21188 -0.782024,-0.20973 -3.682166,-0.53848 -6.444756,-0.73075 -4.108588,-0.28592 -5.617184,0.0196 -8.287734,1.67777 -1.795663,1.11502 -3.267757,2.34973 -3.271317,2.74383 -0.0035,0.39409 -1.925996,2.46691 -4.272073,4.60624 -4.601486,4.19603 -5.395994,6.34642 -2.34483,6.34642 2.401682,0 9.560303,6.43051 11.214846,10.07419 1.893362,4.16962 8.652025,5.05547 15.511995,2.03312 4.239348,-1.86773 5.978238,-1.62773 3.038175,0.41936 -3.739554,2.60375 -9.64214,4.761 -13.026861,4.761 -3.248462,0 -3.492363,0.18107 -3.492363,2.59314 0,1.42625 0.42656,2.59317 0.947911,2.59317 0.521351,0 0.94791,1.54692 0.94791,3.43761 0,2.76866 0.490991,3.73096 2.523112,4.94514 2.932894,1.75237 12.35142,1.91796 17.690944,0.31106 3.246178,-0.97696 11.913328,-0.74345 13.89678,0.37437 1.818849,1.02507 5.462341,8.57499 6.634171,13.74714 1.1766,5.19315 0.57048,16.08196 -0.89518,16.08196 -0.41767,0 -0.978502,-3.59801 -1.246306,-7.99557 -0.536621,-8.81202 -1.666245,-12.94163 -4.433354,-16.20719 -1.622567,-1.91487 -2.512084,-2.15406 -7.810608,-2.10045 -3.288723,0.0333 -9.026822,0.37795 -12.751332,0.76596 l -6.771832,0.70547 -0.551171,3.14312 c -0.303146,1.72873 -1.636126,4.48413 -2.962179,6.12311 -2.568299,3.17441 -8.644263,6.43262 -9.537609,5.11452 -0.294184,-0.43408 0.573522,-1.17349 1.928243,-1.64317 7.215708,-2.50168 9.358179,-9.70937 4.425333,-14.88772 -1.487595,-1.56163 -3.23335,-3.75629 -3.879456,-4.877 -0.859084,-1.49015 -1.456783,-1.78048 -2.224412,-1.08047 -1.479032,1.3487 -6.907743,1.18931 -10.055972,-0.29525 -1.46077,-0.68883 -3.985911,-2.6337 -5.611426,-4.32193 -1.625515,-1.6882 -3.313608,-3.06949 -3.751318,-3.06949 -0.43771,0 -0.827748,-1.92879 -0.866747,-4.28622 -0.06962,-4.20943 -2.501842,-9.49557 -4.672593,-10.15539 -3.237102,-0.98396 -1.210835,13.43682 2.127378,15.14037 1.33499,0.68126 1.340302,1.14021 0.0532,4.59725 -2.348941,6.30898 -4.434504,16.76317 -4.434504,22.22859 0,9.40388 4.688328,17.58127 9.260432,16.15206 1.68849,-0.5278 6.282147,-5.95911 8.631459,-10.20542 1.611766,-2.91322 6.342373,-6.67534 8.393768,-6.67534 0.990916,0 0.327552,1.03351 -1.968547,3.06697 -1.904704,1.68681 -3.463095,3.3694 -3.463095,3.73904 0,0.36966 1.059869,1.58005 2.355261,2.68978 1.295394,1.10973 2.622949,3.41414 2.950125,5.12089 0.773823,4.03679 2.850683,6.99438 4.906495,6.9872 0.900345,-0.002 5.262746,-2.50219 9.694224,-5.55343 8.063258,-5.55188 14.998472,-11.5205 12.322828,-10.60532 -2.889251,0.98825 -10.985301,3.15224 -13.658382,3.65076 -1.516576,0.28283 -4.23945,1.86567 -6.050821,3.51744 -3.791822,3.4577 -5.091306,3.31763 -2.282847,-0.24608 2.47297,-3.138 8.714183,-6.0211 15.650703,-7.22979 3.764856,-0.65603 6.539249,-1.78573 8.768168,-3.5703 4.034435,-3.23017 4.078153,-3.97715 0.252926,-4.32162 -1.654239,-0.14898 -3.18284,-0.75737 -3.396893,-1.35194 -0.239116,-0.6642 0.156651,-0.89007 1.026332,-0.58575 0.778534,0.27242 2.713031,-0.11663 4.298881,-0.86434 3.666761,-1.72907 7.086441,-0.50668 8.734895,3.12237 1.787938,3.93611 -0.464505,27.64622 -3.043899,32.04116 -1.921119,3.27335 -2.52126,0.15461 -1.12315,-5.83648 1.748598,-7.49312 2.188667,-23.88599 0.654238,-24.37111 -0.588947,-0.18621 -2.154494,1.3314 -3.47901,3.37244 -3.190146,4.91598 -9.030152,9.91455 -17.794238,15.23048 -10.981784,6.66108 -15.165669,13.93883 -10.657042,18.53763 5.318302,5.42469 6.304774,8.21067 6.929456,19.57007 0.638613,11.6127 1.517076,14.02632 6.553677,18.00658 2.94103,2.32421 7.47236,2.52557 12.069378,0.53638 z m -50.61089,-69.13268 c 0,-1.13455 0.425471,-2.06279 0.945489,-2.06279 0.577447,0 0.537578,-0.4482 -0.102428,-1.15141 -0.774957,-0.85148 -0.709967,-1.57282 0.249514,-2.76939 0.952776,-1.18819 1.04131,-2.13054 0.33328,-3.54758 -0.999484,-2.00033 -0.436372,-4.633 0.990973,-4.633 1.264749,0 3.543049,4.39308 3.209693,6.18902 -0.178362,0.96097 0.439242,1.86224 1.539099,2.24602 1.451294,0.50641 1.667905,1.05337 1.031624,2.60502 -0.442966,1.08021 -1.45548,2.19151 -2.250031,2.46953 -0.79455,0.27803 -1.444941,0.9501 -1.445307,1.49351 -3.7e-4,0.54339 -1.013448,1.04108 -2.251287,1.10594 -1.776283,0.0931 -2.250617,-0.31682 -2.250619,-1.94487 z m 9.619166,-11.9218 c -0.937305,-2.22735 7.500049,-8.92408 10.206977,-8.10127 0.605763,0.18426 -0.434961,1.16138 -2.31272,2.17166 -1.877762,1.01027 -4.091376,3.03114 -4.91914,4.49081 -1.675966,2.95539 -2.225144,3.22099 -2.975117,1.4388 z m 81.854131,-3.75347 c -2.55246,-0.52998 -1.96975,-1.67363 1.14187,-2.24112 1.63256,-0.29775 3.49633,-1.51453 4.46849,-2.91731 0.91728,-1.32359 3.49599,-4.2962 5.73048,-6.6058 2.23448,-2.30963 4.06269,-4.84372 4.06269,-5.6313 0,-0.7876 0.87869,-2.92696 1.95263,-4.75416 4.38957,-7.4683 2.8888,-18.12501 -2.93957,-20.8734 -5.37361,-2.53394 -17.4973,-0.45361 -17.4973,3.00241 0,1.65561 7.78197,3.46495 10.72604,2.49386 2.56999,-0.84773 5.12825,0.18916 7.23564,2.93282 2.37295,3.08933 1.81984,5.23409 -4.30793,16.70446 -1.96595,3.68004 -7.05007,7.18393 -8.50228,5.85968 -0.484,-0.44136 -0.48943,-2.76733 -0.0129,-5.49732 0.45438,-2.60277 0.63193,-5.02401 0.39457,-5.38056 -0.23737,-0.35656 0.20826,-0.64831 0.99029,-0.64831 0.78202,0 1.68548,0.38898 2.0077,0.86439 1.07345,1.58383 2.36977,0.89122 2.36977,-1.26615 0,-2.62578 -3.50103,-4.75213 -4.38107,-2.66084 -0.73292,1.74166 -3.78516,1.7191 -4.52265,-0.0333 -1.39506,-3.31512 -0.66538,-4.68301 2.50533,-4.69663 1.69439,-0.007 3.72055,-0.42774 4.50257,-0.93437 1.03943,-0.67334 -0.0787,-0.7803 -4.15693,-0.39764 -3.06834,0.2879 -5.94444,0.72952 -6.39134,0.98138 -0.4469,0.25186 0.0671,2.03035 1.14235,3.95219 1.0752,1.92185 1.77292,3.66021 1.55049,3.86304 -1.08522,0.9896 -3.6768,-1.03747 -4.16351,-3.25659 -0.64419,-2.93718 -1.94267,-3.91055 -3.41979,-2.56359 -3.72767,3.39921 -16.864338,-4.06475 -21.729815,-12.34638 -1.143577,-1.9465 -0.506382,-1.82669 8.432935,1.58561 5.91419,2.25754 15.37595,4.31249 16.2378,3.52658 0.25634,-0.23375 -1.0897,-1.01777 -2.99119,-1.74225 -3.75826,-1.43189 -12.00042,-8.15882 -12.00042,-9.79425 0,-1.80746 1.66487,-1.08966 7.67584,3.30937 3.24808,2.37706 6.40942,4.32192 7.0252,4.32192 0.61578,0 1.89166,-0.77795 2.83529,-1.72875 1.59322,-1.60536 1.59926,-1.72878 0.0846,-1.72878 -0.8971,0 -2.5138,-0.43078 -3.59266,-0.9573 -2.80866,-1.37068 -0.55628,-2.44628 5.40388,-2.58051 l 4.73955,-0.10682 -6.63537,-1.11851 c -3.64945,-0.61517 -8.55488,-2.16232 -10.90096,-3.43805 l -4.2656,-2.31958 3.31769,0.59504 c 1.82472,0.32728 5.02392,0.92711 7.10932,1.33297 2.0854,0.40588 6.64315,0.75489 10.12832,0.77559 3.48518,0.0196 7.48128,0.43445 8.88022,0.91947 4.03166,1.39778 11.39547,7.01727 14.0793,10.74428 3.34593,4.64643 3.20556,8.58994 -0.19537,5.48869 -0.88471,-0.80676 -1.13749,-0.0789 -1.13749,3.27477 0,2.56254 -0.74687,5.64789 -1.84084,7.60456 -1.01246,1.81089 -2.11664,4.4376 -2.45372,5.83712 -0.64859,2.69279 -12.69906,16.65636 -15.42651,17.87559 -0.8838,0.39508 -2.35338,0.56331 -3.26574,0.37388 z m 21.59155,-15.56048 c 2.3842,-5.12729 3.21264,-7.97913 3.24948,-11.18598 0.0228,-1.99244 0.46816,-3.86302 0.98951,-4.15685 2.05623,-1.15883 1.23105,9.50321 -1.05122,13.58264 -1.80807,3.23179 -4.5851,4.76519 -3.18777,1.76019 z m -86.76035,-1.45186 c 0,-0.23767 0.853119,-0.84853 1.895821,-1.35739 1.042699,-0.50887 1.895818,-0.73073 1.895818,-0.49301 0,0.23767 -0.853119,0.84853 -1.895818,1.3574 -1.042702,0.50886 -1.895821,0.73072 -1.895821,0.493 z m 14.218646,-4.93278 c 2.346077,-1.02777 6.02789,-2.05057 8.18181,-2.27285 4.237875,-0.43737 10.776388,1.10997 10.776388,2.55021 0,0.52437 -0.681302,0.61689 -1.658842,0.22518 -4.190219,-1.67867 -11.162129,-1.37112 -19.671244,0.86777 -1.041539,0.27403 0.0258,-0.34264 2.371888,-1.37041 z m 26.457494,-4.93122 c -6.789883,-3.92658 -10.688453,-7.44067 -15.480603,-13.95387 -4.301745,-5.84667 -6.237342,-9.93974 -6.237342,-13.18965 0,-2.34177 1.83218,-1.79679 2.886753,0.85868 2.85216,7.18185 8.106631,13.62518 15.681456,19.22942 3.215196,2.37878 6.244046,4.32504 6.730796,4.32504 1.19759,0 5.03411,3.31941 5.03411,4.35559 0,1.62836 -4.43618,0.79149 -8.61517,-1.62521 z m -34.514728,0.72715 c 0.322213,-0.47542 1.178887,-0.86439 1.903718,-0.86439 0.724832,0 2.59907,-1.25008 4.164975,-2.77794 1.565907,-1.52788 3.185677,-2.46921 3.599498,-2.09185 1.086639,0.99087 -5.957067,6.59857 -8.288347,6.59857 -1.081126,0 -1.702054,-0.38897 -1.379844,-0.86439 z M 152.36482,173.8032 c -4.17227,-9.10873 -14.30925,-20.69249 -22.23844,-25.41238 -1.30337,-0.77584 -2.0271,-1.73322 -1.60829,-2.12748 1.33219,-1.25407 9.46778,3.37329 15.36536,8.73953 4.61785,4.20181 6.28229,6.53168 8.76816,12.27372 1.68758,3.89809 3.06834,7.69059 3.06834,8.42774 0,2.43841 -1.8467,1.39202 -3.35513,-1.90113 z m 1.17043,-19.03698 c -0.91373,-4.16606 -15.76988,-19.30209 -23.11343,-23.54886 -2.30213,-1.33133 -3.75295,-2.6645 -3.22402,-2.96259 2.10011,-1.18356 11.1793,4.22462 18.19603,10.8388 5.79715,5.46456 7.53758,7.74565 8.88064,11.63932 1.09223,3.16652 1.34851,5.13635 0.74038,5.69088 -0.60813,0.55454 -1.12026,-0.0196 -1.4796,-1.65755 z m -102.365366,-0.0147 c -1.234421,-0.23448 -0.594308,-0.83795 2.330563,-2.19719 3.26058,-1.51524 4.389058,-2.70117 5.895698,-6.19585 1.024807,-2.37706 1.999595,-4.4816 2.1662,-4.67676 0.753267,-0.88245 4.106175,2.98856 4.106175,4.74069 0,2.29252 -2.892439,7.25307 -4.265595,7.31553 -0.521351,0.0245 -2.654148,0.33418 -4.739549,0.68996 -2.085401,0.35577 -4.557474,0.50141 -5.493492,0.32362 z m 31.169097,-4.48961 c -2.922068,-0.51347 -5.185987,-2.02903 -10.663986,-7.13885 -4.229333,-3.94508 -6.954386,-7.20708 -6.954386,-8.32475 0,-2.21924 1.533586,-2.42986 2.367116,-0.3251 0.961109,2.4269 14.300019,12.03684 18.960171,13.65975 7.136767,2.48538 5.070113,3.67168 -3.708915,2.12895 z m 7.048355,-3.09892 c -2.855834,-1.2122 -5.415193,-2.49822 -5.68746,-2.85787 -0.272264,-0.35964 -2.414544,-1.85744 -4.760621,-3.32845 -7.866495,-4.93235 -15.330073,-13.39909 -13.379496,-15.17778 0.897059,-0.81801 6.693833,3.36371 12.431586,8.96803 6.00019,5.86061 16.575,10.29483 26.465975,11.09762 6.19895,0.50313 8.54025,2.00686 4.61683,2.96524 -5.3818,1.31461 -14.47695,0.54456 -19.686814,-1.66679 z m -18.979269,0.06 c -1.51896,-0.79182 -1.839249,-1.24633 -0.892105,-1.26596 0.812718,-0.0172 2.305676,0.54045 3.317684,1.23847 2.356403,1.62523 0.67602,1.64427 -2.425579,0.0274 z m -33.176842,-9.8828 c 0,-1.67818 9.189241,-9.29654 13.502459,-11.19426 2.473526,-1.08829 4.738136,-2.33403 5.032472,-2.76831 0.80896,-1.19358 5.168083,-0.94623 5.126473,0.29089 -0.01988,0.59428 -2.685984,2.25286 -5.924436,3.68575 0,0 -7.137142,3.25418 -8.126873,4.43752 -0.840535,1.08565 -8.332577,6.35519 -9.035571,6.35519 -0.315987,0 -0.574524,-0.36305 -0.574524,-0.80676 z M 142.4276,134.18487 c -2.85554,-1.70376 -6.25829,-3.97394 -7.56167,-5.04488 -7.52158,-6.18013 -16.68369,-8.7129 -31.51826,-8.7129 -11.235045,0 -14.127441,-0.61483 -7.583017,-1.61195 22.371197,-3.4085 37.494957,0.55549 49.009167,12.84541 6.32431,6.75039 5.75801,7.35969 -2.34622,2.52432 z M 77.495687,113.9122 c -2.174943,-3.20903 26.076503,-6.13186 28.932953,-2.99332 1.03353,1.13561 0.13583,1.30053 -7.230238,1.32834 -4.625648,0.0172 -11.304016,0.54246 -14.840808,1.16663 -3.536791,0.62414 -6.624652,0.84841 -6.861907,0.49835 z m 32.724593,-1.69673 c 0,-0.98269 4.77013,-0.98269 9.00514,0 2.26356,0.5252 1.63505,0.68069 -3.08071,0.76209 -3.39245,0.0586 -5.92443,-0.26715 -5.92443,-0.76209 z m -56.527665,95.12667 c 3.810077,-1.32094 4.311203,-7.12473 1.142555,-13.2325 -3.146506,-6.06509 -10.252228,-12.27027 -13.178308,-11.50816 -6.072766,1.58172 -6.992291,1.5534 -7.504063,-0.2313 -0.316745,-1.10448 0.03552,-1.94513 0.949077,-2.26481 0.799029,-0.2796 1.239505,-0.70285 0.978829,-0.94054 -1.065727,-0.97184 -3.382099,0.71375 -3.399551,2.47379 -0.01021,1.03884 -0.163799,2.6249 -0.341081,3.52455 -0.177287,0.89964 0.210848,1.80726 0.862534,2.0169 0.651689,0.20974 1.18489,-0.25767 1.18489,-1.03846 0,-0.78081 0.426559,-1.17924 0.947908,-0.88541 0.521351,0.29381 0.94791,1.70043 0.94791,3.12577 0,7.83324 4.110071,15.064 10.240906,18.01659 4.144153,1.9958 4.136127,1.99475 7.168394,0.94348 z"
       style="fill:#000000;stroke-width:0.90518391" />
  </g>
</svg>
