<?xml version="1.0" encoding="UTF-8" standalone="no"?>
<!-- Created with Inkscape (http://www.inkscape.org/) -->

<svg
   xmlns:dc="http://purl.org/dc/elements/1.1/"
   xmlns:cc="http://creativecommons.org/ns#"
   xmlns:rdf="http://www.w3.org/1999/02/22-rdf-syntax-ns#"
   xmlns:svg="http://www.w3.org/2000/svg"
   xmlns="http://www.w3.org/2000/svg"
   xmlns:sodipodi="http://sodipodi.sourceforge.net/DTD/sodipodi-0.dtd"
   xmlns:inkscape="http://www.inkscape.org/namespaces/inkscape"
   width="294.2955"
   height="480.30228"
   id="svg2"
   version="1.1"
   inkscape:version="0.48.4 r9939"
   sodipodi:docname="Mr Neutral_5.svg">
  <title
     id="title3203">Ninja Head</title>
  <defs
     id="defs4" />
  <sodipodi:namedview
     id="base"
     pagecolor="#ffffff"
     bordercolor="#666666"
     borderopacity="1.0"
     inkscape:pageopacity="0.0"
     inkscape:pageshadow="2"
     inkscape:zoom="0.51"
     inkscape:cx="146.96321"
     inkscape:cy="38.411088"
     inkscape:document-units="px"
     inkscape:current-layer="svg2"
     showgrid="false"
     fit-margin-top="0"
     fit-margin-left="0"
     fit-margin-right="0"
     fit-margin-bottom="0"
     inkscape:window-width="1366"
     inkscape:window-height="744"
     inkscape:window-x="0"
     inkscape:window-y="24"
     inkscape:window-maximized="1" />
  <metadata
     id="metadata7">
    <rdf:RDF>
      <cc:Work
         rdf:about="">
        <dc:format>image/svg+xml</dc:format>
        <dc:type
           rdf:resource="http://purl.org/dc/dcmitype/StillImage" />
        <dc:title>Ninja Head</dc:title>
        <dc:date>2015</dc:date>
        <dc:creator>
          <cc:Agent>
            <dc:title>Doodleguy</dc:title>
          </cc:Agent>
        </dc:creator>
        <dc:rights>
          <cc:Agent>
            <dc:title>PD</dc:title>
          </cc:Agent>
        </dc:rights>
        <cc:license
           rdf:resource="http://creativecommons.org/licenses/publicdomain/" />
      </cc:Work>
      <cc:License
         rdf:about="http://creativecommons.org/licenses/publicdomain/">
        <cc:permits
           rdf:resource="http://creativecommons.org/ns#Reproduction" />
        <cc:permits
           rdf:resource="http://creativecommons.org/ns#Distribution" />
        <cc:permits
           rdf:resource="http://creativecommons.org/ns#DerivativeWorks" />
      </cc:License>
    </rdf:RDF>
  </metadata>
  <g
     inkscape:label="Layer 1"
     inkscape:groupmode="layer"
     id="layer1"
     transform="translate(-228.03679,-90.47099)">
    <path
       style="fill:#000000"
       d="m 344.15751,569.34337 c -1.54497,-2.49979 0.91852,-17.975 4.72927,-29.70864 1.955,-6.01959 3.55786,-12.10759 3.56189,-13.52888 0.005,-1.42129 2.31949,-7.08953 5.14545,-12.59607 2.82597,-5.50655 4.8399,-10.31012 4.47541,-10.67462 -0.69932,-0.69932 1.56684,-5.36569 5.6492,-11.63247 1.34644,-2.06692 2.90693,-5.29459 3.46777,-7.17263 0.90568,-3.03278 0.54017,-3.37805 -3.26872,-3.08783 -2.35864,0.17973 -5.28373,-0.29403 -6.50022,-1.05276 -1.21649,-0.75874 -2.88823,-1.50325 -3.715,-1.65449 -7.33605,-1.34191 -9.9352,-1.98852 -11.24361,-2.79717 -0.8373,-0.51748 -2.89169,-1.20458 -4.56532,-1.52688 -3.72115,-0.71664 -12.04374,-6.4174 -14.71628,-10.0803 -1.08034,-1.48067 -2.84821,-2.69213 -3.9286,-2.69213 -1.10352,0 -1.86291,-1.48216 -1.73289,-3.38222 0.24506,-3.58156 -0.37414,-4.26525 -19.94694,-22.02434 -6.7443,-6.11934 -12.26237,-11.70388 -12.26237,-12.41007 0,-0.70619 -3.10725,-4.34725 -6.90499,-8.09125 -3.79775,-3.74398 -7.04492,-7.62966 -7.21596,-8.63485 -0.17102,-1.00517 -1.40117,-4.19516 -2.73366,-7.08883 -1.33247,-2.89368 -3.60555,-8.98166 -5.05128,-13.52889 -1.44572,-4.5472 -3.73822,-10.29696 -5.09446,-12.77727 -1.35623,-2.4803 -3.29487,-7.35403 -4.3081,-10.83052 -1.01323,-3.4765 -3.39167,-8.21161 -5.28543,-10.52246 -4.22311,-5.15327 -6.03656,-9.95613 -9.24869,-24.4949 -1.36998,-6.20073 -3.02498,-12.62695 -3.67781,-14.28048 -0.65281,-1.65352 -1.98882,-6.36026 -2.96891,-10.45939 -0.98009,-4.09913 -2.6823,-9.51068 -3.78268,-12.02567 -5.03527,-11.50838 -5.5656,-14.22496 -4.60195,-23.57336 0.54201,-5.25818 1.13776,-11.92787 1.32388,-14.82155 0.56202,-8.73803 3.99805,-16.6597 10.90352,-25.13777 6.67216,-8.19162 7.09369,-9.14836 6.62134,-15.02839 -0.2903,-3.61376 12.43006,-24.47182 14.92425,-24.47182 0.83637,0 3.55591,-3.60623 6.04342,-8.01387 3.89781,-6.90652 15.72515,-19.34965 32.33158,-34.01488 5.87419,-5.18753 19.11981,-13.68102 28.44518,-18.23988 4.07013,-1.98977 11.84924,-8.11183 17.2869,-13.6046 12.23996,-12.36398 20.14353,-16.59744 37.69602,-20.191431 2.06691,-0.423213 6.04084,-1.385001 8.83096,-2.137306 6.46745,-1.743827 26.26039,-0.705594 26.9671,1.414551 0.29465,0.883956 1.15441,1.224835 1.91055,0.757508 0.75615,-0.467328 1.37482,-0.09339 1.37482,0.830953 0,0.924352 0.71113,1.241139 1.58028,0.703974 0.86916,-0.537166 3.36814,0.944912 5.55331,3.293505 2.18515,2.348596 4.46795,4.117756 5.07286,3.931466 0.60492,-0.18629 1.5419,1.67393 2.08219,4.13382 0.54028,2.45989 1.62784,4.47253 2.4168,4.47253 0.78895,0 2.83135,2.36757 4.53866,5.26123 1.70732,2.89368 3.97969,5.26123 5.04972,5.26123 2.59176,0 4.051,4.10657 2.57593,7.24915 -0.85429,1.82001 0.15354,3.77657 3.62183,7.03134 2.64302,2.48029 5.68317,4.72458 6.7559,4.98731 1.07274,0.26272 2.86592,1.78472 3.98484,3.38222 1.11893,1.59749 2.674,2.90453 3.45569,2.90453 2.07737,0 11.93714,10.81239 11.93714,13.09046 0,1.06791 0.67645,1.94163 1.50321,1.94163 0.82677,0 1.50321,0.96636 1.50321,2.14746 0,1.18108 0.8859,3.0413 1.96868,4.13382 2.83716,2.86268 7.05058,16.651 7.05058,23.07285 0,4.46087 1.40835,7.06963 7.51604,13.9223 4.13383,4.63806 7.51605,9.51539 7.51605,10.83853 0,1.32314 0.77866,3.18436 1.73037,4.13608 0.9517,0.95169 2.30463,4.97653 3.00651,8.9441 2.53803,14.3468 4.12398,22.44888 6.56136,33.51988 1.36515,6.20074 2.37673,12.28873 2.24794,13.52888 -0.12883,1.24015 -0.20922,6.58957 -0.17875,11.88762 0.0496,8.62908 -0.42111,10.17552 -4.51773,14.84132 -2.51523,2.86468 -5.30572,6.81636 -6.20111,8.7815 -0.89537,1.96513 -2.19583,3.57298 -2.88989,3.57298 -0.69405,0 -1.26191,1.01467 -1.26191,2.25481 0,1.24015 -0.67645,2.25482 -1.50321,2.25482 -0.82677,0 -1.39397,0.50735 -1.26047,1.12741 0.37309,1.73286 -2.72777,8.62885 -6.73313,14.97376 -2.66815,4.22663 -3.28794,6.60615 -2.36825,9.09234 0.70119,1.89547 0.66202,3.36746 -0.0896,3.36746 -0.73444,0 -1.81228,2.19846 -2.39523,4.88543 -0.58293,2.68698 -1.64908,5.26216 -2.36919,5.72263 -0.72013,0.46046 -1.56087,4.086 -1.86832,8.05679 -0.30745,3.97076 -1.18773,7.6527 -1.95617,8.18206 -0.76844,0.52935 -1.49995,2.5927 -1.62556,4.58523 -0.12567,1.99252 -1.10782,4.18059 -2.1827,4.86242 -1.07487,0.68181 -1.34214,1.24999 -0.59392,1.26265 0.74821,0.012 0.31142,1.20679 -0.97065,2.65363 -1.28208,1.44685 -3.45056,6.01284 -4.81887,10.14666 -3.35952,10.1495 -5.87573,15.7837 -7.04892,15.7837 -0.53533,0 -1.39775,1.69111 -1.9165,3.75802 -0.51878,2.06691 -1.58554,3.75802 -2.37061,3.75802 -0.78507,0 -1.03803,1.01467 -0.56214,2.25481 0.4759,1.24015 0.195,2.25482 -0.62421,2.25482 -0.8192,0 -3.6759,4.39688 -6.34823,9.77086 -2.67233,5.37397 -5.45666,9.77085 -6.1874,9.77085 -0.73076,0 -1.32865,0.87982 -1.32865,1.95514 0,2.85557 -3.55526,10.04513 -4.97414,10.05881 -0.66887,0.006 -0.83579,0.62713 -0.37092,1.37929 1.03968,1.68224 -0.61173,6.36054 -1.95268,5.53179 -0.53345,-0.32968 -1.0694,0.85797 -1.19101,2.63924 -0.3384,4.95666 -2.19724,13.49863 -3.48528,16.01596 -0.63455,1.24015 -2.02117,7.95157 -3.08138,14.91427 -1.06023,6.9627 -3.23919,16.09469 -4.84217,20.29332 -4.78757,12.54003 -8.45503,24.91752 -7.39818,24.96857 0.54428,0.0263 -0.0922,0.87186 -1.41437,1.87901 -2.38657,1.81795 -2.85725,2.7329 -2.85725,5.55415 0,3.17412 -12.72335,7.53315 -24.14954,8.27368 -13.97091,0.90543 -29.8951,4.3575 -38.59306,8.36626 -7.13026,3.28622 -10.2863,3.66646 -11.68242,1.40747 z m 22.50933,-16.77249 c 3.33731,-0.6559 12.95218,-2.47042 21.36641,-4.03223 21.22821,-3.94028 23.03323,-4.48578 23.03323,-6.96082 0,-1.19892 1.50631,-5.06978 3.34733,-8.60188 1.84104,-3.53211 3.49696,-7.10426 3.67983,-7.93813 0.18286,-0.83388 1.41041,-5.23658 2.72789,-9.78379 3.20189,-11.0512 3.53852,-12.58177 5.45522,-24.80295 0.90765,-5.78735 2.1773,-11.53713 2.82146,-12.77728 1.57111,-3.0248 3.1664,-15.03209 1.99718,-15.03209 -0.51019,0 -4.49449,2.36756 -8.85399,5.26124 -4.35952,2.89367 -8.8038,5.26123 -9.87619,5.26123 -1.07241,0 -4.67821,0.95823 -8.01292,2.1294 -3.3347,1.17116 -9.28607,2.95295 -13.22526,3.95951 -5.84572,1.49374 -7.31428,2.55292 -7.98969,5.76246 -1.71512,8.15027 -7.09467,24.32633 -8.34753,25.10065 -0.71696,0.4431 -1.30355,2.75512 -1.30355,5.13783 0,2.38271 -0.68748,4.75708 -1.52773,5.27638 -0.84025,0.5193 -1.09181,1.64952 -0.55903,2.51159 0.5328,0.86208 0.20979,2.03645 -0.71777,2.60971 -1.51256,0.93482 -4.56882,11.8999 -5.13658,18.42873 -0.12056,1.38614 -0.64309,2.25825 -1.16122,1.93804 -0.93588,-0.57841 -7.43297,7.37444 -7.43297,9.09843 0,0.49565 0.82082,0.3939 1.82404,-0.22613 1.00322,-0.62003 4.55455,-1.66398 7.89184,-2.3199 z m 26.5369,-84.6099 c 2.1636,-0.43775 6.56049,-1.94166 9.77086,-3.34205 3.21039,-1.40039 6.17529,-2.60493 6.58867,-2.67673 0.41338,-0.0719 2.10449,-0.9724 3.75802,-2.00126 2.59424,-1.61419 2.18206,-1.73631 -3.00641,-0.89072 -3.30706,0.53896 -6.68928,1.3794 -7.51605,1.86764 -0.82676,0.48825 -2.51787,1.11542 -3.75802,1.39373 -4.97373,1.11621 -37.37179,1.4488 -45.47663,0.46686 -11.34048,-1.37397 -9.07205,0.59911 4.95381,4.30881 10.71533,2.83409 23.41525,3.154 34.68575,0.87372 z m 2.83065,-17.27722 c 3.72044,-0.76435 9.38931,-1.81592 12.59751,-2.33683 3.20818,-0.52089 8.28151,-2.45602 11.27407,-4.30026 2.99254,-1.84425 8.25365,-4.25235 11.69134,-5.3513 5.85225,-1.87086 24.56544,-17.84768 24.56544,-20.9733 0,-0.70092 1.32055,-2.95319 2.93455,-5.00507 2.70665,-3.44095 6.69356,-12.7393 8.56459,-19.9745 1.00395,-3.88224 3.22601,-9.1556 6.73709,-15.98836 1.54478,-3.00625 2.79864,-7.40314 2.78633,-9.77086 l -0.0224,-4.30496 -4.86308,5.41446 c -2.67467,2.97795 -6.55417,6.49535 -8.62108,7.81642 -2.06691,1.32108 -8.49313,5.69264 -14.28048,9.71455 -20.48005,14.23259 -37.45094,22.2827 -54.86713,26.02615 -3.72045,0.79967 -8.79378,1.93692 -11.27407,2.52723 -7.53242,1.79268 -58.64875,1.32509 -61.02527,-0.55823 -1.16019,-0.91946 -4.1388,-2.15591 -6.61909,-2.74764 -4.32049,-1.03081 -14.48661,-7.6899 -15.53316,-10.17465 -0.27559,-0.65431 -1.09137,-1.18967 -1.81287,-1.18967 -0.72148,0 -4.70245,-1.99923 -8.84662,-4.44269 -4.20194,-2.47755 -7.92749,-3.80741 -8.42253,-3.00642 -0.48821,0.78995 -0.26319,1.43627 0.50003,1.43627 0.76324,0 2.53483,3.0037 3.93688,6.67488 3.45264,9.04066 32.05226,37.68195 43.88396,43.94792 3.82279,2.02454 17.66817,6.88649 20.36705,7.15211 0.55117,0.0543 1.39133,0.48783 1.867,0.96351 1.28798,1.28798 36.67071,0.0561 44.48194,-1.54876 z m -19.26206,-46.78759 c 3.04749,-0.7958 6.09148,-1.30363 6.76444,-1.12849 4.02188,1.04663 31.86848,-8.18738 39.94332,-13.2453 16.90905,-10.5915 26.17004,-16.99474 28.78182,-19.90032 1.57497,-1.75214 3.63258,-3.18572 4.57244,-3.18572 3.01746,0 20.37333,-19.79158 20.37333,-23.23249 0,-0.53452 -2.19845,0.70269 -4.88543,2.74937 -2.68699,2.04668 -8.81616,5.78707 -13.6204,8.31201 -4.80422,2.5249 -9.53933,5.10219 -10.52246,5.72729 -0.98312,0.62511 -2.12572,1.17466 -2.5391,1.22126 -0.41338,0.0466 -4.13383,1.23351 -8.26765,2.63759 -4.13383,1.40411 -10.22182,2.837 -13.52888,3.18419 -10.40021,1.09195 -17.96478,2.76607 -20.09002,4.44621 -1.3265,1.04868 -14.07609,1.63901 -36.07701,1.67042 -29.38571,0.0419 -35.25539,-0.34178 -43.04477,-2.81414 -11.52528,-3.65815 -28.57495,-12.03305 -34.29422,-16.8455 -2.44148,-2.05436 -6.99376,-5.03853 -10.11616,-6.63147 -3.12242,-1.59293 -10.47298,-7.56073 -16.33458,-13.26179 -10.46507,-10.17841 -12.86948,-10.83138 -8.41191,-2.28439 1.23505,2.36812 2.24972,5.72282 2.25481,7.45489 0.005,1.73209 1.36215,4.3736 3.01568,5.87002 1.65353,1.49643 3.00642,3.49078 3.00642,4.43188 0,0.9411 3.38222,5.71119 7.51604,10.60021 4.13383,4.88902 7.51605,9.7268 7.51605,10.75062 0,1.87238 15.80663,15.55553 17.9696,15.55553 0.6373,0 3.7884,2.09525 7.00244,4.65613 9.14814,7.28896 24.10357,13.39805 35.90792,14.6679 12.2101,1.31347 29.15258,0.67157 37.10828,-1.40591 z m 14.75243,-42.62614 c 2.89368,-0.22566 5.59946,-0.56337 6.01284,-0.75052 0.41338,-0.18715 2.44271,-0.5032 4.50963,-0.70239 22.30448,-2.14933 24.29468,-2.68978 42.84145,-11.63393 13.0562,-6.29631 17.94268,-9.25232 23.80838,-14.40247 2.86707,-2.51734 5.81079,-4.8243 6.54159,-5.12659 0.7308,-0.30227 3.61534,-3.42449 6.41009,-6.93826 2.79475,-3.51375 5.59256,-6.38864 6.21735,-6.38864 0.62479,0 3.16532,-2.02932 5.64562,-4.50963 2.48029,-2.48029 3.93353,-4.50962 3.22943,-4.50962 -0.70412,0 -2.17409,0.87411 -3.26659,1.94249 -1.09252,1.06837 -4.35394,2.87089 -7.24762,4.00559 -2.89368,1.13472 -6.32916,2.96638 -7.63441,4.07034 -1.30525,1.10399 -3.50369,2.00725 -4.88543,2.00725 -1.38173,0 -2.51225,0.68719 -2.51225,1.52709 0,0.83991 -1.86022,1.47022 -4.13382,1.40072 -2.27361,-0.0694 -7.89617,1.23782 -12.49459,2.90514 -12.13104,4.39855 -30.24799,6.21952 -64.03953,6.43683 -22.09918,0.14205 -33.70917,-0.4773 -44.85001,-2.39277 -8.26765,-1.42148 -17.39965,-2.8861 -20.29332,-3.25473 -2.89368,-0.36862 -12.70212,-3.02046 -21.79653,-5.89295 -9.09442,-2.87247 -17.88819,-5.46119 -19.54172,-5.75265 -1.65353,-0.2915 -4.69753,-1.24085 -6.76444,-2.10969 -2.06691,-0.86884 -7.47678,-3.0577 -12.02191,-4.86412 -4.54515,-1.80639 -9.11115,-3.98754 -10.14667,-4.84694 -6.28705,-5.21778 3.99152,11.21578 11.47552,18.34729 2.16907,2.06692 5.29325,5.44914 6.94261,7.51605 2.72359,3.41308 12.04794,10.20997 26.23919,19.1268 10.64824,6.69063 13.40299,7.85475 24.29647,10.26725 6.09858,1.3506 14.80878,3.37643 19.35599,4.50184 7.49815,1.85572 24.48063,1.8632 48.10268,0.0212 z m -54.09324,-78.24802 c 0.70025,0.43279 1.64185,0.19036 2.09243,-0.53869 1.09885,-1.77797 -14.26626,-11.23309 -15.7609,-9.69871 -0.64524,0.66242 -1.61386,2.99004 -2.15249,5.17247 -0.83957,3.40178 -0.37205,4.17549 3.27584,5.4212 2.49457,0.85189 5.70681,0.91601 7.76356,0.15497 1.92959,-0.71397 4.0813,-0.94402 4.78156,-0.51124 z m 69.53382,-0.57258 c 2.06321,-2.06319 -1.65701,-8.27026 -3.89554,-6.49954 -0.97579,0.77187 -5.49462,2.25765 -10.04183,3.30171 -10.16818,2.33468 -11.39692,3.00158 -8.80393,4.77838 2.4274,1.66335 20.77241,0.38836 22.7413,-1.58055 z m 96.43548,-9.56813 c -3.48734,-10.98762 -18.42062,-28.39808 -26.70172,-31.1311 -3.02735,-0.99912 -5.50426,-2.30072 -5.50426,-2.89247 0,-2.29999 -32.3077,-15.86217 -35.61261,-14.94951 -1.70612,0.47114 -16.70133,-3.08866 -23.01254,-5.46308 -16.7511,-6.30213 -61.55178,-11.16773 -83.79198,-9.10026 -5.98751,0.55661 -11.24238,0.93357 -11.67752,0.83769 -0.43514,-0.0959 -3.7849,1.58016 -7.44392,3.72447 -3.65902,2.14433 -8.21258,4.10367 -10.11901,4.35409 -1.90645,0.25042 -5.37053,1.22298 -7.69795,2.16123 -2.32742,0.93825 -4.87754,1.70591 -5.6669,1.70591 -1.28577,0 -8.09086,4.21574 -16.98553,10.52247 -5.21905,3.70055 -12.68832,11.85118 -15.54079,16.95845 -1.46925,2.63066 -3.56041,5.73276 -4.64702,6.89358 -3.5648,3.80821 0.44351,5.09407 5.897,1.89173 2.80384,-1.64645 9.15657,-5.05152 14.11716,-7.56683 4.96059,-2.5153 10.03392,-5.22013 11.27407,-6.01073 1.24014,-0.79059 6.31347,-2.97398 11.27406,-4.85195 4.96059,-1.87797 10.03392,-4.21193 11.27407,-5.18658 2.80102,-2.20135 6.59365,-3.36173 14.07637,-4.30682 3.19478,-0.4035 7.24441,-1.18933 8.99917,-1.74627 4.82124,-1.5302 10.47529,-2.08401 31.03999,-3.04035 29.55185,-1.37429 71.609,5.63721 87.6722,14.61614 1.50749,0.84265 5.56615,2.97712 9.01925,4.74327 3.4531,1.76615 8.3077,4.67339 10.78799,6.46054 2.4803,1.78715 5.52429,3.71414 6.76444,4.28222 3.57134,1.63591 7.76277,4.33241 14.88183,9.57398 3.6378,2.67843 7.25154,4.86986 8.03055,4.86986 0.77901,0 3.13629,1.35288 5.23841,3.00641 4.85361,3.81785 5.36568,3.77289 4.05519,-0.35609 z m 0.95468,-31.04301 c -0.8763,-1.6374 -1.59327,-4.96826 -1.59327,-7.40192 0,-7.11502 -3.6486,-13.92241 -12.90795,-24.08306 -16.15932,-17.73228 -48.06275,-34.41369 -70.94718,-37.09627 -3.07218,-0.36014 -9.98269,-1.25727 -15.35666,-1.99365 -5.37398,-0.73637 -13.15308,-1.19493 -17.28691,-1.01902 -4.13382,0.1759 -13.60404,0.51967 -21.04492,0.76394 -11.51924,0.37817 -15.31522,1.21493 -25.55456,5.63307 -6.61412,2.8539 -12.87122,5.23671 -13.90468,5.29513 -1.03346,0.0585 -1.87901,0.6699 -1.87901,1.35887 0,0.68896 -0.50733,1.14344 -1.12741,1.00993 -0.62007,-0.13349 -3.15674,0.65217 -5.63703,1.74595 -2.4803,1.09379 -5.01696,1.87946 -5.63704,1.74596 -0.62007,-0.13349 -1.1274,0.47362 -1.1274,1.34917 0,0.87556 -0.67645,1.17386 -1.50321,0.66289 -0.82677,-0.51096 -1.5048,-0.38177 -1.50676,0.2871 -0.002,0.66887 -9.16881,5.95123 -20.37077,11.73857 -22.17353,11.45569 -27.04539,15.11806 -31.49428,23.67554 -1.61183,3.10037 -3.42941,5.63704 -4.03908,5.63704 -0.60967,0 -1.83253,1.3529 -2.71747,3.00642 -2.5275,4.72266 -0.64841,3.62652 9.01925,-5.26124 4.94622,-4.5472 10.03491,-8.26765 11.30819,-8.26765 1.27328,0 2.70441,-1.01466 3.1803,-2.25481 0.4759,-1.24015 1.89299,-2.25481 3.14908,-2.25481 1.25612,0 6.27731,-2.02932 11.1582,-4.50963 4.88091,-2.48029 9.87618,-4.50963 11.10062,-4.50963 1.22442,0 5.09374,-1.27335 8.59849,-2.82967 5.46825,-2.42825 20.03208,-5.57956 40.19445,-8.69728 16.3706,-2.53139 49.6059,-0.62343 49.6059,2.84777 0,0.73731 0.67644,0.9225 1.50321,0.41153 0.82676,-0.51095 1.50321,-0.23388 1.50321,0.61572 0,0.84961 1.01466,1.15538 2.25481,0.67949 1.31761,-0.50562 2.26438,-0.0174 2.27783,1.1746 0.0188,1.67048 0.26428,1.6588 1.35541,-0.0645 1.0968,-1.7323 2.08308,-1.51388 5.57807,1.23526 2.33511,1.8368 4.47915,2.63918 4.76452,1.78306 0.3099,-0.9297 2.73696,-0.36776 6.02653,1.39534 3.02922,1.62357 6.58013,2.95193 7.8909,2.95193 4.13722,0 35.21034,13.98973 51.17247,23.03885 10.66525,6.04626 14.62705,9.32333 20.19193,16.7021 l 4.46376,5.91875 0.46586,-4.72188 c 0.25623,-2.59705 -0.25111,-6.06157 -1.1274,-7.69893 z m -258.20591,-0.17037 c 0.43269,-1.65466 0.17338,-2.62942 -0.57629,-2.1661 -0.74966,0.46332 -1.36302,1.81714 -1.36302,3.00851 0,3.11127 1.02143,2.66756 1.93931,-0.84241 z m 27.89216,-45.25144 c 4.6752,-2.56677 9.77678,-4.91332 11.33686,-5.21457 1.56007,-0.30123 3.92763,-1.5001 5.26123,-2.66414 5.85845,-5.11355 25.8567,-15.79439 35.49533,-18.95766 5.78736,-1.89933 13.22824,-4.83501 16.5353,-6.52374 5.47037,-2.79343 8.92858,-3.08415 38.33183,-3.22243 35.13198,-0.16525 53.21494,1.31262 61.63157,5.03691 3.65938,1.61925 6.2797,3.10973 28.44459,16.1798 11.37286,6.70628 12.46866,6.277 8.46098,-3.31472 -8.61915,-20.62851 -42.70163,-45.58346 -65.77124,-48.15724 -4.37962,-0.48862 -10.01817,-1.41699 -12.53009,-2.06304 -4.58949,-1.18039 -6.00443,-1.1535 -25.68878,0.48806 -19.08203,1.59135 -40.25111,7.75247 -53.68105,15.62355 -8.4106,4.92932 -11.58869,7.29388 -19.64274,14.61463 -1.81916,1.65353 -6.68765,6.05043 -10.81886,9.77086 -4.13119,3.72044 -9.63063,9.80845 -12.22098,13.52888 -2.59033,3.72044 -7.12259,9.42399 -10.0717,12.67455 -7.85994,8.66337 -7.2998,8.91347 4.92775,2.2003 z m 157.83048,-77.4078 c -1.1086,-2.27461 -4.38319,-5.44631 -7.27687,-7.04822 -2.89368,-1.60192 -5.59945,-3.42781 -6.01283,-4.05754 -0.41339,-0.62974 -3.27924,-2.49251 -6.36857,-4.13952 -5.32675,-2.83984 -6.14225,-2.87869 -15.7837,-0.75194 -12.44,2.74407 -29.07051,7.53431 -31.5081,9.0756 -1.18703,0.75055 -1.3228,1.892 -0.39883,3.35306 1.14394,1.8089 1.40506,1.83046 1.42387,0.11755 0.0188,-1.71216 2.71622,-1.93164 14.6793,-1.19442 8.06096,0.49673 16.3474,1.21154 18.41431,1.58843 2.06691,0.37688 6.86446,1.10893 10.66121,1.62677 11.85716,1.61721 15.22294,2.40815 19.2531,4.52445 4.93075,2.58918 5.42933,2.06033 2.91711,-3.09422 z"
       id="path3201"
       inkscape:connector-curvature="0" />
  </g>
</svg>
