<?xml version="1.0" encoding="UTF-8" standalone="no"?>
<!-- Created with Inkscape (http://www.inkscape.org/) -->

<svg
   xmlns:dc="http://purl.org/dc/elements/1.1/"
   xmlns:cc="http://creativecommons.org/ns#"
   xmlns:rdf="http://www.w3.org/1999/02/22-rdf-syntax-ns#"
   xmlns:svg="http://www.w3.org/2000/svg"
   xmlns="http://www.w3.org/2000/svg"
   xmlns:sodipodi="http://sodipodi.sourceforge.net/DTD/sodipodi-0.dtd"
   xmlns:inkscape="http://www.inkscape.org/namespaces/inkscape"
   width="60.742485mm"
   height="67.462257mm"
   viewBox="0 0 215.22928 239.03949"
   id="svg2"
   version="1.1"
   inkscape:version="0.91 r13725"
   sodipodi:docname="woman face.svg">
  <defs
     id="defs4" />
  <sodipodi:namedview
     id="base"
     pagecolor="#ffffff"
     bordercolor="#666666"
     borderopacity="1.0"
     inkscape:pageopacity="0.0"
     inkscape:pageshadow="2"
     inkscape:zoom="1.0350447"
     inkscape:cx="340.97168"
     inkscape:cy="6.1418685"
     inkscape:document-units="px"
     inkscape:current-layer="layer1"
     showgrid="false"
     inkscape:window-width="1366"
     inkscape:window-height="705"
     inkscape:window-x="-8"
     inkscape:window-y="-8"
     inkscape:window-maximized="1"
     fit-margin-top="0"
     fit-margin-left="0"
     fit-margin-right="0"
     fit-margin-bottom="0" />
  <metadata
     id="metadata7">
    <rdf:RDF>
      <cc:Work
         rdf:about="">
        <dc:format>image/svg+xml</dc:format>
        <dc:type
           rdf:resource="http://purl.org/dc/dcmitype/StillImage" />
        <dc:title></dc:title>
      </cc:Work>
    </rdf:RDF>
  </metadata>
  <g
     inkscape:label="Layer 1"
     inkscape:groupmode="layer"
     id="layer1"
     transform="translate(1135.3766,-1.2358861)">
    <path
       style="fill:#9aa8a1;fill-opacity:1;fill-rule:evenodd;stroke:none;stroke-width:1px;stroke-linecap:butt;stroke-linejoin:miter;stroke-opacity:1"
       d="m -1091.26,235.07322 -9.8259,-12.71595 -26.5879,-11.55996 0,-12.71595 8.0919,-12.13796 -8.0919,-17.91793 -6.936,-7.51397 4.046,-30.63389 9.2479,-5.20198 17.918,-64.157763 61.8457,-47.395825 46.23988,-6.3579763 23.11991,5.7799783 20.80792,34.679872 11.55996,12.715953 -9.82596,49.129821 25.4319,21.38592 0.578,12.71595 -13.29395,26.00991 9.24797,8.66996 4.62398,14.44995 -58.37779,36.41387 -7.51397,-5.77998 0.578,-17.91794 -2.88999,-13.87195 z"
       id="path4168"
       inkscape:connector-curvature="0" />
    <path
       style="fill:#e7a192;fill-opacity:1;fill-rule:evenodd;stroke:none;stroke-width:1px;stroke-linecap:butt;stroke-linejoin:miter;stroke-opacity:1"
       d="m -1035.7722,240.2752 38.72588,-0.57799 6.35798,-49.12982 8.66997,-13.29395 8.66996,-21.38592 6.35798,-52.59781 -2.88999,-31.789883 -15.02794,2.311991 -15.60594,-10.403961 -1.156,-22.541917 -18.4959,9.247966 -46.8179,-13.293951 -9.8259,46.817827 -3.468,31.211888 -8.67,30.63388 15.606,34.10188 z"
       id="path4166"
       inkscape:connector-curvature="0" />
    <path
       style="fill:#e45a69;fill-opacity:1;fill-rule:evenodd;stroke:none;stroke-width:1px;stroke-linecap:butt;stroke-linejoin:miter;stroke-opacity:1"
       d="m -1036.6702,163.75325 4.5892,-3.62303 2.4153,-2.17382 7.9707,-2.41535 7.0045,-0.48307 7.0046,0 8.21217,8.2122 0,5.07225 -5.07227,7.24606 -1.2077,1.44921 -5.5553,2.17382 -6.763,0 -8.2122,-2.41535 -8.2122,-6.27993 -2.4153,-2.89842 z"
       id="path4193"
       inkscape:connector-curvature="0" />
    <path
       style="fill:#e65733;fill-opacity:1;fill-rule:evenodd;stroke:none;stroke-width:1px;stroke-linecap:butt;stroke-linejoin:miter;stroke-opacity:1"
       d="m -1073.3418,170.91602 -7.5137,2.31054 6.3575,10.98242 2.8906,14.45118 -20.2305,30.63281 0,10.4043 61.2676,0 -1.1563,-10.4043 -7.5136,-16.76172 -9.2481,-9.82617 -15.6055,-10.98242 -6.9355,-7.51368 -2.3125,-13.29296 z m 80.91992,21.96289 -4.625,21.38671 0,2.89063 1.15626,4.04492 -5.77928,8.0918 -4.625,10.4043 17.91795,0.57812 1.15625,-19.07422 -2.88868,-13.87109 1.73243,-5.20313 0,-5.77929 -4.04493,-3.46875 z"
       id="path4161"
       inkscape:connector-curvature="0" />
    <path
       style="fill:#ffffff;fill-rule:evenodd;stroke:none;stroke-width:1px;stroke-linecap:butt;stroke-linejoin:miter;stroke-opacity:1"
       d="m -1041.7461,106.12305 -17.666,4.96875 6.625,5.51953 15.457,0 5.5215,-3.3125 -9.9375,-7.17578 z m 60.17383,2.20703 -17.66601,2.20898 -6.62502,4.41602 11.59377,2.76172 11.04101,0.55078 7.17774,-2.20703 -5.52149,-7.73047 z"
       id="path4170"
       inkscape:connector-curvature="0" />
    <path
       style="opacity:1;fill:#8c9fb6;fill-opacity:1;stroke:none;stroke-width:5;stroke-miterlimit:4;stroke-dasharray:none;stroke-opacity:1"
       d="m -1043.1445,109.63672 a 3.9708991,3.415827 0 0 0 -3.9336,3.4375 3.9708991,3.415827 0 0 0 3.9824,3.39453 3.9708991,3.415827 0 0 0 3.959,-3.41602 l -3.9707,0 3.9707,-0.043 a 3.9708991,3.415827 0 0 0 -4.0078,-3.37305 z m 50.93747,2.94531 a 3.9708991,2.2629855 0 0 0 -3.93359,2.27735 3.9708991,2.2629855 0 0 0 3.98242,2.25 3.9708991,2.2629855 0 0 0 3.95898,-2.26368 l -3.9707,0 3.9707,-0.0273 a 3.9708991,2.2629855 0 0 0 -4.00781,-2.23633 z"
       id="path4175"
       inkscape:connector-curvature="0" />
    <path
       style="fill:#ffffff;fill-rule:evenodd;stroke:none;stroke-width:1px;stroke-linecap:butt;stroke-linejoin:miter;stroke-opacity:1"
       d="m -1029.4241,164.71939 9.6614,-2.41535 18.3567,1.69075 -12.8014,4.1061 -4.5892,0.24154 z"
       id="path4195"
       inkscape:connector-curvature="0" />
    <path
       style="fill:#000000"
       d="m -1004.8256,1.239736 c -14.6149,0.24821 -25.1642,1.153751 -31.9785,2.742188 -11.2022,2.611287 -25.439,9.246625 -31.416,14.642578 -2.8072,2.534264 -8.1059,6.268275 -11.7734,8.296875 -9.9367,5.496165 -19.1723,16.59143 -28.4512,34.181641 -1.4506,2.749999 -3.448,6.15008 -4.4395,7.55664 -3.4301,4.86609 -8.7414,16.478201 -11.4101,24.94336 -2.1461,6.807472 -2.7446,10.889462 -3.002,20.500002 -0.3885,14.50821 -0.2559,13.4989 -1.7793,13.5039 -3.9036,0.0117 -7.142,21.06706 -4.1523,26.9961 1.5592,3.09227 6.3252,8.29697 8.9355,9.75781 1.0724,0.60015 1.6306,1.4105 1.2403,1.80078 -0.956,0.95593 -6.5541,-1.43773 -8.0625,-3.44726 -0.6656,-0.8867 -1.9617,-2.201 -2.8809,-2.91993 -1.4545,-1.13759 -1.6063,-1.05152 -1.1582,0.66211 0.2832,1.08297 1.2952,2.80726 2.2481,3.83008 0.9529,1.02282 1.5408,2.43401 1.3066,3.13672 -0.2417,0.72513 0.9146,1.78323 2.6738,2.44727 4.0826,1.541 3.981,3.06379 -0.1504,2.2539 l -3.25,-0.63672 2.5,2.03516 c 1.375,1.11949 1.9114,2.04444 1.1914,2.05664 -0.7199,0.0122 -1.0313,0.47344 -0.6914,1.02344 0.34,0.55 2.5055,1.07215 4.8106,1.16015 3.8329,0.14636 3.9048,0.19498 0.8457,0.57032 -3.1018,0.38058 -3.2108,0.51236 -1.5,1.80859 1.4133,1.07085 1.4995,1.40333 0.3711,1.42773 -0.9002,0.0194 -0.1433,1.24666 1.9453,3.1543 2.2858,2.08779 4.7599,3.27313 7.4726,3.58008 2.2306,0.2524 5.3154,0.93739 6.8555,1.52148 4.3736,1.65867 10.08,-1.9793 14.293,-9.11132 2.1378,-3.61899 5.9832,-5.64385 7.1269,-3.75196 0.429,0.70966 1.5964,1.59185 2.5938,1.95899 0.9973,0.36714 1.5512,1.08959 1.2324,1.60547 -0.3188,0.51588 -0.091,1.23879 0.5059,1.60742 0.5964,0.36864 0.8335,1.32316 0.5273,2.12109 -0.3109,0.81013 -0.1204,1.18103 0.4317,0.83984 0.5437,-0.33601 0.9882,0.10757 0.9882,0.98438 0,0.87681 0.727,2.70294 1.6153,4.05859 1.0981,1.67602 1.2321,2.46485 0.4199,2.46485 -0.8237,0 -0.9781,1.00875 -0.4981,3.25 l 0.6973,3.25 -2.6172,-2.42578 -2.6172,-2.42383 0,2.78125 c 0,2.15346 -0.3645,2.6416 -1.6191,2.16015 -1.2563,-0.48209 -1.5001,-0.15708 -1.0801,1.44922 0.6358,2.43139 -0.072,1.95101 -6.293,-4.26953 -4.8336,-4.83368 -7.4003,-4.12318 -3.041,0.8418 4.4837,5.10665 3.6821,6.08421 -1.1679,1.42383 -3.558,-3.4188 -4.8505,-4.03711 -8.4356,-4.03711 -5.0739,0 -8.984,1.36508 -12.3633,4.3164 l -2.5,2.1836 2.4258,-2.75 c 1.3334,-1.5125 1.922,-2.75 1.3086,-2.75 -0.6134,0 -1.3944,0.45 -1.7344,1 -0.3399,0.55 -1.3785,0.98429 -2.3086,0.96679 -1.5596,-0.0293 -1.5554,-0.13413 0.059,-1.35937 0.9625,-0.73064 1.75,-1.80374 1.75,-2.38477 0,-0.58103 0.5625,-1.30061 1.25,-1.59961 0.6875,-0.29904 -0.036,-0.27532 -1.6093,0.0527 -2.6311,0.54863 -2.8084,0.40371 -2.2012,-1.79102 0.6123,-2.21326 0.4741,-2.16737 -1.9024,0.61524 -3.1933,3.73916 -6.1338,9.90894 -6.9101,14.5 -0.5479,3.23977 -0.4817,3.35598 0.8808,1.57226 2.1732,-2.84484 2.8891,-1.23982 1.0411,2.33399 -1.9425,3.75638 -1.0731,4.0294 1.6816,0.52734 2.0914,-2.65873 6.8331,-5.93483 13.9766,-9.6582 2.2784,-1.18757 3.6103,-2.33629 2.9609,-2.55274 -1.566,-0.52201 -0.4554,-2.22265 1.4512,-2.22265 0.8906,0 1.2066,0.4753 0.7773,1.16992 -0.4928,0.79735 -0.1687,0.95598 1.0195,0.5 0.959,-0.36796 2.9132,-0.37469 4.3438,-0.0156 2.2874,0.57409 1.9475,0.82059 -2.8281,2.03907 -2.9868,0.76207 -5.5804,1.81731 -5.7637,2.3457 -0.1833,0.52838 -1.0833,0.97022 -2,0.98242 -1.8102,0.0242 -7.3412,3.91858 -5.6172,3.95508 0.5775,0.0122 1.4775,-0.37704 2,-0.86523 0.5225,-0.48818 2.0742,-1.20406 3.4492,-1.5918 2.399,-0.67648 2.4192,-0.64699 0.5,0.75195 -1.1,0.80184 -3.125,1.80613 -4.5,2.23047 -1.375,0.42435 -3.7349,1.80301 -5.2441,3.06445 l -2.7441,2.29297 5.0742,-0.37695 c 4.3376,-0.32294 4.8982,-0.16728 3.8711,1.07031 -1.2985,1.56455 0.033,2.02277 1.5937,0.54883 0.5225,-0.49339 2.8242,-1.20016 5.1152,-1.57227 3.8328,-0.62249 4.4951,-0.37998 8.2774,3.03711 2.2609,2.04263 4.3968,3.42743 4.7461,3.07813 0.8456,-0.84559 -4.4244,-5.47502 -8.1895,-7.19531 -1.65,-0.7539 -2.325,-1.3862 -1.5,-1.4043 0.825,-0.0181 2.8041,0.64707 4.3985,1.47852 4.1252,2.1513 4.4827,0.9906 0.4648,-1.50977 -2.1792,-1.35618 -4.3311,-1.91111 -6.1133,-1.57813 -1.5125,0.2826 -2.75,0.0753 -2.75,-0.46093 0,-1.29205 5.6181,-1.24979 8.0664,0.0605 2.6706,1.42925 2.5143,-0.41718 -0.2539,-2.99609 l -2.1894,-2.03906 2.166,0 c 2.5886,0 6.4523,5.08492 4.3867,5.77344 -0.9518,0.31726 -0.8603,0.73598 0.3555,1.625 2.088,1.52678 4.4329,11.42292 4.4531,18.79296 0.017,6.03853 0.9956,7.74272 3.0352,5.28516 0.9473,-1.14144 1.5737,-1.22995 2.6132,-0.36719 0.7521,0.62413 1.3672,0.7164 1.3672,0.20508 0,-1.46208 10.6956,-14.31445 11.9121,-14.31445 0.3872,0 1.4555,1.70493 2.375,3.78906 1.8558,4.2061 4.5387,7.39421 8.2891,9.85156 3.8947,2.55188 4.1371,0.68895 0.4102,-3.15625 -1.8578,-1.91676 -2.9521,-3.49892 -2.4317,-3.51562 0.5204,-0.0167 0.1578,-0.48822 -0.8047,-1.04883 -0.9625,-0.5606 -1.75,-1.56468 -1.75,-2.23047 0,-0.66579 -1.125,-2.42338 -2.5,-3.90625 -2.5375,-2.73665 -3.2763,-6.18673 -1.5527,-7.25195 0.7397,-0.45716 4.8598,4.34632 9.7637,11.38476 0.1596,0.22916 0.5327,0.17431 0.83,-0.12304 0.5662,-0.56612 -2.9273,-6.97171 -5.5273,-10.13477 -0.8324,-1.01271 -2.4698,-2.21767 -3.6387,-2.67773 -1.6161,-0.63613 -2.0076,-1.45168 -1.6347,-3.40235 l 0.4902,-2.56445 3.7422,2.96484 c 2.0584,1.63032 5.381,4.77647 7.3828,6.99219 2.0018,2.21573 3.8661,4.0293 4.1426,4.0293 1.2725,0 0.2916,-2.44755 -1.6582,-4.13867 -1.1882,-1.0305 -1.8524,-2.18277 -1.4766,-2.5586 0.3758,-0.37583 1.4603,0.40037 2.4102,1.72461 2.2386,3.12098 3.5124,6.26603 2.2129,5.46289 -0.5426,-0.33534 -0.9864,-0.12146 -0.9864,0.47461 0,0.59608 1.0894,1.49802 2.42,2.00391 1.3306,0.5059 2.7931,1.57956 3.25,2.38672 0.4569,0.80716 2.4294,3.19581 4.3828,5.30664 1.9534,2.11083 3.8711,4.67478 4.2617,5.69922 0.5529,1.45007 1.0152,1.61129 2.0859,0.72265 1.5528,-1.28873 0.6615,-7.14981 -1.9355,-12.73633 -0.8057,-1.73312 -1.4649,-3.40012 -1.4649,-3.70507 0,-1.72586 -8.8475,-13.12907 -9.6015,-12.375 -0.5899,0.58987 2.7581,5.69826 5.8281,8.89062 2.0466,2.12815 4.7734,8.34363 4.7734,10.88086 0,0.987 0.5025,1.96176 1.1153,2.16602 0.6128,0.20426 0.9074,1.25295 0.6562,2.33203 -0.4147,1.7814 -0.5537,1.73282 -1.5137,-0.53711 -0.5815,-1.375 -2.2262,-4.20799 -3.6562,-6.29492 -1.4301,-2.08692 -2.6016,-3.9958 -2.6016,-4.24219 0,-0.24639 -0.8728,-1.4634 -1.9394,-2.70508 -1.0667,-1.24169 -2.8405,-3.31113 -3.9434,-4.59766 -1.1029,-1.28653 -3.9409,-2.91085 -6.3066,-3.60937 -3.982,-1.17574 -4.4514,-1.68606 -6.3067,-6.87305 -1.1022,-3.08167 -2.5664,-6.15905 -3.2539,-6.83984 -2.2575,-2.23547 -1.3049,-2.96851 1,-0.76953 1.2375,1.18059 3.825,3.18318 5.75,4.45117 1.925,1.26798 4.7375,3.48849 6.25,4.93359 1.8384,1.75644 2.75,2.15 2.75,1.18946 0,-1.51637 -4.1953,-5.36603 -10.6933,-9.8125 -4.1144,-2.81542 -8.9182,-10.44591 -9.5508,-15.16993 -0.2069,-1.54512 -1.0247,-3.21779 -1.8164,-3.71875 -1.1192,-0.70811 -0.9475,-0.91388 0.7715,-0.92578 2.7915,-0.0193 6.3135,-3.70795 5.6093,-5.875 -2.4512,-7.54358 -4.8779,-12.14062 -6.4101,-12.14062 -2.1609,0 -9.9102,-9.12189 -9.9102,-11.66602 0,-1.0388 0.5789,-2.77646 1.2852,-3.86133 0.7058,-1.08487 1.8939,-3.77265 2.6406,-5.97265 0.7467,-2.2 1.7816,-4.27503 2.3008,-4.61133 0.5192,-0.33631 1.1312,-2.81131 1.3594,-5.5 0.2281,-2.6887 0.6507,-6.99277 0.9394,-9.56445 0.2888,-2.57168 0.093,-4.94289 -0.4355,-5.26954 -0.5286,-0.32665 -0.9074,-1.37254 -0.8418,-2.32421 0.192,-2.78641 -1.2005,-7.23047 -2.2656,-7.23047 -0.5396,0 -0.9805,0.66101 -0.9805,1.46875 0,0.89501 -0.5863,1.2432 -1.5,0.89258 -0.825,-0.31659 -1.5,-1.62646 -1.5,-2.91016 0,-1.283701 -0.4508,-2.611773 -1,-2.951172 -0.5492,-0.339411 -0.9281,0.196956 -0.8418,1.191406 0.086,0.994446 0.085,3.146366 0,4.781246 -0.1561,2.92844 -0.1803,2.94068 -1.6504,0.8418 -0.8207,-1.17175 -1.6188,-2.95953 -1.7734,-3.97266 -0.6153,-4.031576 -2.2192,-2.023146 -1.9512,2.44336 0.2659,4.43249 0.1899,4.59588 -1.2793,2.73243 -0.8594,-1.08997 -2.6988,-5.57934 -4.0879,-9.976567 -2.0949,-6.63146 -2.4158,-9.106818 -1.875,-14.517578 0.7128,-7.13236 2.6308,-13.810282 5.2246,-18.201172 1.9302,-3.26754 2.7617,-3.489863 4.1016,-1.095703 0.8445,1.50901 1.6264,1.066951 6.205,-3.511719 5.2576,-5.257521 7.1874,-6.203246 4.7735,-2.33789 -0.8623,1.3808 -0.9608,2.406385 -0.2949,3.072265 0.6658,0.66588 2.4926,-0.327459 5.4746,-2.974609 2.4615,-2.185182 4.8121,-3.973849 5.2246,-3.974609 1.6946,-0.0031 0.5887,3.012493 -1.5,4.089843 -6.1406,3.16737 -12.75,14.416412 -12.75,21.701172 0,3.58377 0.2678,4.341533 1.2012,3.408203 1.3937,-1.39372 4.1885,-1.637689 3.3574,-0.292968 -0.3086,0.499199 -0.178,1.94497 0.291,3.21289 l 0.8535,2.306641 1.1836,-2.212891 c 0.6514,-1.21712 0.9655,-2.212893 0.6992,-2.21289 -0.9433,0 2.636,-7.532322 4.5801,-9.638672 1.0855,-1.17612 1.8509,-2.75112 1.7012,-3.5 -0.346,-1.73092 2.0862,-8.935417 3.5351,-10.472657 3.0027,-3.18572 4.5977,-5.543106 4.5977,-6.792968 0,-0.759871 0.675,-1.64045 1.5,-1.957032 0.825,-0.316583 1.5,-1.175942 1.5,-1.908203 0,-3.323741 2.2012,-3.528436 6.5293,-0.607422 3.7621,2.538997 4.8964,2.832701 8.6504,2.232422 5.0391,-0.80579 5.307,-0.761438 5.3672,0.894531 0.025,0.6875 0.7,1.07172 1.5,0.855469 0.8,-0.216252 2.4656,-0.332355 3.7031,-0.259765 1.2375,0.07259 2.25,-0.313583 2.25,-0.857422 0,-0.54384 0.6847,-0.988282 1.5215,-0.988282 0.8368,0 2.0336,-1.125 2.6601,-2.5 0.6265,-1.375 1.4765,-2.5 1.8867,-2.5 0.9659,0 -0.039,3.863197 -1.1894,4.574219 -1.1048,0.682818 -1.1521,2.425781 -0.066,2.425781 0.4463,0 1.7625,-0.886972 2.9258,-1.970703 1.4575,-1.357884 2.2429,-1.59105 2.5254,-0.75 0.3223,0.959968 0.9237,0.960356 2.8222,0.002 4.3404,-2.191127 12.8001,-5.063242 13.336,-4.527343 0.2882,0.288183 0.2449,0.976111 -0.096,1.527343 -1.3113,2.121602 -1.1118,13.984537 0.291,17.341797 2.0564,4.92171 9.14976,11.259345 13.37887,11.953125 1.92757,0.31622 4.75574,1.050693 6.28516,1.632813 1.60358,0.61036 5.13802,0.781527 8.34765,0.404297 l 5.56446,-0.654297 -0.65821,4.791016 c -0.40421,2.93892 -0.19649,5.942113 0.53711,7.769531 1.41831,3.53303 1.8076,11.579064 0.79883,16.480464 -0.88818,4.31549 -1.75877,11.44876 -2.44336,20 -0.86472,10.80114 -2.2297,19.26535 -3.83203,23.76759 -0.83535,2.34719 -1.25043,4.968 -0.92188,5.82421 0.32856,0.8562 0.0874,3.32333 -0.5371,5.48243 -0.62455,2.15911 -1.6778,5.78388 -2.33985,8.05664 -0.66205,2.27276 -1.69151,4.63526 -2.28711,5.25 -0.5956,0.61474 -2.365,3.59414 -3.93359,6.61914 -1.56858,3.025 -3.68768,6.08577 -4.70899,6.80273 -1.02132,0.71697 -3.99636,3.2893 -6.61132,5.71485 -2.61496,2.42555 -7.68084,5.81886 -11.25584,7.54296 -5.7905,2.79255 -7.2095,3.08218 -13,2.64454 -8.2574,-0.62409 -12.0894,-1.48787 -13.9903,-3.1543 -0.8298,-0.72749 -3.7858,-2.46363 -6.5683,-3.85742 -8.5511,-4.28326 -24.3572,-18.16352 -24.418,-21.44336 -0.013,-0.6875 -0.7089,-1.25 -1.5469,-1.25 -1.0293,0 0.025,2.09537 3.25,6.45898 2.6255,3.5524 5.1576,6.4774 5.627,6.5 0.4694,0.0226 4.2944,2.90629 8.5,6.4082 7.8579,6.54315 23.3639,15.0195 29.6211,16.19336 1.9394,0.36384 3.5254,1.2582 3.5254,1.98829 0,2.29667 7.9812,2.84285 12.8847,0.88085 3.4677,-1.38748 4.00626,-1.91097 2.7129,-2.63476 -0.8876,-0.49673 -2.0634,-0.625 -2.6132,-0.28516 -0.5499,0.33983 -1.675,-0.0578 -2.5,-0.88281 -1.0533,-1.05323 -1.165,-1.70561 -0.379,-2.19141 0.6158,-0.38053 1.4734,-0.12027 1.9063,0.58008 0.5123,0.82896 1.8678,1.05809 3.8867,0.6543 2.55366,-0.51073 3.10158,-0.30154 3.10158,1.1875 0,0.99459 -0.29762,2.1062 -0.66211,2.4707 -1.34021,1.34017 -1.29713,6.47195 0.0586,6.99219 0.85511,0.32801 1.17379,1.47528 0.86328,3.09961 -0.75568,3.95309 1.21734,3.06489 3.26172,-1.46875 2.63226,-5.83731 3.86792,-6.09652 3.25781,-0.68359 -0.40537,3.5964 -0.2235,4.45625 0.85352,4.04296 0.84467,-0.32413 1.36719,0.16312 1.36719,1.27344 0,1.66434 0.10527,1.65268 1.41796,-0.14258 0.78004,-1.06675 1.75135,-1.60606 2.15821,-1.19922 0.40686,0.40686 1.34393,0.23953 2.08203,-0.37304 0.95022,-0.78861 1.3418,-0.79719 1.3418,-0.0274 0,0.598 -0.95966,1.60066 -2.13282,2.22852 -2.12297,1.13618 -2.12053,1.15188 0.65039,3.36133 1.53121,1.22095 4.85532,2.76618 7.38477,3.43359 2.52945,0.66741 5.98087,1.64569 7.66992,2.17383 8.05826,2.51969 17.414,-0.4279 23.92774,-7.53711 1.65,-1.80084 5.025,-4.24462 7.5,-5.43164 7.88961,-3.7839 14.98731,-15.73237 16.67578,-28.01563 l 0,-3.10742 c -0.58322,-3.70331 -3.30992,-7.75382 -9.04297,-13.69726 -6.03065,-6.25196 -8.29531,-7.01123 -3.2168,-1.07813 4.16365,4.86427 4.08971,6.38363 -0.0976,2.00196 -2.50901,-2.62544 -3.07537,-2.82389 -4.68555,-1.64649 -1.00747,0.73667 -1.53637,1.81965 -1.17383,2.40625 0.36253,0.58659 0.0928,1.06641 -0.59961,1.06641 -0.97922,0 -0.99192,0.26589 -0.0586,1.19922 0.66,0.66 1.19922,1.95429 1.19922,2.87695 0,0.92265 0.69465,2.25495 1.54296,2.95898 1.05738,0.87754 1.21919,1.60309 0.51368,2.3086 -0.70552,0.70552 -1.81746,0.28959 -3.53321,-1.32227 -2.39947,-2.25419 -2.583,-2.27912 -4.44531,-0.59375 -1.88029,1.70164 -2.00814,1.62913 -3.99609,-2.26758 -2.94911,-5.78073 -4.53731,-6.43442 -3.80664,-1.5664 l 0.58593,3.90625 -2.17968,-2.92188 c -1.19907,-1.60669 -3.95781,-4.62368 -6.12891,-6.70508 -3.08926,-2.96164 -3.6101,-3.91394 -2.39844,-4.3789 0.85153,-0.32676 1.95271,-0.51828 2.44727,-0.42578 3.06281,0.57276 8.39844,-4.03446 8.39844,-7.25196 0,-0.93745 1.09304,-2.96851 2.42773,-4.51172 2.1049,-2.43366 2.51489,-2.58006 3.08984,-1.10156 0.38753,0.99656 -0.27982,3.38158 -1.60546,5.74024 -1.24707,2.21886 -2.01538,4.28541 -1.70704,4.59375 0.30833,0.30834 2.25212,-0.5861 4.31836,-1.98828 3.99911,-2.71387 6.25201,-3.36533 4.49024,-1.29883 -0.58611,0.6875 -2.83873,3.275 -5.00586,5.75 -3.87051,4.42037 -3.96323,6.11608 -0.22461,4.11523 1.04157,-0.55743 2.86772,-0.75817 4.05664,-0.44726 1.52345,0.39839 2.16016,0.11103 2.16016,-0.97266 0,-0.84573 2.02712,-3.56423 4.5039,-6.04102 4.83507,-4.83507 8.61265,-11.51355 10.47266,-18.51171 1.36792,-5.14669 1.58826,-16.71882 0.37695,-19.83595 -0.57045,-1.46796 -0.85351,0.74724 -0.85351,6.69727 0,5.77824 -0.43764,9.32862 -1.25,10.14258 -1.00019,1.00216 -1.26528,-0.53588 -1.32618,-7.69727 -0.0418,-4.9225 -0.68251,-10.52422 -1.42382,-12.44922 l -1.34766,-3.5 -0.1543,3.5 c -0.0852,1.925 -0.091,6.26755 -0.0117,9.65039 0.0804,3.43233 -0.32542,6.44118 -0.91992,6.8086 -0.70914,0.43828 -1.0664,-1.37399 -1.0664,-5.42188 0,-8.56945 -4.22621,-17.74108 -10.15235,-22.03125 -2.39119,-1.73109 -4.66235,-3.99632 -5.04883,-5.03515 -0.78143,-2.10041 1.58864,-15.981766 3.79883,-22.246096 0.78342,-2.220468 1.21074,-4.250199 0.94922,-4.511719 -0.26152,-0.26152 0.004,-1.375026 0.5918,-2.472656 0.80618,-1.50636 0.73628,-2.206256 -0.28516,-2.853516 -1.07095,-0.67863 -1.01008,-0.858994 0.28906,-0.871094 0.93179,-0.0087 1.97215,-1.204695 2.40625,-2.765624 0.42064,-1.5125 0.8899,-3.2 1.04297,-3.75 0.15307,-0.550001 0.67813,-2.350001 1.16602,-4 1.51161,-5.112131 0.48825,-13.243948 -2.1543,-17.132813 -1.40441,-2.066769 -2.66613,-3.07522 -3.05664,-2.44336 -1.06865,1.729111 -2.54687,1.240645 -2.54687,-0.841796 0,-1.055016 -0.29376,-2.682701 -0.65235,-3.617188 -0.53441,-1.392634 -0.87221,-1.182186 -1.8789,1.167969 -1.13419,2.647802 -1.28765,2.714096 -1.9961,0.867187 -1.68962,-4.404817 -4.84565,-11.347495 -8.08398,-17.777343 -2.41015,-4.78548 -3.04221,-6.891986 -2.15039,-7.171875 0.69458,-0.217984 3.06172,-0.836657 5.26172,-1.375 3.53068,-0.863962 3.27278,-0.916015 -2.20899,-0.439453 -5.88199,0.511354 -6.39981,0.37467 -9.76953,-2.583985 -1.95685,-1.71813 -4.78665,-3.393771 -6.28906,-3.722656 -1.50241,-0.328884 -3.27934,-0.765661 -3.94922,-0.970703 -0.66989,-0.205042 -1.48548,0.05801 -1.81055,0.583984 -0.32508,0.525979 0.10337,0.957032 0.95117,0.957032 1.95502,0 10.57618,8.191256 10.57618,10.048828 0,0.765743 -1.62556,-0.281662 -3.61328,-2.328125 -1.98773,-2.046463 -4.23773,-3.720703 -5,-3.720703 -0.76228,0 -1.38672,-0.45 -1.38672,-1 0,-0.550001 -0.87655,-1.000002 -1.94922,-1 -1.07267,0 -2.31017,-0.5625 -2.75,-1.25 -1.36302,-2.130553 -9.59865,-8.267899 -13.80078,-10.285157 -2.57108,-1.234264 -5.96475,-1.888165 -9.49995,-1.828125 z m -25.9062,24.076172 c 0.5507,-0.0241 1.0137,0.06503 1.2695,0.304688 0.4746,0.444614 0.5946,1.240358 0.2676,1.769531 -0.7547,1.221075 -5.6309,1.268401 -5.6309,0.05469 0,-0.98017 2.4416,-2.056612 4.0938,-2.128909 z m 9.1894,2.25 c 1.3515,-0.05673 2.4878,0.140159 3,0.652344 0.3385,0.338509 -0.9371,2.919678 -2.8339,5.736328 -1.8969,2.816649 -3.4493,5.888789 -3.4493,6.826172 0,0.937382 -0.3849,1.941607 -0.8554,2.232422 -0.4706,0.290815 -0.6285,-0.657059 -0.3516,-2.105469 0.4087,-2.137977 0.1933,-2.513372 -1.1445,-2 -1.2563,0.482069 -1.6485,0.046 -1.6485,-1.835938 0,-1.357738 -0.45,-2.46875 -1,-2.46875 -1.9283,0 -0.9745,-2.875258 1.6348,-4.927734 1.546,-1.216077 4.3961,-2.014822 6.6484,-2.109375 z m 6.7012,5.029297 c 0.084,0.03802 -0.2207,0.448435 -0.8555,1.257812 -0.7548,0.9625 -1.8436,1.75 -2.4179,1.75 -0.5744,0 -0.8561,-0.12757 -0.627,-0.283203 0.2292,-0.155632 1.316,-0.943132 2.416,-1.75 0.925,-0.678504 1.4001,-1.012633 1.4844,-0.974609 z m 47.95117,2.212891 c 0.0906,-0.01025 0.18864,0.0023 0.29297,0.03711 3.11182,1.037275 6.33734,24.167456 3.79688,27.228516 -2.05912,2.48109 -4.13744,1.95284 -3.09571,-0.78711 0.83918,-2.2072 1.40538,-6.739817 1.17774,-9.44336 -0.084,-0.997994 -0.51057,-1.005088 -2.06055,-0.03711 -2.83036,1.767589 -3.709,0.187563 -1.74414,-3.138671 2.35888,-3.993275 2.20264,-5.831784 -0.30273,-3.564454 -2.3101,2.09061 -2.7433,1.100719 -0.5,-1.142578 0.83482,-0.834817 1.5,-3.280868 1.5,-5.513672 0,-2.385952 0.30109,-3.566899 0.93554,-3.638671 z m -29.29101,4.794921 c 0.2735,0 2.71447,1.867782 5.42383,4.152344 2.9653,2.500377 6.79816,4.630857 9.6289,5.34961 4.86287,1.23473 7.05406,3.498044 3.38672,3.498047 -1.14583,0 -2.08398,0.449998 -2.08398,1 0,0.549997 0.9,0.999997 2,1 1.1,0 2,0.449998 2,1 0,0.549996 -1.35,0.999999 -3,1 -1.65,0 -3,-0.450003 -3,-1 0,-0.550001 -0.89584,-1.000002 -1.99219,-1 -2.72239,0 -13.68664,-10.988524 -13.2207,-13.250001 0.19831,-0.9625 0.58392,-1.75 0.85742,-1.75 z m -74.17576,4.640625 c 0.4113,-0.09325 -0.7375,1.741395 -3.2656,5.109375 -1.3418,1.7875 -2.9066,3.249998 -3.4766,3.250001 -1.0445,0 0.7331,-2.393449 5.1973,-7.000001 0.8484,-0.875501 1.3579,-1.316989 1.5449,-1.359375 z m 4.4492,2.482422 c 0.3474,0.01431 0.6463,0.105339 0.8125,0.271485 0.3323,0.332292 -0.2583,0.56881 -1.3125,0.52539 -1.165,-0.04798 -1.4032,-0.284289 -0.6055,-0.603515 0.361,-0.144434 0.7581,-0.207669 1.1055,-0.19336 z m 1.8613,2.445313 c 0.2202,0.0036 0.4103,0.0467 0.5528,0.134765 0.598,0.3696 0.2174,0.961468 -0.8985,1.398438 -3.1266,1.224389 -4.0765,0.943647 -2.0351,-0.601563 0.7826,-0.59242 1.7202,-0.942519 2.3808,-0.93164 z m 92.49612,3.638672 c 0.17487,0.0032 0.31945,0.05383 0.42187,0.15625 0.40967,0.409667 0.0825,1.164108 -0.72656,1.675781 -2.43457,1.53967 -3.5164,1.076917 -1.70898,-0.730469 0.69731,-0.697318 1.48904,-1.111126 2.01367,-1.101562 z m 22.33593,1.175781 c 0.11954,-0.0053 0.25118,0.03221 0.38868,0.117188 0.55,0.339919 1,1.041053 1,1.558593 0,0.51754 -0.45,0.941404 -1,0.941407 -0.55,0 -1,-0.701134 -1,-1.558594 0,-0.643095 0.25273,-1.042712 0.61132,-1.058594 z m -131.06635,5.693359 c -0.1387,-0.01474 -0.3193,0.01526 -0.543,0.08984 -0.7248,0.24159 -1.4699,1.428259 -1.6543,2.636719 -0.1844,1.20846 0.1117,2.197266 0.6582,2.197266 0.5465,0 0.9941,-0.412959 0.9941,-0.917969 0,-0.50502 0.2975,-1.691689 0.6602,-2.636719 0.3359,-0.87531 0.3008,-1.324915 -0.1152,-1.369137 z m 85.97846,5.001953 c 0.64627,-0.07435 2.40018,0.549424 5.10743,1.857422 2.20288,1.06432 5.21207,2.237112 6.6875,2.607422 1.47542,0.37031 2.68164,1.074073 2.68164,1.564453 0,0.49037 -0.5625,0.871404 -1.25,0.845703 -2.26644,-0.08481 -11.10001,-3.875387 -12.6543,-5.429687 -0.90899,-0.908989 -1.07492,-1.387484 -0.57227,-1.445313 z m -104.98046,4.189454 c 0.05,0.01164 0.097,0.0383 0.1387,0.08008 0.5531,0.5531 -1.4585,7.478873 -2.6582,9.152344 -0.3944,0.55 -0.6746,5.387481 -0.6211,10.75 l 0,0 c 0.053,5.36252 0.01,9.750019 -0.1055,9.75 -0.1116,-2e-5 -0.6733,-1.6875 -1.2461,-3.75 -1.3342,-4.802752 -1.3314,-9.842223 0.01,-14.257813 0.5819,-1.92137 1.2776,-4.573904 1.5469,-5.896484 0.591,-2.902725 2.1893,-6.002794 2.9375,-5.828125 z m -7.6309,15.857422 c 0.3021,-0.02865 0.5997,0.05278 0.8379,0.291015 0.3393,0.33924 0.1357,1.09874 -0.4531,1.6875 -0.7182,0.71815 -1.2771,0.735734 -1.6992,0.05273 -0.5327,-0.861827 0.4084,-1.94529 1.3144,-2.031245 z m 61.2872,4.654296 c -6.7389,-0.11629 -12.9238,1.826874 -17.6993,5.558594 -1.9677,1.53767 -1.9634,1.551994 0.2657,0.990234 1.246,-0.314039 2.5097,-0.965608 2.8086,-1.449218 1.0725,-1.73545 10.804,-0.94583 14.2519,1.15625 1.8292,1.1152 4.9792,2.417031 7,2.894531 5.5802,1.31854 7.8085,1.216652 9.1699,-0.423828 1.0185,-1.22723 0.8176,-1.857633 -1.1269,-3.521485 -4.5541,-3.89677 -7.9135,-5.088468 -14.6699,-5.205078 z m 63.90034,4.271485 c -0.69256,0.0015 -1.5212,0.0736 -2.56641,0.191406 -5.7416,0.64716 -17.91453,6.621475 -18.35543,9.007815 -0.4113,2.22608 0.234,2.19768 7.41598,-0.32422 3.2486,-1.14073 9.31469,-2.32463 13.48047,-2.630861 l 7.57421,-0.55664 -2.74609,-3.007813 c -1.86421,-2.04105 -2.72505,-2.684306 -4.80273,-2.679687 z m 33.28711,1.351562 c 0.35615,0.05397 0.60365,0.542843 0.59765,1.289063 -0.008,0.99496 -0.45121,2.483593 -0.98437,3.308594 -0.7582,1.173232 -0.97238,0.913352 -0.98438,-1.191407 -0.008,-1.48004 0.43438,-2.968674 0.98438,-3.308593 0.1375,-0.08498 0.26796,-0.115646 0.38672,-0.09766 z m -110.08785,8.986329 c -0.5961,0.079 -0.1165,1.02873 1.4511,2.21875 1.5945,1.21037 1.5128,1.33037 -0.9277,1.35937 -1.4732,0.0175 -3.3857,-0.67477 -4.25,-1.53906 -0.8643,-0.86428 -1.5723,-1.11541 -1.5723,-0.55859 0,0.55683 0.45,1.29093 1,1.63086 1.1625,0.71841 1.3554,2.55539 0.25,2.38086 -0.4125,-0.0652 -1.875,-0.0285 -3.25,0.0801 -1.6189,0.12781 -1.9773,0.40061 -1.0175,0.77734 0.8151,0.31997 2.0856,1.18528 2.8222,1.92188 0.7366,0.73661 2.7432,1.33984 4.459,1.33984 2.9578,0 3.0181,0.0748 1.1777,1.4668 -1.5411,1.16569 -1.6212,1.4748 -0.3906,1.5 0.8525,0.0175 2.0641,-0.4821 2.6934,-1.11133 0.8587,-0.85873 0.9945,-0.57046 0.5429,1.15625 -0.4613,1.7643 -0.2868,2.10567 0.75,1.46484 0.7436,-0.45956 5.0508,-0.73394 9.5704,-0.60937 4.8942,0.13489 8.4777,-0.19655 8.8632,-0.82032 0.356,-0.576 -0.1652,-1.10869 -1.1601,-1.18359 -0.995,-0.0749 -3.4981,-0.28014 -5.5606,-0.45703 -2.1299,-0.18267 -3.75,0.12566 -3.75,0.71484 0,1.41153 -5.981,0.0404 -7.8125,-1.79101 -1.677,-1.67701 -1.5514,-1.84201 2.0625,-2.70899 2.0456,-0.49073 2.75,-0.28524 2.75,0.80078 0,2.20049 1.9764,2.97287 3.3164,1.29688 0.6509,-0.81411 2.4211,-1.7677 3.9336,-2.11914 2.3749,-0.55183 2.755,-0.32866 2.7813,1.63086 0.028,2.07161 0.1222,2.11244 1.084,0.45898 0.7985,-1.37274 1.7583,-1.65736 3.9687,-1.17187 3.3971,0.74612 3.8286,-0.46653 0.832,-2.33789 -1.146,-0.7157 -1.8438,-1.92587 -1.5507,-2.68946 0.3598,-0.93779 0.031,-1.19668 -1.0157,-0.79492 -0.8525,0.32714 -1.9165,0.004 -2.3632,-0.71875 -0.7974,-1.2902 -5.3767,-1.49109 -12.959,-0.56836 -1.9102,0.23245 -4.2727,-0.004 -5.25,-0.52734 -0.7151,-0.38268 -1.2076,-0.52808 -1.4785,-0.49219 z m 72.13472,2.82226 c -7.25114,-0.0232 -11.07105,0.92795 -13.94922,3.32618 l -2.9844,2.48632 2.6153,-0.58593 c 2.91127,-0.65324 4.38217,1.4189 3.3398,4.70312 -0.51527,1.62346 -0.0207,1.85938 3.89454,1.85938 4.01999,0 4.61992,-0.3102 5.81054,-3 1.51576,-3.42434 4.39902,-3.96428 5.33985,-1 0.34913,1.09999 1.39292,2.00567 2.31836,2.01367 0.92543,0.007 2.69414,0.28359 3.93164,0.61523 2.83528,0.75982 2.92385,-0.87692 0.24804,-4.63476 -1.1019,-1.54747 -1.77374,-3.41687 -1.49218,-4.1543 0.38928,-1.01956 -0.98699,-1.39248 -5.7461,-1.56055 -1.18314,-0.0418 -2.29029,-0.065 -3.32617,-0.0684 z m -19.95702,2.0254 c -1.1089,-0.20146 -4.4766,3.7413 -4.4766,5.41601 0,0.74084 0.45,1.34766 1,1.34766 0.55,0 1,-0.52769 1,-1.17188 0,-0.64419 0.7469,-1.99668 1.6602,-3.00586 0.9132,-1.00918 1.3676,-2.12848 1.0078,-2.48828 -0.052,-0.0522 -0.1175,-0.0842 -0.1914,-0.0977 z m -19.5352,1.76367 c -0.5175,0 -0.9414,0.45 -0.9414,1 0,0.55 0.7031,1 1.5606,1 0.8575,0 1.2794,-0.45 0.9394,-1 -0.3399,-0.55 -1.041,-1 -1.5586,-1 z m 33.55863,3 c 3.62194,0 4.68792,1.32966 1.91796,2.39258 -2.06815,0.7936 -3.91998,0.76948 -4.75,-0.0605 -1.49448,-1.49448 -0.47717,-2.33204 2.83204,-2.33203 z m 24.73632,0 c 0.20682,0 0.58539,0.5 1.34375,1.5 1.31194,1.72998 2.68895,2 10.19922,2 9.45821,0 9.53658,0.0496 11.7461,7.5 l 0.74218,2.5 -2.20898,-2.5 -2.21094,-2.5 0.66797,2.5 c 0.36716,1.375 1.32705,4.75 2.13281,7.5 0.97644,3.33256 1.26145,7.00092 0.85352,11 -0.33662,3.3 -0.69962,7.21295 -0.80664,8.69726 -0.11939,1.65583 -0.89446,2.88319 -2.00586,3.17383 -1.36917,0.35805 -1.76875,-0.0572 -1.63867,-1.69922 0.0946,-1.19484 0.10273,-2.39687 0.0195,-2.67187 -0.0832,-0.275 -0.31867,-3.68459 -0.52344,-7.57617 -0.23751,-4.51375 -1.15851,-8.74977 -2.54492,-11.69922 -3.24449,-6.90237 -5.05437,-7.80056 -2.9082,-1.44336 2.19632,6.50584 3.50748,15.71875 2.23632,15.71875 -0.51082,0 -1.50996,-2.8125 -2.21875,-6.25 -1.29181,-6.26507 -2.51768,-8.75 -4.32031,-8.75 -0.58162,0 -0.68016,1.68678 -0.24805,4.24414 l 0.7168,4.24609 -3.3789,-3.3164 -3.38086,-3.31446 -0.52149,4.32031 c -0.44064,3.64386 -0.64789,3.968 -1.31836,2.07032 -0.43722,-1.2375 -1.16442,-2.25001 -1.61719,-2.25 -1.0706,0 -1.8907,-6.97688 -0.89257,-7.59375 0.41944,-0.25923 0.50782,-1.13678 0.19531,-1.95117 -0.31251,-0.81439 -0.0328,-2.12768 0.62305,-2.91797 0.65589,-0.7903 1.10849,-2.69613 1.00586,-4.23633 -0.1027,-1.5402 -0.12463,-3.70079 -0.0488,-4.80078 0.0689,-1 0.10373,-1.5 0.31054,-1.5 z m 22.61719,1.06445 c 2.46746,-0.009 9.65043,12.65711 10.03711,18.18555 0.14426,2.0625 0.005,3.75 -0.3125,3.75 -0.31714,0 -0.57526,-0.7875 -0.57226,-1.75 0.01,-3.53012 -3.55449,-11.53255 -6.85352,-15.38672 -1.8644,-2.17813 -3.09127,-4.25834 -2.72656,-4.62305 0.11916,-0.11916 0.26323,-0.17516 0.42773,-0.17578 z m -38.77148,2.42578 c -0.1793,0.0196 -0.37578,0.0693 -0.58203,0.14844 -0.825,0.31659 -1.5,0.75259 -1.5,0.96875 0,0.21615 0.675,0.39258 1.5,0.39258 0.825,0 1.5,-0.43601 1.5,-0.96875 0,-0.39955 -0.38008,-0.59986 -0.91797,-0.54102 z m 58.2832,6.85547 c -0.15157,-0.0229 -0.25516,0.34222 -0.28516,1.07031 -0.0434,1.05416 0.19313,1.64479 0.52539,1.3125 0.33225,-0.3323 0.367,-1.19415 0.0781,-1.91601 -0.11971,-0.29915 -0.22742,-0.45303 -0.31836,-0.4668 z m -201.56246,8.45703 2.1738,2.17383 c 1.1956,1.19557 2.4194,3.68275 2.7187,5.52734 0.3656,2.25241 1.0787,3.33267 2.1739,3.28907 3.118,-0.12428 7.1625,2.18277 8.334,4.7539 0.8061,1.76928 1.7509,2.43685 2.9882,2.11328 2.7372,-0.71578 2.1659,0.85641 -0.8027,2.20899 -1.9739,0.89942 -2.951,0.90773 -4,0.0371 -1.0547,-0.87527 -1.3887,-0.85953 -1.3887,0.0645 0,0.66884 0.9,1.45062 2,1.73828 1.1,0.28766 2,0.9204 2,1.40625 0,0.48585 -1.2793,0.88477 -2.8437,0.88477 -5.5096,0 -10.7301,-7.17137 -11.5703,-15.89453 -0.2043,-2.12052 -0.688,-4.85705 -1.0762,-6.08008 z m 108.0468,0.48828 c -0.074,-0.0482 -0.6709,0.22774 -1.8496,0.78907 -1.375,0.65484 -2.6868,1.35418 -2.916,1.55468 -1.3723,1.20066 1.8816,0.0849 3.4746,-1.1914 0.9152,-0.73319 1.3649,-1.10418 1.291,-1.15235 z m -111.2636,1.44532 c 0.2338,0.053 0.3199,1.14203 0.3515,3.51367 0.035,2.6125 0.4163,4.75 0.8477,4.75 0.4313,0 2.0584,2.68082 3.6152,5.95898 3.0821,6.4898 5.2875,8.37148 13.0196,11.10352 3.9808,1.40658 4.6808,1.95037 3.2304,2.51172 -1.018,0.394 -2.143,0.26565 -2.5,-0.28516 -0.357,-0.55081 -2.3476,-1.31385 -4.4219,-1.69531 -4.1439,-0.76209 -10.7285,-5.89624 -10.7285,-8.36524 0,-0.85968 -0.2963,-1.26619 -0.6582,-0.90429 -0.3619,0.36189 -1.2619,0.15749 -2,-0.45508 -1.0289,-0.85391 -1.3418,-0.73609 -1.3418,0.50781 0,0.89234 0.375,1.62305 0.8321,1.62305 0.457,0 1.4538,1.16206 2.2148,2.58398 1.3267,2.4789 5.2095,5.17545 9.4531,6.5625 1.5726,0.51399 1.3588,0.66816 -1,0.72266 -1.65,0.0381 -3.9,-0.44058 -5,-1.06446 -2.6573,-1.50713 -6.4725,-5.60886 -6.6113,-7.10742 -0.6634,-7.16088 -0.6108,-17.23046 0.098,-18.99023 0.2661,-0.66107 0.4593,-1.0025 0.5996,-0.9707 z m 123.7793,3.76367 c -0.943,0.0441 -2.232,1.08486 -3.6621,3.04101 l -1.7969,2.45899 3.0781,0 c 3.1973,0 4.6825,-1.82035 3.6602,-4.48438 -0.2726,-0.71022 -0.7136,-1.04206 -1.2793,-1.01562 z m -12.4473,3.62304 c -0.3474,-0.0143 -0.7445,0.0489 -1.1055,0.19336 -0.7977,0.31923 -0.5594,0.55552 0.6055,0.60352 1.0542,0.0434 1.6448,-0.1931 1.3125,-0.52539 -0.1662,-0.16613 -0.4651,-0.25718 -0.8125,-0.27149 z m -56.75,4.87696 c -0.4583,0 -0.834,0.675 -0.834,1.5 0,0.825 0.3757,1.5 0.834,1.5 0.4583,0 0.832,-0.675 0.832,-1.5 0,-0.825 -0.3737,-1.5 -0.832,-1.5 z m 0.4434,4.34375 c -0.3586,-0.0603 -0.6114,0.16081 -0.6114,0.59765 0,0.58246 0.45,1.0586 1,1.0586 0.55,0 1,-0.19887 1,-0.44141 0,-0.24254 -0.45,-0.71867 -1,-1.05859 -0.1375,-0.085 -0.2691,-0.13616 -0.3886,-0.15625 z m 131.75386,0.002 c 0.0909,0.0138 0.19865,0.16765 0.31836,0.4668 0.28891,0.72187 0.2542,1.58371 -0.0781,1.91601 -0.3323,0.33229 -0.56879,-0.25834 -0.52539,-1.3125 0.03,-0.72809 0.13359,-1.09326 0.28516,-1.07031 z m -64.85746,3.6543 c -0.3466,0.0538 -0.4021,0.36269 -0.01,1.0039 0.4619,0.74729 -0.3574,2.1264 -2.123,3.57032 -2.2473,1.83785 -4.1123,2.36057 -8.5137,2.38867 -3.0996,0.0198 -6.9246,0.70964 -8.5,1.53125 -3.4665,1.80789 -6.5468,1.92194 -8.164,0.30469 -0.9334,-0.93333 -1.2003,-0.43333 -1.1993,2.25 10e-4,2.71093 0.8306,4.23107 3.8731,7.09375 4.3036,4.04925 9.0929,6.55785 13.625,7.13671 3.9551,0.50516 8.345,0.20967 9.1719,-0.61718 0.3645,-0.36449 -1.5498,-0.66363 -4.2539,-0.66407 -6.9685,-0.001 -14.2567,-3.04817 -18.2012,-7.61132 l -3.3027,-3.82227 6.2929,-1.93359 c 3.4615,-1.06438 8.093,-1.83601 10.293,-1.71485 2.2,0.12115 5.8,0.3022 8,0.40235 2.2,0.10014 3.9155,0.65827 3.8125,1.24218 -0.1089,0.61741 1.5649,1.0359 4,1 5.30466,-0.0781 6.00374,-2.64125 1.9726,-7.23632 -2.0632,-2.35187 -5.7374,-4.48557 -6.7773,-4.32422 z m -5.5078,0.0859 c -3.4246,0.0418 -4.022,0.26001 -2.5,0.91406 2.6773,1.15046 3.7198,1.15046 5.5,0 1.0854,-0.70141 0.2561,-0.95387 -3,-0.91406 z m -83.791,2.10351 c 0.4483,0.0587 0.791,0.59393 0.791,1.72656 0,1.14583 -0.4761,2.08399 -1.0586,2.08399 -0.5824,0 -0.8254,0.37567 -0.541,0.83594 0.2845,0.46021 -1.359,1.83839 -3.6523,3.0625 -4.0174,2.14431 -4.103,2.15118 -2.3047,0.16406 1.0266,-1.13435 2.4432,-2.0625 3.1465,-2.0625 0.7032,0 1.4197,-1.20375 1.5937,-2.67383 0.2376,-2.00669 1.2782,-3.23447 2.0254,-3.13672 z m 119.23048,0.81055 c -0.2131,0 -1.0862,1.35 -1.93945,3 -0.85325,1.65 -1.18768,3 -0.74414,3 0.44355,0 1.31664,-1.35 1.93945,-3 0.6228,-1.65 0.95724,-3 0.74414,-3 z m -52.22458,1 c -0.4972,0 -1.7609,0.9645 -2.8086,2.14453 -1.8918,2.13061 -1.89,2.13704 0.289,0.99414 2.4307,-1.27489 3.9273,-3.13867 2.5196,-3.13867 z m -67.3047,5 c 1.5072,0 1.3635,1.16425 -0.4668,3.77734 -1.4682,2.09613 -4.4825,3.10271 -4.4102,1.47266 0.057,-1.29184 3.7342,-5.25 4.877,-5.25 z m 84.1426,3.6914 c -0.3266,0.0101 -0.7003,0.0421 -1.1055,0.10157 -1.621,0.23791 -2.9473,0.60773 -2.9473,0.82031 0,0.76198 4.8932,0.3682 5.3887,-0.4336 0.2088,-0.33785 -0.3562,-0.51861 -1.3359,-0.48828 z m 14.57223,0.65625 c -0.32651,-0.0653 -0.99473,0.39345 -1.60353,1.12696 -0.7887,0.95039 -0.8662,1.52539 -0.2031,1.52539 1.20854,0 2.61926,-1.8983 1.92577,-2.5918 -0.0315,-0.0315 -0.0725,-0.0512 -0.11914,-0.0606 z m 25.17382,1.1543 c 0.38421,0.0731 0.62364,0.46959 0.90235,1.22461 0.3599,0.97496 1.13644,2.09873 1.72656,2.49609 0.59012,0.39735 -0.61523,0.66189 -2.67773,0.58789 -4.13227,-0.14821 -4.84978,-1.64327 -1.72657,-3.59375 0.86152,-0.53803 1.39119,-0.78796 1.77539,-0.71484 z m 6.91797,4.64649 c 0.17058,0.0396 0.28321,0.28255 0.28321,0.68359 0,0.64167 0.57575,1.16797 1.27929,1.16797 1.45328,0 8.72071,6.76112 8.72071,8.11328 0,1.37185 -0.22675,1.2137 -5.92774,-4.13867 -2.94415,-2.76411 -5.06544,-5.31542 -4.71289,-5.66797 0.13221,-0.13221 0.25508,-0.18198 0.35742,-0.1582 z m -36.28122,0.46289 c -0.3354,0.0399 -0.8197,0.2365 -1.4356,0.62109 -1.1,0.68696 -2,1.59011 -2,2.00781 0,1.14138 1.4463,0.91309 2.8008,-0.4414 1.1949,-1.19492 1.4395,-2.04174 0.9199,-2.17579 -0.078,-0.0201 -0.1733,-0.025 -0.2851,-0.0117 z m -111.4766,1.81445 c 0.6176,-0.0108 1.212,0.15665 1.8047,0.50195 1.3769,0.8022 1.4255,1.01979 0.2363,1.05469 -0.825,0.0242 -2.5125,0.31484 -3.75,0.64648 -2.7946,0.74894 -2.9307,-0.19468 -0.2363,-1.63672 0.687,-0.36768 1.3277,-0.5556 1.9453,-0.5664 z m 33.9414,1.5664 c 0.3086,-0.0399 0.7777,0.053 1.4082,0.29493 1.9921,0.76445 5.5379,8.34412 4.6074,9.84961 -0.4265,0.69025 -0.4132,1.95395 0.029,2.80859 0.914,1.76517 -0.1284,5.53759 -1.2265,4.43945 -0.3953,-0.39527 -0.7188,-3.05323 -0.7188,-5.90625 0,-4.1771 -0.4969,-5.72303 -2.5547,-7.94336 -1.9493,-2.10332 -2.4705,-3.42324 -1.5449,-3.54297 z m 10.1602,1.00782 c -0.5825,0 -1.0606,0.45 -1.0606,1 0,0.55 0.1989,1 0.4414,1 0.2426,0 0.7187,-0.45 1.0586,-1 0.34,-0.55 0.143,-1 -0.4394,-1 z m 88.3281,0.37695 c 0.35859,0.007 0.61133,0.38516 0.61133,1.00391 0,0.825 -0.45,1.77922 -1,2.11914 -0.55,0.33992 -1,-0.0578 -1,-0.88282 0,-0.82499 0.45,-1.77726 1,-2.11718 0.1375,-0.085 0.26914,-0.12535 0.38867,-0.12305 z m 11.69726,0.25195 c 1.11363,0.10119 4.1697,2.92403 9.35547,8.60547 7.00904,7.67898 7.71047,9.94547 3.86719,12.48438 -2.09113,1.38142 -2.30516,1.22557 -4.69336,-3.38672 -3.14658,-6.07694 -7.20081,-11.06438 -8.19336,-10.08008 -0.41679,0.41333 -0.15686,1.87471 0.57813,3.24805 0.73499,1.37334 1.07294,2.76105 0.75,3.08398 -0.32293,0.32293 -1.08922,-0.35095 -1.70313,-1.49804 -1.55366,-2.90304 -3.38319,-2.63264 -2.80078,0.41406 0.29287,1.53206 0.0172,2.5 -0.71094,2.5 -0.74539,0 -1.0279,1.09333 -0.75781,2.93359 0.37786,2.57453 0.17247,2.86563 -1.67383,2.38281 -1.15706,-0.30258 -2.10351,-0.10746 -2.10351,0.4336 0,0.54106 -1.79031,2.1691 -3.97852,3.61718 -2.18821,1.44809 -4.43821,2.63282 -5,2.63282 -1.25407,0 -1.34862,-1.6807 -0.13672,-2.42969 1.62213,-1.00253 1.90364,-7.02824 0.48828,-10.47461 -1.65608,-4.03252 -1.39053,-4.44088 2.87696,-4.39648 1.7875,0.0186 4.02088,-0.63448 4.96289,-1.45313 0.94202,-0.81866 2.39088,-1.22979 3.21875,-0.91211 1.92554,0.7389 3.14343,-1.1593 1.68164,-2.62109 -1.89269,-1.89269 -1.23432,-2.783 1.54297,-2.08594 2.34713,0.58909 2.59004,0.42 2.09765,-1.46289 -0.2787,-1.06575 -0.17416,-1.58115 0.33203,-1.53516 z m -100.27536,2.3711 c -0.6557,0 -0.5842,0.56777 0.1894,1.5 0.6847,0.825 0.8529,1.50762 0.3731,1.51562 -0.4799,0.008 -0.4231,0.34592 0.1269,0.75 0.55,0.40408 1.4922,1.63438 2.0938,2.73438 0.6016,1.1 2.6266,3.03726 4.5,4.30468 1.8734,1.26744 4.3062,3.06756 5.4062,4.00196 1.1,0.93439 5.0076,3.83619 8.6817,6.44726 4.7324,3.36319 7.3339,6.05869 8.9258,9.2461 1.2358,2.47461 2.6921,4.5 3.2363,4.5 0.5442,0 0.726,0.26421 0.4023,0.58789 -0.3237,0.32369 0.6578,2.70255 2.1817,5.28711 2.6896,4.56155 4.6225,11.06926 4.1972,14.125 -0.1628,1.17019 -0.014,1.21394 0.6739,0.19922 0.9679,-1.42741 -0.4753,-7.92018 -3.3789,-15.19922 -3.7354,-9.364 -7.458,-13.96409 -17.795,-21.98828 -12.9521,-10.05426 -17.4531,-14.08075 -18.1777,-16.26172 -0.3198,-0.9625 -1.0564,-1.75 -1.6367,-1.75 z m -19.8106,3.10937 -3.5,0.10352 4.2657,0.95508 c 2.8787,0.6444 4.9736,1.90992 6.4394,3.89257 2.548,3.44633 3.8331,3.79945 3.0586,0.8379 -0.7629,-2.91739 -6.0725,-5.91284 -10.2637,-5.78907 z m -2.1191,3.01758 c -0.5438,-0.007 -1.1249,0.0529 -1.6113,0.17969 -0.973,0.25354 -0.4196,0.47765 1.2304,0.49804 1.65,0.0204 2.4466,-0.187 1.7696,-0.46093 -0.3386,-0.13699 -0.845,-0.21008 -1.3887,-0.2168 z m 4.3223,0.87305 c -1.2785,0 -1.2099,0.27341 0.3554,1.41797 1.0668,0.78003 1.6056,1.75189 1.1973,2.16015 -0.4083,0.40827 -1.569,-0.005 -2.5781,-0.91797 -1.0092,-0.9133 -2.6992,-1.65905 -3.7559,-1.6582 -1.3352,10e-4 -0.8543,0.57322 1.5781,1.87695 4.2306,2.26746 4.7248,2.37687 5.4453,1.21094 0.9099,-1.47213 -0.5253,-4.08984 -2.2421,-4.08984 z m -26.1426,1 c -0.5825,0 -1.0606,0.45 -1.0606,1 0,0.55 0.1989,1 0.4414,1 0.2426,0 0.7187,-0.45 1.0586,-1 0.34,-0.55 0.143,-1 -0.4394,-1 z m 2.9394,3.08594 c -0.825,-0.0302 -2.175,0.3809 -3,0.91406 -1.8279,1.18132 -0.2491,1.18132 2.5,0 1.3188,-0.56668 1.4891,-0.87786 0.5,-0.91406 z m 122.97268,0.9082 c 1.52725,-0.18635 1.30236,3.77999 -0.97265,9.76562 -1.09973,2.8934 -2,5.95087 -2,6.79297 0,0.8421 -0.95885,2.52378 -2.13086,3.73828 l -2.13086,2.20899 0.64258,-3.5 c 2.04322,-11.14737 3.27067,-15.89149 4.49218,-17.35547 0.88768,-1.06387 1.59053,-1.58827 2.09961,-1.65039 z m -135.03128,3.00586 c 0.5825,0 1.0586,0.45 1.0586,1 0,0.55 -0.1969,1 -0.4394,1 -0.2426,0 -0.7206,-0.45 -1.0606,-1 -0.3399,-0.55 -0.141,-1 0.4414,-1 z m 1.1192,3 c 0.5824,0 0.7794,0.45 0.4394,1 -0.3399,0.55 -0.816,1 -1.0586,1 -0.2425,0 -0.4414,-0.45 -0.4414,-1 0,-0.55 0.4781,-1 1.0606,-1 z m 122.93943,1 c 0.55,0 1,0.45 1,1 0,0.55 -0.45,1 -1,1 -0.55003,0 -1.00003,-0.45 -1.00003,-1 0,-0.55 0.45,-1 1.00003,-1 z m -102.00003,0.1289 c 0.4532,0 0.9063,0.0703 1.25,0.20899 0.6875,0.27741 0.125,0.5039 -1.25,0.5039 -1.375,0 -1.9375,-0.22649 -1.25,-0.5039 0.3438,-0.13871 0.7969,-0.20899 1.25,-0.20899 z m 105.61135,3.21485 c 0.11954,0.0201 0.25118,0.0713 0.38868,0.15625 0.55,0.33992 1,0.81605 1,1.05859 0,0.24254 -0.45,0.44141 -1,0.44141 -0.55,0 -1,-0.47614 -1,-1.0586 0,-0.43684 0.25273,-0.65794 0.61132,-0.59765 z m -115.19335,3.10937 c 0.2318,0.047 0.2732,0.23973 0.076,0.5586 -0.336,0.5437 -1.0352,0.98828 -1.5527,0.98828 -1.4385,0 -1.1211,-0.71802 0.6113,-1.38282 0.2225,-0.0854 0.415,-0.13866 0.5723,-0.1621 0.1179,-0.0176 0.2157,-0.0176 0.2929,-0.002 z m 100.082,1.54688 c 1.375,0 2.5,0.45 2.5,1 0,0.55 -1.125,1 -2.5,1 -1.375,0 -2.5,-0.45 -2.5,-1 0,-0.55 1.125,-1 2.5,-1 z m -104,0.0293 c 0.55,0 0.325,0.43755 -0.5,0.97071 -0.825,0.53316 -1.95,0.96875 -2.5,0.96875 -0.55,0 -0.325,-0.43559 0.5,-0.96875 0.825,-0.53316 1.95,-0.97071 2.5,-0.97071 z m 6.5293,6.17383 c -0.7874,0.017 -1.6648,0.12369 -2.6191,0.32032 -2.3169,0.47731 -3.191,0.9729 -2.1465,1.21679 0.9692,0.22631 1.4605,0.89689 1.0938,1.49024 -0.3778,0.61122 -0.2023,0.79089 0.4043,0.41601 1.4359,-0.88746 6.226,1.00571 8.914,3.52344 1.1968,1.12099 2.6558,1.744 3.2402,1.38281 0.6513,-0.40252 0.8287,-0.0519 0.461,0.90625 -0.4356,1.13517 -0.1584,1.39431 1.0117,0.94531 0.8862,-0.34008 1.6113,-1.0393 1.6113,-1.55273 0,-1.64817 -4.3298,-6.85156 -5.7011,-6.85156 -0.7291,0 -2.1474,-0.51495 -3.1524,-1.14258 -0.7434,-0.46428 -1.8048,-0.68266 -3.1172,-0.6543 z m -3.5293,0.82227 3.5,0.59179 c 1.925,0.32607 3.9287,0.99624 4.4512,1.48829 1.4738,1.38794 -1.547,0.99805 -4.9512,-0.63868 z m 113.32034,10.23828 c -0.22367,-0.0629 -0.74594,0.37702 -1.35154,1.17773 -0.8075,1.06762 -1.4688,2.38946 -1.4688,2.93946 0,0.55 0.6613,0.12816 1.4688,-0.93946 0.80748,-1.06762 1.46873,-2.3914 1.46873,-2.9414 0,-0.1375 -0.0426,-0.21537 -0.11719,-0.23633 z m -57.61324,3.2832 c -0.1332,0.0254 -0.2071,0.12741 -0.2071,0.31446 0,0.72434 1.0125,2.13925 2.25,3.14257 3.2787,2.65817 3.6003,1.39133 0.4473,-1.76172 -1.1491,-1.14912 -2.0908,-1.7715 -2.4902,-1.69531 z m 53.9297,3.45313 c -0.4193,0 -1.3815,1.575 -2.1368,3.5 -1.5142,3.85922 -0.9797,3.72787 -15.8437,3.91015 -4.0399,0.0495 -7.5597,-0.25626 -7.8203,-0.67773 -0.2607,-0.42147 -0.9302,-0.4836 -1.4883,-0.13867 -0.5591,0.3455 -6.8757,0.61618 -19.5801,0.83398 l 51.52344,0 c -3.44304,-0.0359 -5.91954,-0.079 -6.03124,-0.13867 -0.4076,-0.21789 -0.093,-1.94817 0.6992,-3.84375 0.792,-1.89557 1.097,-3.44531 0.6778,-3.44531 z"
       id="path4147"
       inkscape:connector-curvature="0"
       sodipodi:nodetypes="sssssssscsssssssssccccsssscsssscsscccsssccccssssssscccssssscssssssssssscssccssssscccsssssscsssssccssssssssssscsssssssssccsssssssssssssscssssssssssssssssssssssscssssscsscssccsssssssssssssssscccccsssssssscsssssscsssscsssscccssssccsssssssssssscssssscsscssccsssssccssssssssccssssssssssssscccsscscsscssssssssssssccccsssssssscsssssssssssssssscssssssssssssssssssscsssssssscssssssssssssssssssssssssssssssssssssssssssscssssssssssssssscsscssccsccscsscscsssssssssssssscscccsccscscsscssscssssscssssscssssssscsssscssssscscsssscsssssssssccssssssssssssscccccsssscssssssscccccsssssccsssscssssscsssscssscsssssccssssscccssscscsssscsscssssscsssssccscsssccsssssscsssccscccssssssscsssscccssscsscsscssscsssssssssssssssssscsccccssccscscssccsssscssssccsscssscscsssscssssscsssscsssssscsssssssssscsssssssscssssssscssssssscccsscssscsssssssssssssscsscssscscsssssssssssssssssscssscsscscccssccssssssssscscccsssssssssccscccssssccssscsssssccssccccccsscc" />
  </g>
</svg>
